<svg xmlns="http://www.w3.org/2000/svg" xmlns:xlink="http://www.w3.org/1999/xlink" width="508" zoomAndPan="magnify" viewBox="0 0 381 353.249998" height="471" preserveAspectRatio="xMidYMid meet" version="1.0"><defs><clipPath id="0e2c40ddbf"><path d="M 0.402344 2 L 379.847656 2 L 379.847656 352.5 L 0.402344 352.5 Z M 0.402344 2 " clip-rule="nonzero"/></clipPath></defs><g clip-path="url(#0e2c40ddbf)"><path fill="#ffffff" d="M 0.402344 129.300781 C 0.402344 141.875 1.882812 153.160156 4.84375 163.886719 L 5.027344 164.441406 C 6.507812 169.988281 8.355469 175.539062 10.574219 180.71875 C 11.316406 182.382812 12.054688 184.230469 12.980469 186.265625 L 13.351562 186.820312 C 13.535156 187.003906 13.535156 187.375 13.71875 187.558594 L 13.90625 188.113281 C 17.050781 194.773438 20.75 201.617188 24.816406 208.273438 C 25.558594 209.570312 26.296875 210.679688 27.222656 211.972656 C 31.105469 217.894531 35.175781 223.8125 39.613281 229.359375 C 40.539062 230.46875 41.464844 231.765625 42.386719 232.875 C 46.085938 237.5 50.15625 242.121094 54.59375 246.929688 L 54.964844 247.300781 C 55.707031 248.039062 56.445312 248.78125 57 249.519531 L 57.554688 250.074219 C 57.925781 250.445312 58.109375 250.628906 58.480469 251 C 76.234375 269.496094 95.839844 286.695312 118.035156 302.972656 C 118.960938 303.710938 120.070312 304.453125 121.179688 305.191406 C 133.570312 314.253906 146.703125 322.949219 160.761719 331.640625 L 161.316406 332.011719 L 190.167969 352.171875 L 219.019531 332.011719 C 219.019531 332.011719 219.207031 332.011719 219.207031 331.824219 L 219.574219 331.640625 C 248.242188 314.253906 273.210938 295.945312 295.40625 276.152344 C 303.914062 268.570312 312.238281 260.800781 320.007812 252.664062 C 320.5625 252.109375 321.117188 251.554688 321.671875 251 C 322.039062 250.628906 322.226562 250.445312 322.597656 250.074219 L 323.152344 249.519531 C 323.890625 248.78125 324.628906 247.855469 325.371094 247.117188 L 325.554688 246.929688 C 329.808594 242.308594 333.691406 237.867188 337.390625 233.429688 C 337.578125 233.246094 337.761719 233.058594 337.761719 232.875 C 338.316406 232.320312 338.6875 231.765625 339.242188 231.210938 C 339.796875 230.65625 340.167969 230.101562 340.722656 229.546875 C 345.160156 223.996094 349.230469 218.078125 353.113281 212.160156 C 353.851562 211.050781 354.59375 209.753906 355.519531 208.460938 C 356.257812 207.351562 356.996094 206.054688 357.738281 204.945312 C 358.847656 203.097656 359.957031 201.246094 360.882812 199.398438 C 362.917969 195.699219 364.765625 192 366.613281 188.300781 L 366.800781 187.746094 C 366.984375 187.558594 366.984375 187.191406 367.171875 186.820312 L 367.539062 186.082031 C 368.464844 184.046875 369.203125 182.382812 369.945312 180.53125 C 372.164062 175.167969 374.011719 169.621094 375.492188 164.070312 L 375.679688 163.699219 C 378.636719 152.972656 380.117188 141.691406 380.117188 129.113281 C 380.117188 123.378906 379.933594 117.460938 379.378906 111.359375 C 377.710938 92.679688 374.011719 77.882812 367.910156 65.121094 C 359.957031 48.105469 347.195312 34.046875 329.070312 22.394531 C 323.890625 19.066406 318.710938 16.105469 313.71875 13.703125 L 313.164062 13.332031 C 291.707031 2.234375 269.144531 0.015625 246.210938 6.488281 C 242.878906 7.414062 239.550781 8.523438 236.40625 9.816406 C 224.753906 14.070312 214.210938 20.359375 204.964844 28.683594 C 199.601562 33.308594 194.792969 38.671875 190.351562 44.589844 C 185.914062 38.671875 180.921875 33.308594 175.742188 28.683594 C 166.308594 20.730469 155.765625 14.257812 144.113281 10.1875 C 140.96875 8.894531 137.640625 7.785156 134.496094 6.859375 C 111.375 0.199219 88.996094 2.605469 67.359375 13.703125 L 66.617188 14.070312 C 61.625 16.476562 56.445312 19.4375 51.265625 22.765625 C 33.140625 34.417969 20.378906 48.472656 12.425781 65.488281 C 6.320312 78.4375 2.808594 93.046875 0.957031 111.726562 C 0.589844 117.648438 0.402344 123.566406 0.402344 129.300781 Z M 359.21875 185.15625 C 359.21875 184.785156 359.03125 184.230469 359.03125 183.859375 C 357.921875 178.3125 355.703125 172.207031 352.375 167.585938 C 349.414062 163.515625 344.421875 160.1875 340.722656 156.671875 C 336.097656 152.046875 330.363281 147.054688 324.816406 143.355469 C 323.152344 142.246094 320.746094 140.953125 318.898438 141.875 C 316.675781 140.765625 314.085938 140.210938 312.238281 139.839844 C 305.578125 138.917969 298.550781 137.992188 291.707031 137.4375 C 284.679688 136.882812 276.910156 137.621094 270.070312 139.472656 C 263.039062 141.507812 255.457031 143.726562 248.796875 146.5 C 238.257812 150.9375 230.671875 161.480469 225.863281 171.46875 C 224.382812 174.613281 223.089844 177.941406 220.871094 180.902344 C 217.542969 184.972656 213.289062 184.046875 209.589844 187.003906 C 205.519531 190.335938 205.703125 195.511719 205.703125 200.320312 C 205.703125 200.320312 205.703125 200.320312 205.703125 200.507812 C 203.667969 201.988281 200.894531 202.355469 199.601562 204.390625 C 197.9375 207.164062 198.675781 210.308594 199.230469 213.085938 C 199.414062 214.195312 199.785156 216.414062 199.601562 217.707031 C 199.414062 219.371094 198.492188 219.925781 197.75 221.035156 C 196.640625 223.070312 196.085938 225.847656 195.53125 228.066406 C 193.683594 235.648438 195.347656 241.382812 197.75 248.410156 C 198.304688 250.261719 199.230469 252.480469 200.15625 254.882812 C 200.15625 255.4375 200.339844 255.808594 200.710938 256.179688 C 201.265625 257.472656 202.003906 258.769531 202.746094 260.0625 C 202.746094 260.433594 202.558594 260.800781 202.191406 261.542969 C 200.339844 265.054688 196.085938 264.316406 192.757812 264.132812 C 187.578125 263.761719 182.769531 263.761719 177.589844 264.5 C 167.972656 265.796875 160.203125 271.160156 151.882812 275.96875 C 141.710938 281.886719 132.832031 289.65625 124.507812 297.976562 C 124.324219 297.792969 124.140625 297.609375 123.769531 297.421875 C 124.878906 294.835938 125.988281 292.429688 126.914062 289.65625 C 129.503906 281.515625 132.460938 274.304688 132.460938 265.609375 C 132.460938 258.027344 130.058594 250.628906 126.914062 243.785156 C 123.582031 236.386719 119.144531 229.730469 113.964844 223.441406 C 109.15625 217.707031 103.054688 213.085938 97.320312 208.273438 C 93.992188 205.5 90.292969 203.097656 87.332031 200.136719 C 84.375 197.179688 82.894531 192.925781 81.042969 189.226562 C 79.5625 186.265625 78.085938 180.71875 78.269531 177.203125 C 78.453125 170.175781 84.929688 165.550781 91.402344 164.253906 C 92.328125 164.070312 92.511719 163.332031 92.328125 162.777344 C 96.027344 161.667969 99.722656 161.113281 103.792969 161.480469 C 119.144531 162.960938 127.835938 173.875 135.789062 186.082031 C 140.785156 193.847656 150.585938 200.320312 160.019531 199.582031 C 171.855469 198.472656 175.742188 187.003906 183.695312 180.160156 C 184.0625 179.792969 184.25 179.421875 184.0625 178.867188 C 185.175781 178.3125 186.285156 177.757812 187.578125 177.757812 C 189.058594 177.757812 190.351562 177.941406 191.832031 177.757812 C 194.050781 177.386719 196.085938 176.648438 197.75 175.167969 C 199.785156 173.320312 201.082031 171.285156 200.339844 168.324219 C 199.96875 166.660156 199.046875 165.367188 198.121094 163.886719 C 200.894531 164.996094 203.484375 165.550781 206.8125 164.625 C 212.175781 163.332031 209.773438 156.859375 213.472656 154.082031 C 213.472656 154.082031 213.65625 153.898438 213.65625 153.898438 C 217.910156 158.707031 220.316406 160 227.527344 159.078125 C 232.523438 158.335938 235.851562 154.082031 237.886719 149.644531 C 241.03125 142.984375 239.734375 134.664062 241.03125 127.449219 C 242.695312 119.3125 246.765625 110.0625 251.203125 103.035156 C 255.273438 96.746094 261.558594 93.046875 265.8125 86.945312 C 268.773438 82.691406 271.734375 78.25 274.136719 73.628906 C 279.132812 63.640625 283.015625 51.433594 281.90625 40.152344 C 281.90625 40.152344 282.089844 39.964844 282.089844 39.964844 C 285.605469 35.15625 288.5625 29.238281 290.230469 23.503906 C 290.96875 21.101562 291.894531 17.214844 291.523438 13.886719 C 297.441406 15.550781 303.359375 17.769531 309.09375 20.730469 L 309.832031 21.101562 C 314.644531 23.503906 319.636719 26.277344 324.445312 29.421875 C 341.277344 40.335938 353.113281 53.097656 360.511719 68.820312 C 366.246094 80.839844 369.574219 94.710938 371.238281 112.46875 C 371.792969 118.203125 371.980469 123.933594 371.980469 129.300781 C 371.980469 141.136719 370.5 151.679688 367.726562 161.667969 L 367.539062 162.035156 C 366.058594 167.398438 364.394531 172.578125 362.359375 177.574219 C 361.621094 179.238281 360.882812 180.902344 360.140625 182.75 L 359.21875 184.785156 C 359.402344 184.972656 359.402344 184.972656 359.21875 185.15625 Z M 359.21875 185.15625 " fill-opacity="1" fill-rule="nonzero"/><path fill="#ffffff" d="M 0.402344 129.300781 C 0.402344 141.875 1.882812 153.160156 4.84375 163.886719 L 5.027344 164.441406 C 6.507812 169.988281 8.355469 175.539062 10.574219 180.71875 C 11.316406 182.382812 12.054688 184.230469 12.980469 186.265625 L 13.351562 186.820312 C 13.535156 187.003906 13.535156 187.375 13.71875 187.558594 L 13.90625 188.113281 C 17.050781 194.773438 20.75 201.617188 24.816406 208.273438 C 25.558594 209.570312 26.296875 210.679688 27.222656 211.972656 C 31.105469 217.894531 35.175781 223.8125 39.613281 229.359375 C 40.539062 230.46875 41.464844 231.765625 42.386719 232.875 C 46.085938 237.5 50.15625 242.121094 54.59375 246.929688 L 54.964844 247.300781 C 55.707031 248.039062 56.445312 248.78125 57 249.519531 L 57.554688 250.074219 C 57.925781 250.445312 58.109375 250.628906 58.480469 251 C 76.234375 269.496094 95.839844 286.695312 118.035156 302.972656 C 118.960938 303.710938 120.070312 304.453125 121.179688 305.191406 C 133.570312 314.253906 146.703125 322.949219 160.761719 331.640625 L 161.316406 332.011719 L 190.167969 352.171875 L 219.019531 332.011719 C 219.019531 332.011719 219.207031 332.011719 219.207031 331.824219 L 219.574219 331.640625 C 248.242188 314.253906 273.210938 295.945312 295.40625 276.152344 C 303.914062 268.570312 312.238281 260.800781 320.007812 252.664062 C 320.5625 252.109375 321.117188 251.554688 321.671875 251 C 322.039062 250.628906 322.226562 250.445312 322.597656 250.074219 L 323.152344 249.519531 C 323.890625 248.78125 324.628906 247.855469 325.371094 247.117188 L 325.554688 246.929688 C 329.808594 242.308594 333.691406 237.867188 337.390625 233.429688 C 337.578125 233.246094 337.761719 233.058594 337.761719 232.875 C 338.316406 232.320312 338.6875 231.765625 339.242188 231.210938 C 339.796875 230.65625 340.167969 230.101562 340.722656 229.546875 C 345.160156 223.996094 349.230469 218.078125 353.113281 212.160156 C 353.851562 211.050781 354.59375 209.753906 355.519531 208.460938 C 356.257812 207.351562 356.996094 206.054688 357.738281 204.945312 C 358.847656 203.097656 359.957031 201.246094 360.882812 199.398438 C 362.917969 195.699219 364.765625 192 366.613281 188.300781 L 366.800781 187.746094 C 366.984375 187.558594 366.984375 187.191406 367.171875 186.820312 L 367.539062 186.082031 C 368.464844 184.046875 369.203125 182.382812 369.945312 180.53125 C 372.164062 175.167969 374.011719 169.621094 375.492188 164.070312 L 375.679688 163.699219 C 378.636719 152.972656 380.117188 141.691406 380.117188 129.113281 C 380.117188 123.378906 379.933594 117.460938 379.378906 111.359375 C 377.710938 92.679688 374.011719 77.882812 367.910156 65.121094 C 359.957031 48.105469 347.195312 34.046875 329.070312 22.394531 C 323.890625 19.066406 318.710938 16.105469 313.71875 13.703125 L 313.164062 13.332031 C 291.707031 2.234375 269.144531 0.015625 246.210938 6.488281 C 242.878906 7.414062 239.550781 8.523438 236.40625 9.816406 C 224.753906 14.070312 214.210938 20.359375 204.964844 28.683594 C 199.601562 33.308594 194.792969 38.671875 190.351562 44.589844 C 185.914062 38.671875 180.921875 33.308594 175.742188 28.683594 C 166.308594 20.730469 155.765625 14.257812 144.113281 10.1875 C 140.96875 8.894531 137.640625 7.785156 134.496094 6.859375 C 111.375 0.199219 88.996094 2.605469 67.359375 13.703125 L 66.617188 14.070312 C 61.625 16.476562 56.445312 19.4375 51.265625 22.765625 C 33.140625 34.417969 20.378906 48.472656 12.425781 65.488281 C 6.320312 78.4375 2.808594 93.046875 0.957031 111.726562 C 0.589844 117.648438 0.402344 123.566406 0.402344 129.300781 Z M 359.21875 185.15625 C 359.21875 184.785156 359.03125 184.230469 359.03125 183.859375 C 357.921875 178.3125 355.703125 172.207031 352.375 167.585938 C 349.414062 163.515625 344.421875 160.1875 340.722656 156.671875 C 336.097656 152.046875 330.363281 147.054688 324.816406 143.355469 C 323.152344 142.246094 320.746094 140.953125 318.898438 141.875 C 316.675781 140.765625 314.085938 140.210938 312.238281 139.839844 C 305.578125 138.917969 298.550781 137.992188 291.707031 137.4375 C 284.679688 136.882812 276.910156 137.621094 270.070312 139.472656 C 263.039062 141.507812 255.457031 143.726562 248.796875 146.5 C 238.257812 150.9375 230.671875 161.480469 225.863281 171.46875 C 224.382812 174.613281 223.089844 177.941406 220.871094 180.902344 C 217.542969 184.972656 213.289062 184.046875 209.589844 187.003906 C 205.519531 190.335938 205.703125 195.511719 205.703125 200.320312 C 205.703125 200.320312 205.703125 200.320312 205.703125 200.507812 C 203.667969 201.988281 200.894531 202.355469 199.601562 204.390625 C 197.9375 207.164062 198.675781 210.308594 199.230469 213.085938 C 199.414062 214.195312 199.785156 216.414062 199.601562 217.707031 C 199.414062 219.371094 198.492188 219.925781 197.75 221.035156 C 196.640625 223.070312 196.085938 225.847656 195.53125 228.066406 C 193.683594 235.648438 195.347656 241.382812 197.75 248.410156 C 198.304688 250.261719 199.230469 252.480469 200.15625 254.882812 C 200.15625 255.4375 200.339844 255.808594 200.710938 256.179688 C 201.265625 257.472656 202.003906 258.769531 202.746094 260.0625 C 202.746094 260.433594 202.558594 260.800781 202.191406 261.542969 C 200.339844 265.054688 196.085938 264.316406 192.757812 264.132812 C 187.578125 263.761719 182.769531 263.761719 177.589844 264.5 C 167.972656 265.796875 160.203125 271.160156 151.882812 275.96875 C 141.710938 281.886719 132.832031 289.65625 124.507812 297.976562 C 124.324219 297.792969 124.140625 297.609375 123.769531 297.421875 C 124.878906 294.835938 125.988281 292.429688 126.914062 289.65625 C 129.503906 281.515625 132.460938 274.304688 132.460938 265.609375 C 132.460938 258.027344 130.058594 250.628906 126.914062 243.785156 C 123.582031 236.386719 119.144531 229.730469 113.964844 223.441406 C 109.15625 217.707031 103.054688 213.085938 97.320312 208.273438 C 93.992188 205.5 90.292969 203.097656 87.332031 200.136719 C 84.375 197.179688 82.894531 192.925781 81.042969 189.226562 C 79.5625 186.265625 78.085938 180.71875 78.269531 177.203125 C 78.453125 170.175781 84.929688 165.550781 91.402344 164.253906 C 92.328125 164.070312 92.511719 163.332031 92.328125 162.777344 C 96.027344 161.667969 99.722656 161.113281 103.792969 161.480469 C 119.144531 162.960938 127.835938 173.875 135.789062 186.082031 C 140.785156 193.847656 150.585938 200.320312 160.019531 199.582031 C 171.855469 198.472656 175.742188 187.003906 183.695312 180.160156 C 184.0625 179.792969 184.25 179.421875 184.0625 178.867188 C 185.175781 178.3125 186.285156 177.757812 187.578125 177.757812 C 189.058594 177.757812 190.351562 177.941406 191.832031 177.757812 C 194.050781 177.386719 196.085938 176.648438 197.75 175.167969 C 199.785156 173.320312 201.082031 171.285156 200.339844 168.324219 C 199.96875 166.660156 199.046875 165.367188 198.121094 163.886719 C 200.894531 164.996094 203.484375 165.550781 206.8125 164.625 C 212.175781 163.332031 209.773438 156.859375 213.472656 154.082031 C 213.472656 154.082031 213.65625 153.898438 213.65625 153.898438 C 217.910156 158.707031 220.316406 160 227.527344 159.078125 C 232.523438 158.335938 235.851562 154.082031 237.886719 149.644531 C 241.03125 142.984375 239.734375 134.664062 241.03125 127.449219 C 242.695312 119.3125 246.765625 110.0625 251.203125 103.035156 C 255.273438 96.746094 261.558594 93.046875 265.8125 86.945312 C 268.773438 82.691406 271.734375 78.25 274.136719 73.628906 C 279.132812 63.640625 283.015625 51.433594 281.90625 40.152344 C 281.90625 40.152344 282.089844 39.964844 282.089844 39.964844 C 285.605469 35.15625 288.5625 29.238281 290.230469 23.503906 C 290.96875 21.101562 291.894531 17.214844 291.523438 13.886719 C 297.441406 15.550781 303.359375 17.769531 309.09375 20.730469 L 309.832031 21.101562 C 314.644531 23.503906 319.636719 26.277344 324.445312 29.421875 C 341.277344 40.335938 353.113281 53.097656 360.511719 68.820312 C 366.246094 80.839844 369.574219 94.710938 371.238281 112.46875 C 371.792969 118.203125 371.980469 123.933594 371.980469 129.300781 C 371.980469 141.136719 370.5 151.679688 367.726562 161.667969 L 367.539062 162.035156 C 366.058594 167.398438 364.394531 172.578125 362.359375 177.574219 C 361.621094 179.238281 360.882812 180.902344 360.140625 182.75 L 359.21875 184.785156 C 359.402344 184.972656 359.402344 184.972656 359.21875 185.15625 Z M 359.21875 185.15625 " fill-opacity="1" fill-rule="nonzero"/></g></svg>