<svg xmlns="http://www.w3.org/2000/svg" xmlns:xlink="http://www.w3.org/1999/xlink" width="444" zoomAndPan="magnify" viewBox="0 0 333 323.999988" height="432" preserveAspectRatio="xMidYMid meet" version="1.0"><path fill="#ffffff" d="M 209.824219 83.980469 C 214.199219 91.167969 224.65625 97.429688 233.054688 97.902344 L 321.394531 102.839844 C 329.796875 103.3125 332.1875 108.917969 326.699219 115.296875 L 269.046875 182.414062 C 263.566406 188.792969 260.835938 200.667969 262.984375 208.804688 L 285.585938 294.347656 C 287.734375 302.484375 283.144531 306.488281 275.378906 303.242188 L 193.730469 269.152344 C 185.964844 265.910156 173.828125 266.984375 166.757812 271.542969 L 92.382812 319.472656 C 85.3125 324.027344 80.085938 320.894531 80.769531 312.511719 L 87.964844 224.324219 C 88.652344 215.941406 83.875 204.730469 77.355469 199.410156 L 8.785156 143.488281 C 2.265625 138.171875 3.628906 132.230469 11.816406 130.289062 L 97.910156 109.882812 C 106.097656 107.941406 115.285156 99.9375 118.328125 92.09375 L 150.324219 9.601562 C 153.367188 1.757812 159.433594 1.21875 163.808594 8.402344 Z M 209.824219 83.980469 " fill-opacity="1" fill-rule="nonzero"/><path fill="#ffffff" d="M 298.765625 39.140625 C 266.621094 43.023438 263.480469 46.167969 259.59375 78.3125 C 255.710938 46.167969 252.566406 43.023438 220.421875 39.140625 C 252.566406 35.257812 255.710938 32.109375 259.59375 -0.0351562 C 263.480469 32.109375 266.621094 35.257812 298.765625 39.140625 Z M 298.765625 39.140625 " fill-opacity="1" fill-rule="nonzero"/><path fill="#ffffff" d="M 78.960938 244.785156 C 46.816406 248.664062 43.671875 251.816406 39.785156 283.957031 C 35.90625 251.816406 32.761719 248.664062 0.613281 244.785156 C 32.761719 240.902344 35.90625 237.753906 39.785156 205.609375 C 43.671875 237.757812 46.816406 240.902344 78.960938 244.785156 Z M 78.960938 244.785156 " fill-opacity="1" fill-rule="nonzero"/><path fill="#ffffff" d="M 209.824219 83.980469 C 214.199219 91.167969 224.65625 97.429688 233.054688 97.902344 L 321.394531 102.839844 C 329.796875 103.3125 332.1875 108.917969 326.699219 115.296875 L 269.046875 182.414062 C 263.566406 188.792969 260.835938 200.667969 262.984375 208.804688 L 285.585938 294.347656 C 287.734375 302.484375 283.144531 306.488281 275.378906 303.242188 L 193.730469 269.152344 C 185.964844 265.910156 173.828125 266.984375 166.757812 271.542969 L 92.382812 319.472656 C 85.3125 324.027344 80.085938 320.894531 80.769531 312.511719 L 87.964844 224.324219 C 88.652344 215.941406 83.875 204.730469 77.355469 199.410156 L 8.785156 143.488281 C 2.265625 138.171875 3.628906 132.230469 11.816406 130.289062 L 97.910156 109.882812 C 106.097656 107.941406 115.285156 99.9375 118.328125 92.09375 L 150.324219 9.601562 C 153.367188 1.757812 159.433594 1.21875 163.808594 8.402344 Z M 209.824219 83.980469 " fill-opacity="1" fill-rule="nonzero"/><path fill="#ffffff" d="M 298.765625 39.140625 C 266.621094 43.023438 263.480469 46.167969 259.59375 78.3125 C 255.710938 46.167969 252.566406 43.023438 220.421875 39.140625 C 252.566406 35.257812 255.710938 32.109375 259.59375 -0.0351562 C 263.480469 32.109375 266.621094 35.257812 298.765625 39.140625 Z M 298.765625 39.140625 " fill-opacity="1" fill-rule="nonzero"/><path fill="#ffffff" d="M 78.960938 244.785156 C 46.816406 248.664062 43.671875 251.816406 39.785156 283.957031 C 35.90625 251.816406 32.761719 248.664062 0.613281 244.785156 C 32.761719 240.902344 35.90625 237.753906 39.785156 205.609375 C 43.671875 237.757812 46.816406 240.902344 78.960938 244.785156 Z M 78.960938 244.785156 " fill-opacity="1" fill-rule="nonzero"/></svg>