<svg xmlns="http://www.w3.org/2000/svg" xmlns:xlink="http://www.w3.org/1999/xlink" width="432" zoomAndPan="magnify" viewBox="0 0 324 209.249992" height="279" preserveAspectRatio="xMidYMid meet" version="1.0"><defs><clipPath id="62794fdc9e"><path d="M 0.578125 2 L 323.421875 2 L 323.421875 204 L 0.578125 204 Z M 0.578125 2 " clip-rule="nonzero"/></clipPath></defs><g clip-path="url(#62794fdc9e)"><path fill="#4753bf" d="M 142.34375 66.398438 C 127.992188 76.816406 113.113281 86.417969 97.703125 95.195312 C 95.136719 96.648438 94.804688 100.257812 96.957031 103.285156 C 99.109375 106.3125 102.871094 107.527344 105.507812 105.992188 C 111.554688 102.398438 117.628906 98.597656 123.730469 94.589844 C 123.925781 94.476562 124.132812 94.40625 124.355469 94.371094 C 124.578125 94.335938 124.796875 94.339844 125.015625 94.390625 C 125.234375 94.4375 125.4375 94.523438 125.625 94.648438 C 125.8125 94.773438 125.96875 94.929688 126.097656 95.113281 C 126.238281 95.265625 126.34375 95.445312 126.410156 95.644531 C 126.480469 95.84375 126.503906 96.046875 126.484375 96.257812 C 126.464844 96.464844 126.40625 96.664062 126.300781 96.847656 C 126.199219 97.03125 126.0625 97.183594 125.894531 97.3125 C 116.765625 103.382812 107.699219 108.984375 98.695312 114.117188 C 96.128906 115.570312 95.800781 119.1875 97.953125 122.203125 C 100.105469 125.21875 103.9375 126.425781 106.511719 124.878906 C 114.585938 120.035156 122.71875 114.828125 130.910156 109.253906 C 131.101562 109.140625 131.304688 109.0625 131.523438 109.023438 C 131.742188 108.988281 131.964844 108.988281 132.179688 109.03125 C 132.398438 109.074219 132.601562 109.152344 132.792969 109.273438 C 132.980469 109.390625 133.140625 109.539062 133.273438 109.714844 C 133.417969 109.871094 133.523438 110.046875 133.589844 110.246094 C 133.65625 110.445312 133.679688 110.652344 133.664062 110.859375 C 133.644531 111.070312 133.582031 111.265625 133.480469 111.449219 C 133.378906 111.632812 133.242188 111.789062 133.074219 111.917969 C 123.675781 118.40625 114.339844 124.394531 105.058594 129.890625 C 102.480469 131.40625 102.148438 135.035156 104.300781 137.992188 C 106.453125 140.949219 110.308594 142.070312 112.898438 140.464844 C 123 134.203125 133.160156 127.363281 143.386719 119.945312 C 143.542969 119.839844 143.710938 119.769531 143.894531 119.726562 C 144.078125 119.6875 144.261719 119.679688 144.449219 119.707031 C 144.632812 119.734375 144.808594 119.792969 144.972656 119.886719 C 145.136719 119.976562 145.277344 120.097656 145.398438 120.242188 C 145.519531 120.375 145.605469 120.53125 145.664062 120.703125 C 145.722656 120.875 145.742188 121.050781 145.726562 121.230469 C 145.707031 121.414062 145.65625 121.582031 145.566406 121.742188 C 145.480469 121.902344 145.363281 122.035156 145.21875 122.144531 C 137.554688 127.765625 129.921875 133.058594 122.3125 138.015625 C 119.710938 139.707031 119.367188 143.347656 121.554688 146.175781 C 123.742188 149 127.609375 149.851562 130.222656 148.066406 C 142.523438 139.6875 154.890625 130.4375 167.320312 120.324219 C 167.457031 120.210938 167.613281 120.179688 167.78125 120.230469 C 167.90625 120.261719 167.996094 120.335938 168.054688 120.449219 C 168.113281 120.5625 168.121094 120.679688 168.078125 120.796875 C 166.675781 124.699219 165.269531 128.585938 163.855469 132.457031 C 163.71875 132.917969 163.625 133.386719 163.582031 133.863281 C 163.539062 134.34375 163.542969 134.820312 163.59375 135.296875 C 163.648438 135.773438 163.746094 136.242188 163.894531 136.699219 C 164.042969 137.15625 164.234375 137.59375 164.472656 138.011719 C 164.707031 138.429688 164.984375 138.820312 165.300781 139.179688 C 165.617188 139.542969 165.964844 139.871094 166.347656 140.160156 C 166.730469 140.453125 167.136719 140.703125 167.570312 140.910156 C 168.003906 141.117188 168.453125 141.28125 168.917969 141.398438 C 169.402344 141.523438 169.890625 141.597656 170.390625 141.632812 C 170.886719 141.664062 171.382812 141.648438 171.878906 141.585938 C 172.375 141.523438 172.859375 141.414062 173.335938 141.261719 C 173.808594 141.109375 174.265625 140.914062 174.703125 140.671875 C 175.140625 140.433594 175.554688 140.15625 175.9375 139.839844 C 176.324219 139.523438 176.675781 139.171875 176.996094 138.789062 C 177.316406 138.40625 177.597656 137.996094 177.839844 137.558594 C 178.082031 137.125 178.28125 136.667969 178.4375 136.195312 C 182.964844 121.863281 187.484375 107.425781 192 92.886719 C 192.761719 90.527344 193.808594 88.300781 195.144531 86.207031 C 196.476562 84.117188 198.054688 82.226562 199.878906 80.542969 C 210.96875 70.074219 221.96875 58.910156 232.871094 47.050781 C 251.382812 42 269.144531 35.042969 286.160156 26.179688 C 294.328125 21.933594 300.738281 24.855469 300.75 33.359375 C 300.761719 41.859375 294.328125 52.679688 286.160156 56.925781 C 274.355469 63.074219 262.164062 68.3125 249.582031 72.644531 C 236.996094 76.972656 224.164062 80.347656 211.078125 82.765625 C 210.578125 82.859375 210.109375 83.03125 209.667969 83.285156 C 209.226562 83.535156 208.839844 83.851562 208.507812 84.234375 C 208.171875 84.617188 207.910156 85.042969 207.71875 85.511719 C 207.523438 85.980469 207.414062 86.46875 207.386719 86.976562 C 207.382812 87.203125 207.40625 87.425781 207.457031 87.648438 C 207.503906 87.867188 207.578125 88.082031 207.675781 88.285156 C 207.773438 88.492188 207.894531 88.679688 208.035156 88.859375 C 208.179688 89.035156 208.339844 89.191406 208.519531 89.332031 C 208.695312 89.472656 208.886719 89.589844 209.09375 89.683594 C 209.300781 89.78125 209.511719 89.851562 209.734375 89.894531 C 209.957031 89.941406 210.179688 89.960938 210.40625 89.957031 C 210.632812 89.949219 210.859375 89.917969 211.078125 89.859375 C 228.636719 86.613281 245.703125 81.65625 262.273438 74.996094 C 278.84375 68.335938 294.589844 60.101562 309.515625 50.292969 C 317.320312 45.171875 323.410156 47.394531 323.410156 55.898438 C 323.410156 64.398438 317.320312 75.917969 309.515625 81.039062 C 295.738281 90.09375 281.246094 97.8125 266.042969 104.191406 C 250.839844 110.574219 235.183594 115.507812 219.070312 119 C 218.488281 119.128906 217.941406 119.351562 217.429688 119.660156 C 216.921875 119.96875 216.472656 120.347656 216.085938 120.800781 C 215.695312 121.257812 215.390625 121.761719 215.167969 122.3125 C 214.945312 122.867188 214.816406 123.441406 214.777344 124.039062 C 214.773438 124.300781 214.800781 124.558594 214.855469 124.816406 C 214.914062 125.070312 214.996094 125.316406 215.113281 125.554688 C 215.226562 125.789062 215.367188 126.007812 215.535156 126.210938 C 215.703125 126.414062 215.890625 126.59375 216.097656 126.75 C 216.308594 126.910156 216.53125 127.042969 216.773438 127.144531 C 217.015625 127.25 217.261719 127.324219 217.523438 127.371094 C 217.78125 127.417969 218.039062 127.433594 218.300781 127.417969 C 218.5625 127.402344 218.820312 127.355469 219.070312 127.277344 C 233.070312 124.25 246.738281 120.128906 260.074219 114.910156 C 273.410156 109.695312 286.25 103.449219 298.585938 96.175781 C 306.570312 91.445312 312.777344 94.035156 312.777344 102.527344 C 312.777344 111.015625 306.523438 122.214844 298.585938 126.921875 C 284.8125 135.058594 270.425781 141.910156 255.425781 147.472656 C 240.425781 153.035156 225.050781 157.222656 209.304688 160.035156 C 208.722656 160.136719 208.171875 160.335938 207.65625 160.621094 C 207.140625 160.910156 206.6875 161.277344 206.296875 161.71875 C 205.90625 162.160156 205.597656 162.65625 205.371094 163.203125 C 205.148438 163.75 205.019531 164.316406 204.988281 164.90625 C 204.984375 165.171875 205.011719 165.433594 205.070312 165.695312 C 205.125 165.953125 205.214844 166.203125 205.328125 166.441406 C 205.441406 166.679688 205.582031 166.902344 205.75 167.113281 C 205.914062 167.320312 206.101562 167.503906 206.308594 167.667969 C 206.519531 167.832031 206.742188 167.972656 206.980469 168.085938 C 207.222656 168.199219 207.472656 168.28125 207.730469 168.339844 C 207.992188 168.394531 208.253906 168.417969 208.519531 168.414062 C 208.785156 168.410156 209.046875 168.378906 209.304688 168.3125 C 230.300781 164.574219 250.5625 158.417969 270.085938 149.839844 C 278.460938 146.175781 285.070312 149.582031 285.082031 158.121094 C 285.09375 166.65625 278.460938 176.957031 270.085938 180.589844 C 258.242188 185.78125 246.085938 190.101562 233.617188 193.542969 C 221.152344 196.984375 208.5 199.511719 195.667969 201.128906 C 182.835938 202.746094 169.953125 203.433594 157.023438 203.191406 C 144.089844 202.949219 131.246094 201.78125 118.480469 199.6875 C 102.707031 197.121094 87.390625 189.210938 74.085938 177.21875 C 61.078125 165.601562 46.953125 155.546875 31.714844 147.0625 C 26.636719 144.246094 21.640625 141.261719 16.722656 138.097656 C 7.601562 132.234375 0.578125 118.90625 0.578125 109.125 L 0.578125 42.902344 C 0.578125 33.097656 7.601562 30.53125 16.660156 36.351562 C 22.78125 40.292969 29.007812 43.949219 35.347656 47.324219 C 46.949219 53.542969 58.667969 55.128906 68.871094 52.277344 C 101.238281 43.292969 135.414062 27.859375 169.390625 5.980469 C 178.640625 0.0664062 190.984375 1.453125 196.945312 9.363281 C 202.90625 17.273438 200.304688 29.46875 191.101562 36.242188 C 161.773438 56.265625 145.421875 63.9375 142.34375 66.398438 Z M 142.34375 66.398438 " fill-opacity="1" fill-rule="evenodd"/><path fill="#4753bf" d="M 142.34375 66.398438 C 127.992188 76.816406 113.113281 86.417969 97.703125 95.195312 C 95.136719 96.648438 94.804688 100.257812 96.957031 103.285156 C 99.109375 106.3125 102.871094 107.527344 105.507812 105.992188 C 111.554688 102.398438 117.628906 98.597656 123.730469 94.589844 C 123.925781 94.476562 124.132812 94.40625 124.355469 94.371094 C 124.578125 94.335938 124.796875 94.339844 125.015625 94.390625 C 125.234375 94.4375 125.4375 94.523438 125.625 94.648438 C 125.8125 94.773438 125.96875 94.929688 126.097656 95.113281 C 126.238281 95.265625 126.34375 95.445312 126.410156 95.644531 C 126.480469 95.84375 126.503906 96.046875 126.484375 96.257812 C 126.464844 96.464844 126.40625 96.664062 126.300781 96.847656 C 126.199219 97.03125 126.0625 97.183594 125.894531 97.3125 C 116.765625 103.382812 107.699219 108.984375 98.695312 114.117188 C 96.128906 115.570312 95.800781 119.1875 97.953125 122.203125 C 100.105469 125.21875 103.9375 126.425781 106.511719 124.878906 C 114.585938 120.035156 122.71875 114.828125 130.910156 109.253906 C 131.101562 109.140625 131.304688 109.0625 131.523438 109.023438 C 131.742188 108.988281 131.964844 108.988281 132.179688 109.03125 C 132.398438 109.074219 132.601562 109.152344 132.792969 109.273438 C 132.980469 109.390625 133.140625 109.539062 133.273438 109.714844 C 133.417969 109.871094 133.523438 110.046875 133.589844 110.246094 C 133.65625 110.445312 133.679688 110.652344 133.664062 110.859375 C 133.644531 111.070312 133.582031 111.265625 133.480469 111.449219 C 133.378906 111.632812 133.242188 111.789062 133.074219 111.917969 C 123.675781 118.40625 114.339844 124.394531 105.058594 129.890625 C 102.480469 131.40625 102.148438 135.035156 104.300781 137.992188 C 106.453125 140.949219 110.308594 142.070312 112.898438 140.464844 C 123 134.203125 133.160156 127.363281 143.386719 119.945312 C 143.542969 119.839844 143.710938 119.769531 143.894531 119.726562 C 144.078125 119.6875 144.261719 119.679688 144.449219 119.707031 C 144.632812 119.734375 144.808594 119.792969 144.972656 119.886719 C 145.136719 119.976562 145.277344 120.097656 145.398438 120.242188 C 145.519531 120.375 145.605469 120.53125 145.664062 120.703125 C 145.722656 120.875 145.742188 121.050781 145.726562 121.230469 C 145.707031 121.414062 145.65625 121.582031 145.566406 121.742188 C 145.480469 121.902344 145.363281 122.035156 145.21875 122.144531 C 137.554688 127.765625 129.921875 133.058594 122.3125 138.015625 C 119.710938 139.707031 119.367188 143.347656 121.554688 146.175781 C 123.742188 149 127.609375 149.851562 130.222656 148.066406 C 142.523438 139.6875 154.890625 130.4375 167.320312 120.324219 C 167.457031 120.210938 167.613281 120.179688 167.78125 120.230469 C 167.90625 120.261719 167.996094 120.335938 168.054688 120.449219 C 168.113281 120.5625 168.121094 120.679688 168.078125 120.796875 C 166.675781 124.699219 165.269531 128.585938 163.855469 132.457031 C 163.71875 132.917969 163.625 133.386719 163.582031 133.863281 C 163.539062 134.34375 163.542969 134.820312 163.59375 135.296875 C 163.648438 135.773438 163.746094 136.242188 163.894531 136.699219 C 164.042969 137.15625 164.234375 137.59375 164.472656 138.011719 C 164.707031 138.429688 164.984375 138.820312 165.300781 139.179688 C 165.617188 139.542969 165.964844 139.871094 166.347656 140.160156 C 166.730469 140.453125 167.136719 140.703125 167.570312 140.910156 C 168.003906 141.117188 168.453125 141.28125 168.917969 141.398438 C 169.402344 141.523438 169.890625 141.597656 170.390625 141.632812 C 170.886719 141.664062 171.382812 141.648438 171.878906 141.585938 C 172.375 141.523438 172.859375 141.414062 173.335938 141.261719 C 173.808594 141.109375 174.265625 140.914062 174.703125 140.671875 C 175.140625 140.433594 175.554688 140.15625 175.9375 139.839844 C 176.324219 139.523438 176.675781 139.171875 176.996094 138.789062 C 177.316406 138.40625 177.597656 137.996094 177.839844 137.558594 C 178.082031 137.125 178.28125 136.667969 178.4375 136.195312 C 182.964844 121.863281 187.484375 107.425781 192 92.886719 C 192.761719 90.527344 193.808594 88.300781 195.144531 86.207031 C 196.476562 84.117188 198.054688 82.226562 199.878906 80.542969 C 210.96875 70.074219 221.96875 58.910156 232.871094 47.050781 C 251.382812 42 269.144531 35.042969 286.160156 26.179688 C 294.328125 21.933594 300.738281 24.855469 300.75 33.359375 C 300.761719 41.859375 294.328125 52.679688 286.160156 56.925781 C 274.355469 63.074219 262.164062 68.3125 249.582031 72.644531 C 236.996094 76.972656 224.164062 80.347656 211.078125 82.765625 C 210.578125 82.859375 210.109375 83.03125 209.667969 83.285156 C 209.226562 83.535156 208.839844 83.851562 208.507812 84.234375 C 208.171875 84.617188 207.910156 85.042969 207.71875 85.511719 C 207.523438 85.980469 207.414062 86.46875 207.386719 86.976562 C 207.382812 87.203125 207.40625 87.425781 207.457031 87.648438 C 207.503906 87.867188 207.578125 88.082031 207.675781 88.285156 C 207.773438 88.492188 207.894531 88.679688 208.035156 88.859375 C 208.179688 89.035156 208.339844 89.191406 208.519531 89.332031 C 208.695312 89.472656 208.886719 89.589844 209.09375 89.683594 C 209.300781 89.78125 209.511719 89.851562 209.734375 89.894531 C 209.957031 89.941406 210.179688 89.960938 210.40625 89.957031 C 210.632812 89.949219 210.859375 89.917969 211.078125 89.859375 C 228.636719 86.613281 245.703125 81.65625 262.273438 74.996094 C 278.84375 68.335938 294.589844 60.101562 309.515625 50.292969 C 317.320312 45.171875 323.410156 47.394531 323.410156 55.898438 C 323.410156 64.398438 317.320312 75.917969 309.515625 81.039062 C 295.738281 90.09375 281.246094 97.8125 266.042969 104.191406 C 250.839844 110.574219 235.183594 115.507812 219.070312 119 C 218.488281 119.128906 217.941406 119.351562 217.429688 119.660156 C 216.921875 119.96875 216.472656 120.347656 216.085938 120.800781 C 215.695312 121.257812 215.390625 121.761719 215.167969 122.3125 C 214.945312 122.867188 214.816406 123.441406 214.777344 124.039062 C 214.773438 124.300781 214.800781 124.558594 214.855469 124.816406 C 214.914062 125.070312 214.996094 125.316406 215.113281 125.554688 C 215.226562 125.789062 215.367188 126.007812 215.535156 126.210938 C 215.703125 126.414062 215.890625 126.59375 216.097656 126.75 C 216.308594 126.910156 216.53125 127.042969 216.773438 127.144531 C 217.015625 127.25 217.261719 127.324219 217.523438 127.371094 C 217.78125 127.417969 218.039062 127.433594 218.300781 127.417969 C 218.5625 127.402344 218.820312 127.355469 219.070312 127.277344 C 233.070312 124.25 246.738281 120.128906 260.074219 114.910156 C 273.410156 109.695312 286.25 103.449219 298.585938 96.175781 C 306.570312 91.445312 312.777344 94.035156 312.777344 102.527344 C 312.777344 111.015625 306.523438 122.214844 298.585938 126.921875 C 284.8125 135.058594 270.425781 141.910156 255.425781 147.472656 C 240.425781 153.035156 225.050781 157.222656 209.304688 160.035156 C 208.722656 160.136719 208.171875 160.335938 207.65625 160.621094 C 207.140625 160.910156 206.6875 161.277344 206.296875 161.71875 C 205.90625 162.160156 205.597656 162.65625 205.371094 163.203125 C 205.148438 163.75 205.019531 164.316406 204.988281 164.90625 C 204.984375 165.171875 205.011719 165.433594 205.070312 165.695312 C 205.125 165.953125 205.214844 166.203125 205.328125 166.441406 C 205.441406 166.679688 205.582031 166.902344 205.75 167.113281 C 205.914062 167.320312 206.101562 167.503906 206.308594 167.667969 C 206.519531 167.832031 206.742188 167.972656 206.980469 168.085938 C 207.222656 168.199219 207.472656 168.28125 207.730469 168.339844 C 207.992188 168.394531 208.253906 168.417969 208.519531 168.414062 C 208.785156 168.410156 209.046875 168.378906 209.304688 168.3125 C 230.300781 164.574219 250.5625 158.417969 270.085938 149.839844 C 278.460938 146.175781 285.070312 149.582031 285.082031 158.121094 C 285.09375 166.65625 278.460938 176.957031 270.085938 180.589844 C 258.242188 185.78125 246.085938 190.101562 233.617188 193.542969 C 221.152344 196.984375 208.5 199.511719 195.667969 201.128906 C 182.835938 202.746094 169.953125 203.433594 157.023438 203.191406 C 144.089844 202.949219 131.246094 201.78125 118.480469 199.6875 C 102.707031 197.121094 87.390625 189.210938 74.085938 177.21875 C 61.078125 165.601562 46.953125 155.546875 31.714844 147.0625 C 26.636719 144.246094 21.640625 141.261719 16.722656 138.097656 C 7.601562 132.234375 0.578125 118.90625 0.578125 109.125 L 0.578125 42.902344 C 0.578125 33.097656 7.601562 30.53125 16.660156 36.351562 C 22.78125 40.292969 29.007812 43.949219 35.347656 47.324219 C 46.949219 53.542969 58.667969 55.128906 68.871094 52.277344 C 101.238281 43.292969 135.414062 27.859375 169.390625 5.980469 C 178.640625 0.0664062 190.984375 1.453125 196.945312 9.363281 C 202.90625 17.273438 200.304688 29.46875 191.101562 36.242188 C 161.773438 56.265625 145.421875 63.9375 142.34375 66.398438 Z M 142.34375 66.398438 " fill-opacity="1" fill-rule="evenodd"/></g></svg>