<svg xmlns="http://www.w3.org/2000/svg" xmlns:xlink="http://www.w3.org/1999/xlink" width="441" zoomAndPan="magnify" viewBox="0 0 330.75 92.249997" height="123" preserveAspectRatio="xMidYMid meet" version="1.0"><defs><g/><clipPath id="875f46e7ad"><path d="M 1.210938 0 L 329.292969 0 L 329.292969 91.507812 L 1.210938 91.507812 Z M 1.210938 0 " clip-rule="nonzero"/></clipPath></defs><g clip-path="url(#875f46e7ad)"><path fill="#ffffff" d="M 1.210938 0 L 329.292969 0 L 329.292969 91.507812 L 1.210938 91.507812 Z M 1.210938 0 " fill-opacity="1" fill-rule="nonzero"/></g><g fill="#000000" fill-opacity="1"><g transform="translate(13.664136, 57.259677)"><g><path d="M 20.671875 -1.984375 C 17.253906 0.773438 13.46875 2.15625 9.3125 2.15625 C 4.570312 2.15625 1.648438 0.832031 0.546875 -1.8125 C 0.296875 -2.4375 0.171875 -3.160156 0.171875 -3.984375 C 0.171875 -4.816406 0.59375 -5.710938 1.4375 -6.671875 C 2.757812 -8.171875 4.59375 -8.921875 6.9375 -8.921875 C 8.519531 -8.921875 10.109375 -8.632812 11.703125 -8.0625 C 13.304688 -7.5 16.144531 -6.132812 20.21875 -3.96875 C 22.0625 -5.726562 23.898438 -8.078125 25.734375 -11.015625 C 27.566406 -13.960938 29.15625 -16.800781 30.5 -19.53125 C 31.84375 -22.269531 33.476562 -25.253906 35.40625 -28.484375 C 37.332031 -31.722656 39.253906 -34.40625 41.171875 -36.53125 C 37.054688 -39 32.679688 -40.234375 28.046875 -40.234375 C 26.140625 -40.234375 24.191406 -40.03125 22.203125 -39.625 C 16.515625 -38.414062 12.179688 -35.9375 9.203125 -32.1875 C 7.367188 -29.90625 6.453125 -27.738281 6.453125 -25.6875 C 6.453125 -22.894531 7.789062 -21.070312 10.46875 -20.21875 C 11.425781 -19.96875 12.253906 -19.84375 12.953125 -19.84375 C 13.648438 -19.84375 14.429688 -19.953125 15.296875 -20.171875 C 16.160156 -20.390625 17.015625 -20.90625 17.859375 -21.71875 C 19.472656 -23.332031 20.335938 -24.835938 20.453125 -26.234375 C 20.484375 -26.566406 20.691406 -26.6875 21.078125 -26.59375 C 21.460938 -26.5 21.617188 -26.210938 21.546875 -25.734375 C 21.179688 -23.054688 19.765625 -21.019531 17.296875 -19.625 C 15.796875 -18.8125 14.289062 -18.40625 12.78125 -18.40625 L 9.921875 -18.90625 C 7.128906 -19.851562 5.289062 -21.632812 4.40625 -24.25 C 4.039062 -25.238281 3.859375 -26.226562 3.859375 -27.21875 C 3.859375 -29.238281 4.609375 -31.242188 6.109375 -33.234375 C 9.347656 -37.566406 15.082031 -40.335938 23.3125 -41.546875 C 24.925781 -41.773438 26.523438 -41.890625 28.109375 -41.890625 C 33.210938 -41.890625 38.078125 -40.675781 42.703125 -38.25 C 44.140625 -39.894531 45.460938 -41.148438 46.671875 -42.015625 C 47.890625 -42.878906 48.863281 -43.3125 49.59375 -43.3125 C 50 -43.3125 50.238281 -43.226562 50.3125 -43.0625 C 50.382812 -42.894531 50.375 -42.765625 50.28125 -42.671875 C 50.195312 -42.585938 50.078125 -42.546875 49.921875 -42.546875 C 49.296875 -42.546875 48.488281 -41.882812 47.5 -40.5625 C 46.507812 -39.238281 45.703125 -38.007812 45.078125 -36.875 C 49.003906 -34.257812 52 -30.914062 54.0625 -26.84375 C 55.71875 -23.570312 56.546875 -20.003906 56.546875 -16.140625 C 56.546875 -11.367188 55.40625 -7.566406 53.125 -4.734375 C 51.25 -2.421875 48.972656 -0.785156 46.296875 0.171875 C 43.097656 1.304688 39.9375 1.875 36.8125 1.875 C 30.488281 1.875 25.109375 0.585938 20.671875 -1.984375 Z M 21.984375 -2.96875 C 25.691406 -0.769531 30.046875 0.328125 35.046875 0.328125 C 40.847656 0.328125 45.476562 -1.320312 48.9375 -4.625 C 51.6875 -7.3125 53.0625 -11.023438 53.0625 -15.765625 C 53.0625 -19.140625 52.40625 -22.316406 51.09375 -25.296875 C 49.4375 -29.078125 46.988281 -32.238281 43.75 -34.78125 C 42.6875 -33.125 40.640625 -29.785156 37.609375 -24.765625 C 34.578125 -19.753906 32.015625 -15.6875 29.921875 -12.5625 C 27.828125 -9.4375 26.171875 -7.222656 24.953125 -5.921875 C 23.742188 -4.617188 22.753906 -3.632812 21.984375 -2.96875 Z M 18.796875 -2.859375 C 14.492188 -4.921875 11.769531 -6.15625 10.625 -6.5625 C 9.488281 -6.96875 8.378906 -7.171875 7.296875 -7.171875 C 6.210938 -7.171875 5.347656 -6.765625 4.703125 -5.953125 C 4.066406 -5.140625 3.75 -4.410156 3.75 -3.765625 C 3.75 -3.128906 3.894531 -2.515625 4.1875 -1.921875 C 4.957031 -0.347656 6.535156 0.4375 8.921875 0.4375 C 12.453125 0.4375 15.742188 -0.660156 18.796875 -2.859375 Z M 18.796875 -2.859375 "/></g></g></g><g fill="#000000" fill-opacity="1"><g transform="translate(69.538995, 57.259677)"><g><path d="M 13.171875 -19.28125 C 15.847656 -19.28125 17.1875 -17.59375 17.1875 -14.21875 C 17.1875 -12.675781 16.785156 -11.023438 15.984375 -9.265625 C 14.953125 -6.867188 13.410156 -4.695312 11.359375 -2.75 C 11.828125 -1.832031 12.6875 -1.375 13.9375 -1.375 C 14.9375 -1.375 15.875 -1.867188 16.75 -2.859375 C 17.851562 -4.003906 18.644531 -5.007812 19.125 -5.875 C 19.601562 -6.738281 19.953125 -7.367188 20.171875 -7.765625 C 20.390625 -8.171875 20.671875 -8.75 21.015625 -9.5 C 21.367188 -10.257812 21.582031 -10.71875 21.65625 -10.875 C 21.726562 -11.039062 21.859375 -11.125 22.046875 -11.125 C 22.410156 -11.164062 22.59375 -11.039062 22.59375 -10.75 C 22.59375 -10.632812 22.554688 -10.503906 22.484375 -10.359375 L 22.15625 -9.59375 C 21.9375 -9.070312 21.769531 -8.703125 21.65625 -8.484375 C 21.550781 -8.265625 21.359375 -7.867188 21.078125 -7.296875 C 20.804688 -6.734375 20.566406 -6.285156 20.359375 -5.953125 C 20.160156 -5.617188 19.882812 -5.175781 19.53125 -4.625 C 19.1875 -4.070312 18.875 -3.628906 18.59375 -3.296875 C 18.320312 -2.972656 17.984375 -2.609375 17.578125 -2.203125 C 17.171875 -1.796875 16.785156 -1.484375 16.421875 -1.265625 C 15.503906 -0.710938 14.640625 -0.4375 13.828125 -0.4375 C 12.328125 -0.4375 11.15625 -0.914062 10.3125 -1.875 C 8.613281 -0.625 7.050781 0 5.625 0 C 2.9375 0 1.59375 -1.6875 1.59375 -5.0625 C 1.59375 -6.613281 2 -8.269531 2.8125 -10.03125 C 3.914062 -12.601562 5.46875 -14.785156 7.46875 -16.578125 C 9.46875 -18.378906 11.367188 -19.28125 13.171875 -19.28125 Z M 13.78125 -17.578125 C 12.789062 -17.578125 11.613281 -16.914062 10.25 -15.59375 C 8.894531 -14.269531 7.679688 -12.46875 6.609375 -10.1875 C 5.328125 -7.550781 4.6875 -5.382812 4.6875 -3.6875 C 4.6875 -2 5.328125 -1.15625 6.609375 -1.15625 C 7.523438 -1.15625 8.554688 -1.648438 9.703125 -2.640625 C 9.109375 -3.484375 8.8125 -4.382812 8.8125 -5.34375 C 8.882812 -6.925781 9.53125 -7.71875 10.75 -7.71875 C 11.226562 -7.71875 11.625 -7.550781 11.9375 -7.21875 C 12.25 -6.882812 12.40625 -6.578125 12.40625 -6.296875 C 12.40625 -6.023438 12.367188 -5.742188 12.296875 -5.453125 C 12.910156 -6.367188 13.625 -7.675781 14.4375 -9.375 C 15.351562 -11.238281 15.8125 -13.070312 15.8125 -14.875 C 15.8125 -16.675781 15.132812 -17.578125 13.78125 -17.578125 Z M 13.78125 -17.578125 "/></g></g></g><g fill="#000000" fill-opacity="1"><g transform="translate(87.998638, 57.259677)"><g><path d="M 13.28125 -12.671875 C 14.5625 -14.210938 15.203125 -15.515625 15.203125 -16.578125 C 15.203125 -17.648438 14.765625 -18.1875 13.890625 -18.1875 C 12.160156 -18.1875 10.191406 -16.609375 7.984375 -13.453125 C 7.285156 -12.453125 6.601562 -11.144531 5.9375 -9.53125 C 5.28125 -7.914062 4.953125 -6.457031 4.953125 -5.15625 C 4.953125 -3.851562 5.21875 -2.796875 5.75 -1.984375 C 6.289062 -1.171875 7.117188 -0.765625 8.234375 -0.765625 C 9.359375 -0.765625 10.394531 -1.03125 11.34375 -1.5625 C 12.300781 -2.101562 13.210938 -2.953125 14.078125 -4.109375 C 14.941406 -5.265625 15.59375 -6.226562 16.03125 -7 C 16.476562 -7.769531 17.085938 -8.925781 17.859375 -10.46875 C 18.109375 -10.988281 18.328125 -11.203125 18.515625 -11.109375 C 18.703125 -11.015625 18.796875 -10.882812 18.796875 -10.71875 C 18.796875 -10.550781 18.546875 -9.941406 18.046875 -8.890625 C 17.546875 -7.847656 17.046875 -6.867188 16.546875 -5.953125 C 16.054688 -5.035156 15.351562 -4.003906 14.4375 -2.859375 C 12.78125 -0.804688 10.519531 0.21875 7.65625 0.21875 C 5.601562 0.21875 4.125 -0.285156 3.21875 -1.296875 C 2.320312 -2.304688 1.875 -3.472656 1.875 -4.796875 C 1.875 -6.410156 2.269531 -8.171875 3.0625 -10.078125 C 3.851562 -11.992188 4.757812 -13.648438 5.78125 -15.046875 C 7.914062 -17.953125 10.378906 -19.40625 13.171875 -19.40625 C 14.523438 -19.40625 15.503906 -19.082031 16.109375 -18.4375 C 16.722656 -17.789062 17.03125 -17.046875 17.03125 -16.203125 C 17.03125 -14.953125 16.515625 -13.882812 15.484375 -13 C 14.972656 -12.53125 14.539062 -12.296875 14.1875 -12.296875 C 13.84375 -12.296875 13.539062 -12.421875 13.28125 -12.671875 Z M 13.28125 -12.671875 "/></g></g></g><g fill="#000000" fill-opacity="1"><g transform="translate(102.325527, 57.259677)"><g><path d="M 1.765625 -4.40625 C 1.765625 -7.457031 3.234375 -12.566406 6.171875 -19.734375 L 3.3125 -19.734375 C 3.125 -19.734375 3 -19.832031 2.9375 -20.03125 C 2.882812 -20.226562 2.90625 -20.425781 3 -20.625 C 3.09375 -20.832031 3.234375 -20.9375 3.421875 -20.9375 L 6.71875 -20.9375 C 8.039062 -23.84375 9.269531 -26.269531 10.40625 -28.21875 C 11.550781 -30.164062 12.597656 -31.476562 13.546875 -32.15625 C 14.503906 -32.832031 15.191406 -33.171875 15.609375 -33.171875 C 16.035156 -33.171875 16.34375 -33.132812 16.53125 -33.0625 C 17.375 -32.65625 17.796875 -31.816406 17.796875 -30.546875 C 17.796875 -29.285156 17.375 -27.753906 16.53125 -25.953125 C 15.6875 -24.148438 14.859375 -22.476562 14.046875 -20.9375 L 16.703125 -20.9375 C 16.878906 -20.9375 16.992188 -20.832031 17.046875 -20.625 C 17.109375 -20.425781 17.09375 -20.226562 17 -20.03125 C 16.90625 -19.832031 16.769531 -19.734375 16.59375 -19.734375 L 13.390625 -19.734375 C 11.367188 -16.316406 8.925781 -13.285156 6.0625 -10.640625 L 4.796875 -5.015625 C 4.679688 -4.535156 4.625 -4.066406 4.625 -3.609375 C 4.625 -3.148438 4.753906 -2.679688 5.015625 -2.203125 C 5.273438 -1.722656 5.679688 -1.484375 6.234375 -1.484375 C 6.859375 -1.484375 7.554688 -1.707031 8.328125 -2.15625 C 10.085938 -3.476562 12.03125 -6.25 14.15625 -10.46875 C 14.3125 -10.800781 14.488281 -11.003906 14.6875 -11.078125 C 14.882812 -11.148438 15 -11.101562 15.03125 -10.9375 C 15.070312 -10.769531 15.019531 -10.503906 14.875 -10.140625 C 13.664062 -7.609375 12.710938 -5.804688 12.015625 -4.734375 C 10.023438 -1.535156 7.910156 0.0625 5.671875 0.0625 C 4.535156 0.0625 3.597656 -0.359375 2.859375 -1.203125 C 2.128906 -2.054688 1.765625 -3.125 1.765625 -4.40625 Z M 12.84375 -20.9375 C 15.269531 -25.269531 16.484375 -28.285156 16.484375 -29.984375 C 16.484375 -30.710938 16.351562 -31.078125 16.09375 -31.078125 C 15.6875 -31.078125 15.066406 -30.488281 14.234375 -29.3125 C 13.410156 -28.132812 12.023438 -25.34375 10.078125 -20.9375 Z M 12.125 -19.734375 L 9.53125 -19.734375 C 9.09375 -18.703125 8.101562 -16.257812 6.5625 -12.40625 C 8.539062 -14.457031 10.394531 -16.898438 12.125 -19.734375 Z M 12.125 -19.734375 "/></g></g></g><g fill="#000000" fill-opacity="1"><g transform="translate(113.346208, 57.259677)"><g><path d="M 13.171875 -19.28125 C 15.847656 -19.28125 17.1875 -17.59375 17.1875 -14.21875 C 17.1875 -12.675781 16.785156 -11.023438 15.984375 -9.265625 C 14.953125 -6.867188 13.410156 -4.695312 11.359375 -2.75 C 11.828125 -1.832031 12.6875 -1.375 13.9375 -1.375 C 14.9375 -1.375 15.875 -1.867188 16.75 -2.859375 C 17.851562 -4.003906 18.644531 -5.007812 19.125 -5.875 C 19.601562 -6.738281 19.953125 -7.367188 20.171875 -7.765625 C 20.390625 -8.171875 20.671875 -8.75 21.015625 -9.5 C 21.367188 -10.257812 21.582031 -10.71875 21.65625 -10.875 C 21.726562 -11.039062 21.859375 -11.125 22.046875 -11.125 C 22.410156 -11.164062 22.59375 -11.039062 22.59375 -10.75 C 22.59375 -10.632812 22.554688 -10.503906 22.484375 -10.359375 L 22.15625 -9.59375 C 21.9375 -9.070312 21.769531 -8.703125 21.65625 -8.484375 C 21.550781 -8.265625 21.359375 -7.867188 21.078125 -7.296875 C 20.804688 -6.734375 20.566406 -6.285156 20.359375 -5.953125 C 20.160156 -5.617188 19.882812 -5.175781 19.53125 -4.625 C 19.1875 -4.070312 18.875 -3.628906 18.59375 -3.296875 C 18.320312 -2.972656 17.984375 -2.609375 17.578125 -2.203125 C 17.171875 -1.796875 16.785156 -1.484375 16.421875 -1.265625 C 15.503906 -0.710938 14.640625 -0.4375 13.828125 -0.4375 C 12.328125 -0.4375 11.15625 -0.914062 10.3125 -1.875 C 8.613281 -0.625 7.050781 0 5.625 0 C 2.9375 0 1.59375 -1.6875 1.59375 -5.0625 C 1.59375 -6.613281 2 -8.269531 2.8125 -10.03125 C 3.914062 -12.601562 5.46875 -14.785156 7.46875 -16.578125 C 9.46875 -18.378906 11.367188 -19.28125 13.171875 -19.28125 Z M 13.78125 -17.578125 C 12.789062 -17.578125 11.613281 -16.914062 10.25 -15.59375 C 8.894531 -14.269531 7.679688 -12.46875 6.609375 -10.1875 C 5.328125 -7.550781 4.6875 -5.382812 4.6875 -3.6875 C 4.6875 -2 5.328125 -1.15625 6.609375 -1.15625 C 7.523438 -1.15625 8.554688 -1.648438 9.703125 -2.640625 C 9.109375 -3.484375 8.8125 -4.382812 8.8125 -5.34375 C 8.882812 -6.925781 9.53125 -7.71875 10.75 -7.71875 C 11.226562 -7.71875 11.625 -7.550781 11.9375 -7.21875 C 12.25 -6.882812 12.40625 -6.578125 12.40625 -6.296875 C 12.40625 -6.023438 12.367188 -5.742188 12.296875 -5.453125 C 12.910156 -6.367188 13.625 -7.675781 14.4375 -9.375 C 15.351562 -11.238281 15.8125 -13.070312 15.8125 -14.875 C 15.8125 -16.675781 15.132812 -17.578125 13.78125 -17.578125 Z M 13.78125 -17.578125 "/></g></g></g><g fill="#000000" fill-opacity="1"><g transform="translate(131.805857, 57.259677)"><g><path d="M 10.59375 -22.09375 C 10.59375 -20.445312 9.546875 -18.890625 7.453125 -17.421875 C 8.179688 -17.378906 9.160156 -17.359375 10.390625 -17.359375 C 11.617188 -17.359375 13.171875 -17.453125 15.046875 -17.640625 C 15.117188 -17.523438 15.15625 -17.226562 15.15625 -16.75 C 15.15625 -16.269531 14.9375 -15.5625 14.5 -14.625 C 14.0625 -13.6875 13.664062 -12.878906 13.3125 -12.203125 C 12.96875 -11.523438 12.640625 -10.882812 12.328125 -10.28125 C 12.015625 -9.675781 11.664062 -8.929688 11.28125 -8.046875 C 10.894531 -7.160156 10.570312 -6.351562 10.3125 -5.625 C 9.394531 -2.832031 9.539062 -1.4375 10.75 -1.4375 C 12.289062 -1.4375 14.570312 -4.503906 17.59375 -10.640625 C 17.84375 -11.117188 18.050781 -11.300781 18.21875 -11.1875 C 18.382812 -11.070312 18.46875 -10.929688 18.46875 -10.765625 C 18.46875 -10.609375 18.226562 -10.039062 17.75 -9.0625 C 17.269531 -8.09375 16.753906 -7.09375 16.203125 -6.0625 C 15.660156 -5.03125 14.800781 -3.835938 13.625 -2.484375 C 12.226562 -0.785156 10.882812 0.0625 9.59375 0.0625 C 8.164062 0.0625 7.175781 -0.800781 6.625 -2.53125 C 6.507812 -2.863281 6.453125 -3.359375 6.453125 -4.015625 C 6.453125 -4.679688 6.660156 -5.566406 7.078125 -6.671875 C 7.503906 -7.773438 8.175781 -9.113281 9.09375 -10.6875 C 10.019531 -12.269531 10.535156 -13.195312 10.640625 -13.46875 C 10.753906 -13.75 10.8125 -14.015625 10.8125 -14.265625 C 10.8125 -15.410156 9.34375 -16.019531 6.40625 -16.09375 L 5.734375 -14.328125 C 3.421875 -8.265625 1.203125 -4.207031 -0.921875 -2.15625 C -1.296875 -1.820312 -1.484375 -1.929688 -1.484375 -2.484375 C -1.484375 -2.585938 -1.445312 -2.710938 -1.375 -2.859375 C 0.6875 -5.578125 2.46875 -8.789062 3.96875 -12.5 C 5.476562 -16.21875 6.523438 -19.75 7.109375 -23.09375 C 7.335938 -24.226562 7.851562 -24.796875 8.65625 -24.796875 C 9.46875 -24.796875 10.054688 -24.28125 10.421875 -23.25 C 10.535156 -22.925781 10.59375 -22.539062 10.59375 -22.09375 Z M 10.59375 -22.09375 "/></g></g></g><g fill="#000000" fill-opacity="1"><g transform="translate(146.132747, 57.259677)"><g><path d="M 19.890625 -14.9375 C 19.234375 -14.269531 18.296875 -12.769531 17.078125 -10.4375 C 15.867188 -8.101562 15.144531 -6.359375 14.90625 -5.203125 C 14.664062 -4.046875 14.546875 -3.109375 14.546875 -2.390625 C 14.546875 -1.679688 14.820312 -1.328125 15.375 -1.328125 C 16.070312 -1.328125 16.9375 -1.96875 17.96875 -3.25 C 19.46875 -5.125 20.953125 -7.566406 22.421875 -10.578125 C 22.578125 -10.910156 22.742188 -11.09375 22.921875 -11.125 C 23.210938 -11.238281 23.359375 -11.128906 23.359375 -10.796875 C 23.359375 -10.617188 23.304688 -10.398438 23.203125 -10.140625 C 19.816406 -3.304688 16.96875 0.109375 14.65625 0.109375 C 13.59375 0.109375 12.726562 -0.40625 12.0625 -1.4375 C 11.738281 -1.988281 11.578125 -2.722656 11.578125 -3.640625 C 11.578125 -4.554688 11.757812 -5.675781 12.125 -7 C 9.1875 -2.257812 6.648438 0.109375 4.515625 0.109375 C 3.929688 0.109375 3.398438 -0.0703125 2.921875 -0.4375 C 1.816406 -1.207031 1.265625 -2.53125 1.265625 -4.40625 C 1.265625 -8.007812 2.828125 -11.664062 5.953125 -15.375 C 7.710938 -17.4375 9.878906 -18.78125 12.453125 -19.40625 C 13.148438 -19.582031 13.8125 -19.671875 14.4375 -19.671875 C 16.125 -19.671875 17.554688 -19.082031 18.734375 -17.90625 C 19.097656 -17.5 19.207031 -17.113281 19.0625 -16.75 C 18.914062 -16.382812 18.601562 -16.238281 18.125 -16.3125 C 17.726562 -17.632812 16.847656 -18.296875 15.484375 -18.296875 C 13.898438 -18.296875 11.953125 -17.046875 9.640625 -14.546875 C 8.316406 -13.078125 7.085938 -11.351562 5.953125 -9.375 C 4.515625 -6.976562 3.796875 -5.0625 3.796875 -3.625 C 3.796875 -2.195312 4.257812 -1.484375 5.1875 -1.484375 C 7.382812 -1.484375 10.265625 -4.863281 13.828125 -11.625 C 14.523438 -12.988281 15.113281 -13.914062 15.59375 -14.40625 C 16.070312 -14.90625 16.679688 -15.15625 17.421875 -15.15625 C 17.566406 -15.15625 17.941406 -15.097656 18.546875 -14.984375 C 19.148438 -14.878906 19.597656 -14.863281 19.890625 -14.9375 Z M 19.890625 -14.9375 "/></g></g></g><g fill="#ff57c1" fill-opacity="1"><g transform="translate(169.809725, 57.259677)"><g><path d="M 20.890625 5.5625 C 18.023438 5.5625 15.273438 5 12.640625 3.875 C 10.015625 2.757812 7.921875 1.117188 6.359375 -1.046875 C 4.796875 -3.210938 3.851562 -5.582031 3.53125 -8.15625 C 3.382812 -9.257812 3.3125 -10.472656 3.3125 -11.796875 C 3.3125 -13.117188 3.472656 -14.863281 3.796875 -17.03125 C 4.128906 -19.195312 4.851562 -21.546875 5.96875 -24.078125 C 7.09375 -26.617188 8.425781 -28.863281 9.96875 -30.8125 C 9.34375 -33.269531 9.03125 -35.535156 9.03125 -37.609375 C 9.03125 -39.679688 9.269531 -41.617188 9.75 -43.421875 C 9.820312 -43.710938 9.941406 -43.921875 10.109375 -44.046875 C 10.273438 -44.179688 10.394531 -44.25 10.46875 -44.25 C 10.832031 -44.25 10.941406 -43.796875 10.796875 -42.890625 C 10.648438 -41.992188 10.578125 -40.707031 10.578125 -39.03125 C 10.578125 -37.363281 10.816406 -35.25 11.296875 -32.6875 C 14.234375 -36.46875 17.6875 -39.222656 21.65625 -40.953125 C 24.707031 -42.273438 27.90625 -42.9375 31.25 -42.9375 C 32.207031 -42.9375 33.195312 -42.878906 34.21875 -42.765625 C 39.875 -42.140625 43.695312 -39.972656 45.6875 -36.265625 C 46.488281 -34.722656 46.890625 -33.125 46.890625 -31.46875 C 46.890625 -29.8125 46.503906 -28.101562 45.734375 -26.34375 C 44.117188 -22.8125 41.347656 -20.203125 37.421875 -18.515625 C 34.878906 -17.410156 32.101562 -16.859375 29.09375 -16.859375 C 27.8125 -16.859375 26.507812 -16.953125 25.1875 -17.140625 C 18.613281 -18.097656 14.054688 -21.21875 11.515625 -26.5 C 10.628906 -25.257812 9.71875 -23.164062 8.78125 -20.21875 C 7.851562 -17.28125 7.3125 -15.019531 7.15625 -13.4375 C 7.007812 -11.863281 6.9375 -10.539062 6.9375 -9.46875 C 6.9375 -8.40625 7.015625 -7.304688 7.171875 -6.171875 C 7.421875 -4.148438 8.1875 -2.320312 9.46875 -0.6875 C 10.757812 0.945312 12.476562 2.082031 14.625 2.71875 C 16.78125 3.363281 18.644531 3.6875 20.21875 3.6875 C 25.332031 3.6875 29.6875 2.625 33.28125 0.5 C 35.445312 -0.789062 37.144531 -2.253906 38.375 -3.890625 C 39.613281 -5.523438 40.929688 -7.773438 42.328125 -10.640625 C 42.546875 -11.117188 42.773438 -11.28125 43.015625 -11.125 C 43.253906 -10.976562 43.242188 -10.628906 42.984375 -10.078125 C 41.585938 -7.253906 40.289062 -5.015625 39.09375 -3.359375 C 37.90625 -1.703125 36.28125 -0.160156 34.21875 1.265625 C 30.101562 4.128906 25.660156 5.5625 20.890625 5.5625 Z M 12.625 -28.265625 C 15.226562 -21.617188 20.664062 -18.296875 28.9375 -18.296875 C 33.601562 -18.296875 37.335938 -19.597656 40.140625 -22.203125 C 42.953125 -24.816406 44.359375 -27.773438 44.359375 -31.078125 C 44.359375 -34.390625 42.925781 -36.960938 40.0625 -38.796875 C 37.9375 -40.160156 35.3125 -40.84375 32.1875 -40.84375 C 29.0625 -40.84375 25.921875 -39.941406 22.765625 -38.140625 C 18.796875 -35.816406 15.414062 -32.523438 12.625 -28.265625 Z M 12.625 -28.265625 "/></g></g></g><g fill="#ff57c1" fill-opacity="1"><g transform="translate(208.933144, 57.259677)"><g><path d="M 13.171875 -19.28125 C 15.847656 -19.28125 17.1875 -17.59375 17.1875 -14.21875 C 17.1875 -12.675781 16.785156 -11.023438 15.984375 -9.265625 C 14.953125 -6.867188 13.410156 -4.695312 11.359375 -2.75 C 11.828125 -1.832031 12.6875 -1.375 13.9375 -1.375 C 14.9375 -1.375 15.875 -1.867188 16.75 -2.859375 C 17.851562 -4.003906 18.644531 -5.007812 19.125 -5.875 C 19.601562 -6.738281 19.953125 -7.367188 20.171875 -7.765625 C 20.390625 -8.171875 20.671875 -8.75 21.015625 -9.5 C 21.367188 -10.257812 21.582031 -10.71875 21.65625 -10.875 C 21.726562 -11.039062 21.859375 -11.125 22.046875 -11.125 C 22.410156 -11.164062 22.59375 -11.039062 22.59375 -10.75 C 22.59375 -10.632812 22.554688 -10.503906 22.484375 -10.359375 L 22.15625 -9.59375 C 21.9375 -9.070312 21.769531 -8.703125 21.65625 -8.484375 C 21.550781 -8.265625 21.359375 -7.867188 21.078125 -7.296875 C 20.804688 -6.734375 20.566406 -6.285156 20.359375 -5.953125 C 20.160156 -5.617188 19.882812 -5.175781 19.53125 -4.625 C 19.1875 -4.070312 18.875 -3.628906 18.59375 -3.296875 C 18.320312 -2.972656 17.984375 -2.609375 17.578125 -2.203125 C 17.171875 -1.796875 16.785156 -1.484375 16.421875 -1.265625 C 15.503906 -0.710938 14.640625 -0.4375 13.828125 -0.4375 C 12.328125 -0.4375 11.15625 -0.914062 10.3125 -1.875 C 8.613281 -0.625 7.050781 0 5.625 0 C 2.9375 0 1.59375 -1.6875 1.59375 -5.0625 C 1.59375 -6.613281 2 -8.269531 2.8125 -10.03125 C 3.914062 -12.601562 5.46875 -14.785156 7.46875 -16.578125 C 9.46875 -18.378906 11.367188 -19.28125 13.171875 -19.28125 Z M 13.78125 -17.578125 C 12.789062 -17.578125 11.613281 -16.914062 10.25 -15.59375 C 8.894531 -14.269531 7.679688 -12.46875 6.609375 -10.1875 C 5.328125 -7.550781 4.6875 -5.382812 4.6875 -3.6875 C 4.6875 -2 5.328125 -1.15625 6.609375 -1.15625 C 7.523438 -1.15625 8.554688 -1.648438 9.703125 -2.640625 C 9.109375 -3.484375 8.8125 -4.382812 8.8125 -5.34375 C 8.882812 -6.925781 9.53125 -7.71875 10.75 -7.71875 C 11.226562 -7.71875 11.625 -7.550781 11.9375 -7.21875 C 12.25 -6.882812 12.40625 -6.578125 12.40625 -6.296875 C 12.40625 -6.023438 12.367188 -5.742188 12.296875 -5.453125 C 12.910156 -6.367188 13.625 -7.675781 14.4375 -9.375 C 15.351562 -11.238281 15.8125 -13.070312 15.8125 -14.875 C 15.8125 -16.675781 15.132812 -17.578125 13.78125 -17.578125 Z M 13.78125 -17.578125 "/></g></g></g><g fill="#ff57c1" fill-opacity="1"><g transform="translate(227.392786, 57.259677)"><g><path d="M 10.59375 -22.09375 C 10.59375 -20.445312 9.546875 -18.890625 7.453125 -17.421875 C 8.179688 -17.378906 9.160156 -17.359375 10.390625 -17.359375 C 11.617188 -17.359375 13.171875 -17.453125 15.046875 -17.640625 C 15.117188 -17.523438 15.15625 -17.226562 15.15625 -16.75 C 15.15625 -16.269531 14.9375 -15.5625 14.5 -14.625 C 14.0625 -13.6875 13.664062 -12.878906 13.3125 -12.203125 C 12.96875 -11.523438 12.640625 -10.882812 12.328125 -10.28125 C 12.015625 -9.675781 11.664062 -8.929688 11.28125 -8.046875 C 10.894531 -7.160156 10.570312 -6.351562 10.3125 -5.625 C 9.394531 -2.832031 9.539062 -1.4375 10.75 -1.4375 C 12.289062 -1.4375 14.570312 -4.503906 17.59375 -10.640625 C 17.84375 -11.117188 18.050781 -11.300781 18.21875 -11.1875 C 18.382812 -11.070312 18.46875 -10.929688 18.46875 -10.765625 C 18.46875 -10.609375 18.226562 -10.039062 17.75 -9.0625 C 17.269531 -8.09375 16.753906 -7.09375 16.203125 -6.0625 C 15.660156 -5.03125 14.800781 -3.835938 13.625 -2.484375 C 12.226562 -0.785156 10.882812 0.0625 9.59375 0.0625 C 8.164062 0.0625 7.175781 -0.800781 6.625 -2.53125 C 6.507812 -2.863281 6.453125 -3.359375 6.453125 -4.015625 C 6.453125 -4.679688 6.660156 -5.566406 7.078125 -6.671875 C 7.503906 -7.773438 8.175781 -9.113281 9.09375 -10.6875 C 10.019531 -12.269531 10.535156 -13.195312 10.640625 -13.46875 C 10.753906 -13.75 10.8125 -14.015625 10.8125 -14.265625 C 10.8125 -15.410156 9.34375 -16.019531 6.40625 -16.09375 L 5.734375 -14.328125 C 3.421875 -8.265625 1.203125 -4.207031 -0.921875 -2.15625 C -1.296875 -1.820312 -1.484375 -1.929688 -1.484375 -2.484375 C -1.484375 -2.585938 -1.445312 -2.710938 -1.375 -2.859375 C 0.6875 -5.578125 2.46875 -8.789062 3.96875 -12.5 C 5.476562 -16.21875 6.523438 -19.75 7.109375 -23.09375 C 7.335938 -24.226562 7.851562 -24.796875 8.65625 -24.796875 C 9.46875 -24.796875 10.054688 -24.28125 10.421875 -23.25 C 10.535156 -22.925781 10.59375 -22.539062 10.59375 -22.09375 Z M 10.59375 -22.09375 "/></g></g></g><g fill="#ff57c1" fill-opacity="1"><g transform="translate(241.719676, 57.259677)"><g><path d="M 19.890625 -14.9375 C 19.234375 -14.269531 18.296875 -12.769531 17.078125 -10.4375 C 15.867188 -8.101562 15.144531 -6.359375 14.90625 -5.203125 C 14.664062 -4.046875 14.546875 -3.109375 14.546875 -2.390625 C 14.546875 -1.679688 14.820312 -1.328125 15.375 -1.328125 C 16.070312 -1.328125 16.9375 -1.96875 17.96875 -3.25 C 19.46875 -5.125 20.953125 -7.566406 22.421875 -10.578125 C 22.578125 -10.910156 22.742188 -11.09375 22.921875 -11.125 C 23.210938 -11.238281 23.359375 -11.128906 23.359375 -10.796875 C 23.359375 -10.617188 23.304688 -10.398438 23.203125 -10.140625 C 19.816406 -3.304688 16.96875 0.109375 14.65625 0.109375 C 13.59375 0.109375 12.726562 -0.40625 12.0625 -1.4375 C 11.738281 -1.988281 11.578125 -2.722656 11.578125 -3.640625 C 11.578125 -4.554688 11.757812 -5.675781 12.125 -7 C 9.1875 -2.257812 6.648438 0.109375 4.515625 0.109375 C 3.929688 0.109375 3.398438 -0.0703125 2.921875 -0.4375 C 1.816406 -1.207031 1.265625 -2.53125 1.265625 -4.40625 C 1.265625 -8.007812 2.828125 -11.664062 5.953125 -15.375 C 7.710938 -17.4375 9.878906 -18.78125 12.453125 -19.40625 C 13.148438 -19.582031 13.8125 -19.671875 14.4375 -19.671875 C 16.125 -19.671875 17.554688 -19.082031 18.734375 -17.90625 C 19.097656 -17.5 19.207031 -17.113281 19.0625 -16.75 C 18.914062 -16.382812 18.601562 -16.238281 18.125 -16.3125 C 17.726562 -17.632812 16.847656 -18.296875 15.484375 -18.296875 C 13.898438 -18.296875 11.953125 -17.046875 9.640625 -14.546875 C 8.316406 -13.078125 7.085938 -11.351562 5.953125 -9.375 C 4.515625 -6.976562 3.796875 -5.0625 3.796875 -3.625 C 3.796875 -2.195312 4.257812 -1.484375 5.1875 -1.484375 C 7.382812 -1.484375 10.265625 -4.863281 13.828125 -11.625 C 14.523438 -12.988281 15.113281 -13.914062 15.59375 -14.40625 C 16.070312 -14.90625 16.679688 -15.15625 17.421875 -15.15625 C 17.566406 -15.15625 17.941406 -15.097656 18.546875 -14.984375 C 19.148438 -14.878906 19.597656 -14.863281 19.890625 -14.9375 Z M 19.890625 -14.9375 "/></g></g></g><g fill="#ff57c1" fill-opacity="1"><g transform="translate(261.005869, 57.259677)"><g><path d="M -5.78125 17.078125 C -7.363281 17.078125 -8.566406 16.597656 -9.390625 15.640625 C -10.210938 14.691406 -10.625 13.722656 -10.625 12.734375 C -10.625 11.742188 -10.320312 10.785156 -9.71875 9.859375 C -9.113281 8.941406 -8.359375 8.144531 -7.453125 7.46875 C -6.554688 6.789062 -5.6875 6.21875 -4.84375 5.75 C -4 5.289062 -2.8125 4.773438 -1.28125 4.203125 C 0.238281 3.640625 1.421875 3.21875 2.265625 2.9375 C 3.109375 2.664062 4.429688 2.253906 6.234375 1.703125 C 8.035156 1.148438 9.226562 0.785156 9.8125 0.609375 C 10.476562 -1.523438 10.8125 -3.144531 10.8125 -4.25 C 10.8125 -6.15625 10.273438 -7.109375 9.203125 -7.109375 C 9.054688 -7.109375 8.910156 -7.085938 8.765625 -7.046875 C 7.003906 -6.128906 5.957031 -5.800781 5.625 -6.0625 C 5.445312 -6.207031 5.375 -6.390625 5.40625 -6.609375 C 5.445312 -6.828125 5.613281 -6.972656 5.90625 -7.046875 C 8.40625 -7.828125 10.460938 -9.445312 12.078125 -11.90625 C 12.554688 -12.632812 12.796875 -13.3125 12.796875 -13.9375 C 12.796875 -14.5625 12.535156 -15.164062 12.015625 -15.75 C 11.503906 -16.34375 10.957031 -16.640625 10.375 -16.640625 C 8.53125 -16.640625 7.003906 -15.59375 5.796875 -13.5 C 4.765625 -11.769531 3.789062 -9.929688 2.875 -7.984375 C 2.65625 -7.472656 2.414062 -7.300781 2.15625 -7.46875 C 1.894531 -7.632812 1.914062 -8.007812 2.21875 -8.59375 C 4.15625 -12.414062 5.238281 -14.507812 5.46875 -14.875 C 7.113281 -17.894531 9.367188 -19.40625 12.234375 -19.40625 C 13.523438 -19.40625 14.5 -18.925781 15.15625 -17.96875 C 15.53125 -17.445312 15.71875 -16.679688 15.71875 -15.671875 C 15.71875 -14.660156 15.226562 -13.429688 14.25 -11.984375 C 13.28125 -10.535156 11.96875 -9.316406 10.3125 -8.328125 C 10.351562 -8.328125 10.390625 -8.328125 10.421875 -8.328125 C 12.804688 -8.328125 14.035156 -7.128906 14.109375 -4.734375 C 14.109375 -3.335938 13.910156 -2 13.515625 -0.71875 C 16.304688 -1.269531 19.132812 -4.554688 22 -10.578125 C 22.144531 -10.910156 22.328125 -11.09375 22.546875 -11.125 C 22.804688 -11.238281 22.9375 -11.128906 22.9375 -10.796875 C 22.9375 -10.390625 22.457031 -9.320312 21.5 -7.59375 C 20.539062 -5.875 19.640625 -4.445312 18.796875 -3.3125 C 17.253906 -1.101562 15.378906 0.21875 13.171875 0.65625 C 11.742188 4.59375 9.625 7.960938 6.8125 10.765625 C 4 13.578125 0.644531 15.554688 -3.25 16.703125 C -4.164062 16.953125 -5.007812 17.078125 -5.78125 17.078125 Z M -8.375 11.625 C -8.59375 12.320312 -8.703125 13.035156 -8.703125 13.765625 C -8.703125 14.503906 -8.425781 15.039062 -7.875 15.375 C -7.320312 15.707031 -6.804688 15.875 -6.328125 15.875 C -4.566406 15.875 -2.628906 15.203125 -0.515625 13.859375 C 1.597656 12.515625 3.535156 10.8125 5.296875 8.75 C 7.054688 6.695312 8.398438 4.441406 9.328125 1.984375 C 8.546875 2.242188 7.328125 2.609375 5.671875 3.078125 C 4.023438 3.554688 2.722656 3.945312 1.765625 4.25 C -0.804688 5.050781 -2.84375 5.894531 -4.34375 6.78125 C -6.332031 7.914062 -7.675781 9.53125 -8.375 11.625 Z M -8.375 11.625 "/></g></g></g><g fill="#ff57c1" fill-opacity="1"><g transform="translate(279.796136, 57.259677)"><g><path d="M 13.171875 -19.28125 C 15.847656 -19.28125 17.1875 -17.59375 17.1875 -14.21875 C 17.1875 -12.675781 16.785156 -11.023438 15.984375 -9.265625 C 14.953125 -6.867188 13.410156 -4.695312 11.359375 -2.75 C 11.828125 -1.832031 12.6875 -1.375 13.9375 -1.375 C 14.9375 -1.375 15.875 -1.867188 16.75 -2.859375 C 17.851562 -4.003906 18.644531 -5.007812 19.125 -5.875 C 19.601562 -6.738281 19.953125 -7.367188 20.171875 -7.765625 C 20.390625 -8.171875 20.671875 -8.75 21.015625 -9.5 C 21.367188 -10.257812 21.582031 -10.71875 21.65625 -10.875 C 21.726562 -11.039062 21.863281 -11.132812 22.0625 -11.15625 C 22.269531 -11.175781 22.421875 -11.113281 22.515625 -10.96875 C 22.609375 -10.820312 22.597656 -10.617188 22.484375 -10.359375 L 22.15625 -9.59375 C 21.9375 -9.070312 21.769531 -8.703125 21.65625 -8.484375 C 21.550781 -8.265625 21.359375 -7.867188 21.078125 -7.296875 C 20.804688 -6.734375 20.566406 -6.285156 20.359375 -5.953125 C 20.160156 -5.617188 19.882812 -5.175781 19.53125 -4.625 C 19.1875 -4.070312 18.875 -3.628906 18.59375 -3.296875 C 18.320312 -2.972656 17.984375 -2.609375 17.578125 -2.203125 C 17.171875 -1.796875 16.785156 -1.484375 16.421875 -1.265625 C 15.503906 -0.710938 14.640625 -0.4375 13.828125 -0.4375 C 12.328125 -0.4375 11.15625 -0.914062 10.3125 -1.875 C 8.613281 -0.625 7.050781 0 5.625 0 C 2.9375 0 1.59375 -1.6875 1.59375 -5.0625 C 1.59375 -6.613281 2 -8.269531 2.8125 -10.03125 C 3.914062 -12.601562 5.46875 -14.785156 7.46875 -16.578125 C 9.46875 -18.378906 11.367188 -19.28125 13.171875 -19.28125 Z M 13.78125 -17.578125 C 12.789062 -17.578125 11.613281 -16.914062 10.25 -15.59375 C 8.894531 -14.269531 7.679688 -12.46875 6.609375 -10.1875 C 5.328125 -7.550781 4.6875 -5.382812 4.6875 -3.6875 C 4.6875 -2 5.328125 -1.15625 6.609375 -1.15625 C 7.523438 -1.15625 8.554688 -1.648438 9.703125 -2.640625 C 9.109375 -3.484375 8.8125 -4.382812 8.8125 -5.34375 C 8.882812 -6.925781 9.53125 -7.71875 10.75 -7.71875 C 11.226562 -7.71875 11.625 -7.550781 11.9375 -7.21875 C 12.25 -6.882812 12.40625 -6.578125 12.40625 -6.296875 C 12.40625 -6.023438 12.367188 -5.742188 12.296875 -5.453125 C 12.910156 -6.367188 13.625 -7.675781 14.4375 -9.375 C 15.351562 -11.238281 15.8125 -13.070312 15.8125 -14.875 C 15.8125 -16.675781 15.132812 -17.578125 13.78125 -17.578125 Z M 14.109375 -23.03125 C 14.066406 -23.03125 14 -23.054688 13.90625 -23.109375 C 13.820312 -23.171875 13.78125 -23.265625 13.78125 -23.390625 C 13.78125 -23.523438 13.816406 -23.644531 13.890625 -23.75 C 13.960938 -23.863281 14.484375 -24.285156 15.453125 -25.015625 C 16.429688 -25.753906 17.488281 -26.515625 18.625 -27.296875 C 19.757812 -28.085938 20.582031 -28.675781 21.09375 -29.0625 C 21.613281 -29.457031 22.117188 -29.65625 22.609375 -29.65625 C 23.109375 -29.65625 23.550781 -29.5625 23.9375 -29.375 C 24.332031 -29.1875 24.53125 -28.953125 24.53125 -28.671875 C 24.53125 -28.398438 24.472656 -28.15625 24.359375 -27.9375 C 24.171875 -27.5 22.515625 -26.570312 19.390625 -25.15625 C 16.273438 -23.738281 14.515625 -23.03125 14.109375 -23.03125 Z M 14.109375 -23.03125 "/></g></g></g><g fill="#ff57c1" fill-opacity="1"><g transform="translate(298.255771, 57.259677)"><g><path d="M 19.78125 -18.078125 C 15.257812 -10.140625 13 -4.957031 13 -2.53125 C 13 -1.582031 13.347656 -1.109375 14.046875 -1.109375 C 15.921875 -1.109375 18.441406 -4.285156 21.609375 -10.640625 C 21.828125 -11.148438 22.046875 -11.347656 22.265625 -11.234375 C 22.484375 -11.128906 22.59375 -10.984375 22.59375 -10.796875 C 22.59375 -10.617188 22.519531 -10.398438 22.375 -10.140625 C 20.425781 -6.210938 18.78125 -3.503906 17.4375 -2.015625 C 16.101562 -0.523438 14.765625 0.21875 13.421875 0.21875 C 12.078125 0.21875 11.054688 -0.296875 10.359375 -1.328125 C 9.992188 -1.796875 9.8125 -2.441406 9.8125 -3.265625 C 9.8125 -4.097656 9.992188 -5.101562 10.359375 -6.28125 C 10.722656 -7.457031 11.734375 -9.367188 13.390625 -12.015625 C 13.796875 -12.671875 14 -13.191406 14 -13.578125 C 14 -13.960938 13.6875 -14.15625 13.0625 -14.15625 C 12.4375 -14.15625 11.242188 -13.332031 9.484375 -11.6875 C 6.835938 -9.257812 4.28125 -5.617188 1.8125 -0.765625 C 1.59375 -0.398438 1.34375 -0.171875 1.0625 -0.078125 C 0.789062 0.015625 0.253906 0.078125 -0.546875 0.109375 C -1.359375 0.148438 -1.894531 0.242188 -2.15625 0.390625 C -1.5625 -0.785156 -0.398438 -3.191406 1.328125 -6.828125 C 4.410156 -13.265625 6.429688 -16.941406 7.390625 -17.859375 C 7.828125 -18.296875 8.429688 -18.515625 9.203125 -18.515625 C 9.347656 -18.515625 9.722656 -18.457031 10.328125 -18.34375 C 10.941406 -18.238281 11.394531 -18.222656 11.6875 -18.296875 C 10.320312 -17.554688 8.097656 -14.101562 5.015625 -7.9375 C 6.742188 -10.0625 8.3125 -11.757812 9.71875 -13.03125 C 11.132812 -14.300781 12.832031 -15.476562 14.8125 -16.5625 C 16.800781 -17.644531 18.253906 -18.1875 19.171875 -18.1875 C 19.398438 -18.1875 19.601562 -18.148438 19.78125 -18.078125 Z M 19.78125 -18.078125 "/></g></g></g><g fill="#000000" fill-opacity="1"><g transform="translate(115.375384, 83.196385)"><g><path d="M 8.65625 -7.921875 C 8.65625 -6.890625 8.273438 -6.101562 7.515625 -5.5625 C 6.753906 -5.03125 5.722656 -4.765625 4.421875 -4.765625 L 3.03125 -4.765625 L 3.03125 0 L 1.453125 0 L 1.453125 -10.703125 L 4.9375 -10.703125 C 6.019531 -10.703125 6.910156 -10.453125 7.609375 -9.953125 C 8.304688 -9.460938 8.65625 -8.785156 8.65625 -7.921875 Z M 3.03125 -5.234375 L 4.46875 -5.234375 C 4.96875 -5.234375 5.398438 -5.332031 5.765625 -5.53125 C 6.128906 -5.726562 6.390625 -5.976562 6.546875 -6.28125 C 6.835938 -6.8125 6.984375 -7.332031 6.984375 -7.84375 C 6.984375 -8.09375 6.921875 -8.390625 6.796875 -8.734375 C 6.535156 -9.441406 6 -9.90625 5.1875 -10.125 C 4.414062 -10.125 3.695312 -10.03125 3.03125 -9.84375 Z M 3.03125 -5.234375 "/></g></g></g><g fill="#000000" fill-opacity="1"><g transform="translate(129.317604, 83.196385)"><g><path d="M 1.453125 0 L 1.453125 -10.703125 L 7.9375 -10.703125 L 7.78125 -9.625 L 4.765625 -10.125 C 4.242188 -10.125 3.664062 -10.03125 3.03125 -9.84375 L 3.03125 -5.921875 L 6.609375 -5.921875 L 6.609375 -5.296875 L 3.03125 -5.296875 L 3.03125 -0.578125 L 8.03125 -1.078125 L 7.875 0 Z M 1.453125 0 "/></g></g></g><g fill="#000000" fill-opacity="1"><g transform="translate(143.518593, 83.196385)"><g><path d="M 1.453125 0 L 1.453125 -10.703125 L 4.515625 -10.703125 C 5.785156 -10.703125 6.929688 -10.429688 7.953125 -9.890625 C 8.503906 -9.617188 8.984375 -9.269531 9.390625 -8.84375 C 9.804688 -8.425781 10.132812 -7.890625 10.375 -7.234375 C 10.625 -6.585938 10.75 -5.863281 10.75 -5.0625 C 10.75 -3.914062 10.460938 -2.953125 9.890625 -2.171875 C 8.847656 -0.722656 7.15625 0 4.8125 0 Z M 4.5 -0.546875 C 5.863281 -0.546875 6.960938 -0.945312 7.796875 -1.75 C 8.628906 -2.5625 9.046875 -3.753906 9.046875 -5.328125 C 9.046875 -6.523438 8.710938 -7.550781 8.046875 -8.40625 C 7.390625 -9.269531 6.539062 -9.84375 5.5 -10.125 C 4.5625 -10.125 3.742188 -10.007812 3.046875 -9.78125 L 3.046875 -0.703125 C 3.390625 -0.597656 3.875 -0.546875 4.5 -0.546875 Z M 4.5 -0.546875 "/></g></g></g><g fill="#000000" fill-opacity="1"><g transform="translate(160.080844, 83.196385)"><g><path d="M 2.9375 -10.703125 L 2.9375 0 L 1.453125 0 L 1.453125 -10.703125 Z M 2.9375 -10.703125 "/></g></g></g><g fill="#000000" fill-opacity="1"><g transform="translate(169.591659, 83.196385)"><g><path d="M 0.15625 0 L 4.96875 -10.96875 L 5.203125 -10.96875 L 10.015625 0 L 8.25 0 L 7.03125 -2.90625 L 2.234375 -2.90625 L 1.03125 0 Z M 2.46875 -3.53125 L 6.78125 -3.53125 L 4.640625 -8.765625 Z M 2.46875 -3.53125 "/></g></g></g><g fill="#000000" fill-opacity="1"><g transform="translate(184.876243, 83.196385)"><g><path d="M 5.109375 0 L 3.546875 0 L 3.546875 -9.921875 C 3.171875 -10.015625 2.800781 -10.0625 2.4375 -10.0625 L 0.265625 -9.5625 L 0.15625 -10.703125 L 8.484375 -10.703125 L 8.40625 -9.5625 L 6.203125 -10.0625 C 5.835938 -10.0625 5.472656 -10.015625 5.109375 -9.921875 Z M 5.109375 0 "/></g></g></g><g fill="#000000" fill-opacity="1"><g transform="translate(198.640561, 83.196385)"><g><path d="M 3.046875 -5.109375 L 3.046875 0 L 1.453125 0 L 1.453125 -10.703125 L 4.953125 -10.703125 C 6.035156 -10.703125 6.925781 -10.457031 7.625 -9.96875 C 8.320312 -9.488281 8.671875 -8.851562 8.671875 -8.0625 C 8.671875 -7.269531 8.390625 -6.644531 7.828125 -6.1875 C 7.273438 -5.726562 6.523438 -5.410156 5.578125 -5.234375 L 9.90625 0 L 8.03125 0.21875 L 4.28125 -5.109375 Z M 3.046875 -5.59375 L 4.078125 -5.59375 C 6.015625 -5.59375 6.984375 -6.359375 6.984375 -7.890625 C 6.984375 -8.148438 6.921875 -8.441406 6.796875 -8.765625 C 6.546875 -9.441406 6.015625 -9.890625 5.203125 -10.109375 C 4.472656 -10.109375 3.753906 -10.015625 3.046875 -9.828125 Z M 3.046875 -5.59375 "/></g></g></g><g fill="#000000" fill-opacity="1"><g transform="translate(214.070697, 83.196385)"><g><path d="M 0.15625 0 L 4.96875 -10.96875 L 5.203125 -10.96875 L 10.015625 0 L 8.25 0 L 7.03125 -2.90625 L 2.234375 -2.90625 L 1.03125 0 Z M 2.46875 -3.53125 L 6.78125 -3.53125 L 4.640625 -8.765625 Z M 2.46875 -3.53125 "/></g></g></g></svg>