<svg width="184" height="51" viewBox="0 0 184 51" fill="none" xmlns="http://www.w3.org/2000/svg">
<path d="M2.10639 34.6555L2.10117 34.6301L2.09508 34.6048C2.09379 34.5995 2.08752 34.5676 2.08752 34.507V16.3636C2.08752 15.9861 2.3896 15.684 2.76711 15.684H12.5431C14.5797 15.684 16.2227 14.0317 16.2227 12.0045V2.22353C16.2227 1.85316 16.5275 1.54395 16.9072 1.54395H35.0506C35.4259 1.54395 35.7302 1.84875 35.7302 2.22353V12.0045C35.7302 14.0339 37.3803 15.684 39.4098 15.684H48.7192C48.5415 16.7092 48.2089 17.6811 47.802 18.6395C46.7482 21.0801 45.2419 23.1783 43.5567 25.1712C40.1684 29.1113 36.1133 32.3216 31.7418 35.0545C27.3415 37.7375 22.6528 39.922 17.6167 41.1855C17.1521 41.2973 16.6878 41.4025 16.2227 41.499V38.8711C16.2227 38.7318 16.2147 38.5957 16.1982 38.4589C16.0524 37.1314 15.2016 36.0192 14.0296 35.5026C13.5662 35.2971 13.0575 35.1915 12.5431 35.1915H2.76711C2.44185 35.1915 2.16904 34.9612 2.10639 34.6555Z" stroke="#506CD7" stroke-width="3"/>
<path d="M51.3702 19.0674V34.5073C51.3702 35.7133 50.3966 36.6918 49.1907 36.6918H39.4097C38.2087 36.6918 37.2302 37.6655 37.2302 38.8714V48.6474C37.2302 49.8533 36.2565 50.8319 35.0506 50.8319H16.9072C15.7012 50.8319 14.7227 49.8533 14.7227 48.6474V45.2866C15.8841 45.1235 17.1148 44.8863 18.4541 44.5601C23.4558 43.3097 28.3982 41.1696 33.5778 38.0065C38.7129 34.7989 42.8397 31.3393 46.2055 27.42C48.4543 24.7659 49.932 22.4776 50.9996 20.0064C51.138 19.6852 51.2615 19.3733 51.3702 19.0674Z" fill="#506CD7"/>
<path d="M50.3522 14.5202C50.3473 14.6487 50.3374 14.7772 50.3275 14.9057C50.2039 16.4922 49.7393 17.9156 49.1809 19.2302C48.0441 21.8645 46.4329 24.0935 44.6981 26.1446C41.1841 30.2319 36.9979 33.5384 32.5301 36.3308C28.0325 39.0738 23.1989 41.3325 17.9748 42.6422C16.9072 42.8992 15.8249 43.1265 14.7227 43.2946C14.0703 43.3934 13.413 43.4725 12.7458 43.517C11.7771 43.5961 10.7886 43.6109 9.78037 43.5516C8.35203 43.4626 6.87427 43.2402 5.3965 42.6372C3.93356 42.0639 2.43602 40.9816 1.52662 39.4346C1.3141 39.059 1.13619 38.6685 0.997803 38.2633C1.53652 38.5252 2.13948 38.6685 2.76716 38.6685H6.61726C7.56125 39.0293 8.72271 39.2023 9.93853 39.1974C10.8578 39.1924 11.7969 39.1183 12.7458 38.9848C13.3982 38.8959 14.0506 38.7723 14.7079 38.629C15.3998 38.4857 16.0868 38.3077 16.7738 38.1101C19.0621 37.4577 21.3257 36.5977 23.5201 35.5746C25.7195 34.5664 27.8645 33.4049 29.9353 32.1249C32.0111 30.8497 34.0078 29.451 35.9007 27.9387C37.7986 26.4362 39.5779 24.8003 41.1891 23.0457C42.8003 21.3011 44.2336 19.4032 45.227 17.4213C45.7855 16.334 46.1561 15.1973 46.2451 14.1841C46.3192 13.4427 46.2402 12.7656 45.9832 12.2071C45.9584 12.1528 45.9337 12.1034 45.9041 12.049C45.5285 11.3917 44.8909 10.8035 43.9617 10.4131C43.0573 10.0078 41.9551 9.78539 40.8134 9.6816C40.2846 9.63712 39.7508 9.61735 39.2072 9.61735V6.5432C39.7756 6.48884 40.3489 6.45424 40.9321 6.4493C42.3209 6.43447 43.764 6.57286 45.2319 7.07203C46.685 7.5465 48.2171 8.51026 49.2006 10.0127C49.6652 10.7294 49.9766 11.5251 50.1594 12.3258C50.3225 13.0671 50.3819 13.8134 50.3522 14.5202Z" fill="white"/>
<path d="M69.2474 34.9385V17.6585H74.7554C74.8994 17.6585 75.1834 17.6625 75.6074 17.6705C76.0394 17.6785 76.4554 17.7065 76.8554 17.7545C78.2234 17.9305 79.3794 18.4185 80.3234 19.2185C81.2754 20.0105 81.9954 21.0225 82.4834 22.2545C82.9714 23.4865 83.2154 24.8345 83.2154 26.2985C83.2154 27.7625 82.9714 29.1105 82.4834 30.3425C81.9954 31.5745 81.2754 32.5905 80.3234 33.3905C79.3794 34.1825 78.2234 34.6665 76.8554 34.8425C76.4634 34.8905 76.0514 34.9185 75.6194 34.9265C75.1874 34.9345 74.8994 34.9385 74.7554 34.9385H69.2474ZM72.1874 32.2145H74.7554C74.9954 32.2145 75.2994 32.2065 75.6674 32.1905C76.0434 32.1745 76.3754 32.1385 76.6634 32.0825C77.4794 31.9305 78.1434 31.5665 78.6554 30.9905C79.1674 30.4145 79.5434 29.7145 79.7834 28.8905C80.0314 28.0665 80.1554 27.2025 80.1554 26.2985C80.1554 25.3625 80.0314 24.4825 79.7834 23.6585C79.5354 22.8345 79.1514 22.1425 78.6314 21.5825C78.1194 21.0225 77.4634 20.6665 76.6634 20.5145C76.3754 20.4505 76.0434 20.4145 75.6674 20.4065C75.2994 20.3905 74.9954 20.3825 74.7554 20.3825H72.1874V32.2145ZM86.2921 20.0105V17.3585H89.1841V20.0105H86.2921ZM86.2921 34.9385V21.9785H89.1841V34.9385H86.2921ZM97.7826 35.2985C96.1826 35.2985 94.8826 34.9385 93.8826 34.2185C92.8826 33.4985 92.2746 32.4865 92.0586 31.1825L95.0106 30.7265C95.1626 31.3665 95.4986 31.8705 96.0186 32.2385C96.5386 32.6065 97.1946 32.7905 97.9866 32.7905C98.6826 32.7905 99.2186 32.6545 99.5946 32.3825C99.9786 32.1025 100.171 31.7225 100.171 31.2425C100.171 30.9465 100.099 30.7105 99.9546 30.5345C99.8186 30.3505 99.5146 30.1745 99.0426 30.0065C98.5706 29.8385 97.8466 29.6265 96.8706 29.3705C95.7826 29.0825 94.9186 28.7745 94.2786 28.4465C93.6386 28.1105 93.1786 27.7145 92.8986 27.2585C92.6186 26.8025 92.4786 26.2505 92.4786 25.6025C92.4786 24.7945 92.6906 24.0905 93.1146 23.4905C93.5386 22.8905 94.1306 22.4305 94.8906 22.1105C95.6506 21.7825 96.5466 21.6185 97.5786 21.6185C98.5866 21.6185 99.4786 21.7745 100.255 22.0865C101.039 22.3985 101.671 22.8425 102.151 23.4185C102.631 23.9945 102.927 24.6705 103.039 25.4465L100.087 25.9745C100.015 25.4225 99.7626 24.9865 99.3306 24.6665C98.9066 24.3465 98.3386 24.1665 97.6266 24.1265C96.9466 24.0865 96.3986 24.1905 95.9826 24.4385C95.5666 24.6785 95.3586 25.0185 95.3586 25.4585C95.3586 25.7065 95.4426 25.9185 95.6106 26.0945C95.7786 26.2705 96.1146 26.4465 96.6186 26.6225C97.1306 26.7985 97.8906 27.0145 98.8986 27.2705C99.9306 27.5345 100.755 27.8385 101.371 28.1825C101.995 28.5185 102.443 28.9225 102.715 29.3945C102.995 29.8665 103.135 30.4385 103.135 31.1105C103.135 32.4145 102.659 33.4385 101.707 34.1825C100.763 34.9265 99.4546 35.2985 97.7826 35.2985ZM111.991 35.2985C110.727 35.2985 109.667 34.9985 108.811 34.3985C107.955 33.7985 107.311 32.9825 106.879 31.9505C106.447 30.9105 106.231 29.7465 106.231 28.4585C106.231 27.1545 106.447 25.9865 106.879 24.9545C107.311 23.9225 107.943 23.1105 108.775 22.5185C109.615 21.9185 110.651 21.6185 111.883 21.6185C113.107 21.6185 114.167 21.9185 115.063 22.5185C115.967 23.1105 116.667 23.9225 117.163 24.9545C117.659 25.9785 117.907 27.1465 117.907 28.4585C117.907 29.7545 117.663 30.9185 117.175 31.9505C116.687 32.9825 115.999 33.7985 115.111 34.3985C114.223 34.9985 113.183 35.2985 111.991 35.2985ZM105.739 40.6985V21.9785H108.295V31.0745H108.655V40.6985H105.739ZM111.547 32.7065C112.299 32.7065 112.919 32.5185 113.407 32.1425C113.895 31.7665 114.255 31.2585 114.487 30.6185C114.727 29.9705 114.847 29.2505 114.847 28.4585C114.847 27.6745 114.727 26.9625 114.487 26.3225C114.247 25.6745 113.875 25.1625 113.371 24.7865C112.867 24.4025 112.227 24.2105 111.451 24.2105C110.715 24.2105 110.115 24.3905 109.651 24.7505C109.187 25.1025 108.843 25.5985 108.619 26.2385C108.403 26.8705 108.295 27.6105 108.295 28.4585C108.295 29.2985 108.403 30.0385 108.619 30.6785C108.843 31.3185 109.191 31.8185 109.663 32.1785C110.143 32.5305 110.771 32.7065 111.547 32.7065ZM129.516 34.9385V28.6985C129.516 28.2905 129.488 27.8385 129.432 27.3425C129.376 26.8465 129.244 26.3705 129.036 25.9145C128.836 25.4505 128.532 25.0705 128.124 24.7745C127.724 24.4785 127.18 24.3305 126.492 24.3305C126.124 24.3305 125.76 24.3905 125.4 24.5105C125.04 24.6305 124.712 24.8385 124.416 25.1345C124.128 25.4225 123.896 25.8225 123.72 26.3345C123.544 26.8385 123.456 27.4865 123.456 28.2785L121.74 27.5465C121.74 26.4425 121.952 25.4425 122.376 24.5465C122.808 23.6505 123.44 22.9385 124.272 22.4105C125.104 21.8745 126.128 21.6065 127.344 21.6065C128.304 21.6065 129.096 21.7665 129.72 22.0865C130.344 22.4065 130.84 22.8145 131.208 23.3105C131.576 23.8065 131.848 24.3345 132.024 24.8945C132.2 25.4545 132.312 25.9865 132.36 26.4905C132.416 26.9865 132.444 27.3905 132.444 27.7025V34.9385H129.516ZM120.528 34.9385V21.9785H123.108V25.9985H123.456V34.9385H120.528ZM140.58 35.2985C138.98 35.2985 137.68 34.9385 136.68 34.2185C135.68 33.4985 135.072 32.4865 134.856 31.1825L137.808 30.7265C137.96 31.3665 138.296 31.8705 138.816 32.2385C139.336 32.6065 139.992 32.7905 140.784 32.7905C141.48 32.7905 142.016 32.6545 142.392 32.3825C142.776 32.1025 142.968 31.7225 142.968 31.2425C142.968 30.9465 142.896 30.7105 142.752 30.5345C142.616 30.3505 142.312 30.1745 141.84 30.0065C141.368 29.8385 140.644 29.6265 139.668 29.3705C138.58 29.0825 137.716 28.7745 137.076 28.4465C136.436 28.1105 135.976 27.7145 135.696 27.2585C135.416 26.8025 135.276 26.2505 135.276 25.6025C135.276 24.7945 135.488 24.0905 135.912 23.4905C136.336 22.8905 136.928 22.4305 137.688 22.1105C138.448 21.7825 139.344 21.6185 140.376 21.6185C141.384 21.6185 142.276 21.7745 143.052 22.0865C143.836 22.3985 144.468 22.8425 144.948 23.4185C145.428 23.9945 145.724 24.6705 145.836 25.4465L142.884 25.9745C142.812 25.4225 142.56 24.9865 142.128 24.6665C141.704 24.3465 141.136 24.1665 140.424 24.1265C139.744 24.0865 139.196 24.1905 138.78 24.4385C138.364 24.6785 138.156 25.0185 138.156 25.4585C138.156 25.7065 138.24 25.9185 138.408 26.0945C138.576 26.2705 138.912 26.4465 139.416 26.6225C139.928 26.7985 140.688 27.0145 141.696 27.2705C142.728 27.5345 143.552 27.8385 144.168 28.1825C144.792 28.5185 145.24 28.9225 145.512 29.3945C145.792 29.8665 145.932 30.4385 145.932 31.1105C145.932 32.4145 145.456 33.4385 144.504 34.1825C143.56 34.9265 142.252 35.2985 140.58 35.2985ZM152.184 35.2985C151.248 35.2985 150.456 35.1225 149.808 34.7705C149.16 34.4105 148.668 33.9345 148.332 33.3425C148.004 32.7505 147.84 32.0985 147.84 31.3865C147.84 30.7625 147.944 30.2025 148.152 29.7065C148.36 29.2025 148.68 28.7705 149.112 28.4105C149.544 28.0425 150.104 27.7425 150.792 27.5105C151.312 27.3425 151.92 27.1905 152.616 27.0545C153.32 26.9185 154.08 26.7945 154.896 26.6825C155.72 26.5625 156.58 26.4345 157.476 26.2985L156.444 26.8865C156.452 25.9905 156.252 25.3305 155.844 24.9065C155.436 24.4825 154.748 24.2705 153.78 24.2705C153.196 24.2705 152.632 24.4065 152.088 24.6785C151.544 24.9505 151.164 25.4185 150.948 26.0825L148.308 25.2545C148.628 24.1585 149.236 23.2785 150.132 22.6145C151.036 21.9505 152.252 21.6185 153.78 21.6185C154.932 21.6185 155.944 21.8065 156.816 22.1825C157.696 22.5585 158.348 23.1745 158.772 24.0305C159.004 24.4865 159.144 24.9545 159.192 25.4345C159.24 25.9065 159.264 26.4225 159.264 26.9825V34.9385H156.732V32.1305L157.152 32.5865C156.568 33.5225 155.884 34.2105 155.1 34.6505C154.324 35.0825 153.352 35.2985 152.184 35.2985ZM152.76 32.9945C153.416 32.9945 153.976 32.8785 154.44 32.6465C154.904 32.4145 155.272 32.1305 155.544 31.7945C155.824 31.4585 156.012 31.1425 156.108 30.8465C156.26 30.4785 156.344 30.0585 156.36 29.5865C156.384 29.1065 156.396 28.7185 156.396 28.4225L157.284 28.6865C156.412 28.8225 155.664 28.9425 155.04 29.0465C154.416 29.1505 153.88 29.2505 153.432 29.3465C152.984 29.4345 152.588 29.5345 152.244 29.6465C151.908 29.7665 151.624 29.9065 151.392 30.0665C151.16 30.2265 150.98 30.4105 150.852 30.6185C150.732 30.8265 150.672 31.0705 150.672 31.3505C150.672 31.6705 150.752 31.9545 150.912 32.2025C151.072 32.4425 151.304 32.6345 151.608 32.7785C151.92 32.9225 152.304 32.9945 152.76 32.9945ZM162.388 34.9385V21.9785H164.944V25.1345L164.632 24.7265C164.792 24.2945 165.004 23.9025 165.268 23.5505C165.54 23.1905 165.864 22.8945 166.24 22.6625C166.56 22.4465 166.912 22.2785 167.296 22.1585C167.688 22.0305 168.088 21.9545 168.496 21.9305C168.904 21.8985 169.3 21.9145 169.684 21.9785V24.6785C169.3 24.5665 168.856 24.5305 168.352 24.5705C167.856 24.6105 167.408 24.7505 167.008 24.9905C166.608 25.2065 166.28 25.4825 166.024 25.8185C165.776 26.1545 165.592 26.5385 165.472 26.9705C165.352 27.3945 165.292 27.8545 165.292 28.3505V34.9385H162.388ZM173.28 40.6985L175.776 33.8465L175.824 35.8625L170.172 21.9785H173.184L177.192 32.2505H176.424L180.324 21.9785H183.216L175.992 40.6985H173.28Z" fill="white"/>
</svg>
