<svg xmlns="http://www.w3.org/2000/svg" xmlns:xlink="http://www.w3.org/1999/xlink" width="432" zoomAndPan="magnify" viewBox="0 0 324 324.749988" height="433" preserveAspectRatio="xMidYMid meet" version="1.0"><defs><clipPath id="e29f9d27d9"><path d="M 1 0 L 323.875 0 L 323.875 323 L 1 323 Z M 1 0 " clip-rule="nonzero"/></clipPath><clipPath id="c51a4d12e6"><path d="M 1 0 L 323.875 0 L 323.875 323 L 1 323 Z M 1 0 " clip-rule="nonzero"/></clipPath></defs><g clip-path="url(#e29f9d27d9)"><path fill="#faeaf9" d="M 161.761719 0.296875 C 71.941406 0.597656 0.148438 73.632812 1.320312 163.449219 C 1.375 167.964844 1.617188 172.464844 2.050781 176.957031 C 2.484375 181.449219 3.105469 185.914062 3.917969 190.355469 C 4.726562 194.792969 5.722656 199.191406 6.90625 203.546875 C 8.085938 207.902344 9.449219 212.199219 10.996094 216.441406 C 12.539062 220.679688 14.261719 224.847656 16.160156 228.941406 C 18.054688 233.039062 20.121094 237.046875 22.355469 240.964844 C 24.589844 244.886719 26.988281 248.707031 29.546875 252.425781 C 32.101562 256.140625 34.8125 259.746094 37.675781 263.234375 C 38.125 263.785156 38.53125 264.367188 38.894531 264.980469 C 39.257812 265.589844 39.570312 266.226562 39.839844 266.882812 C 40.105469 267.542969 40.324219 268.21875 40.492188 268.910156 C 40.65625 269.601562 40.773438 270.300781 40.832031 271.007812 C 40.894531 271.71875 40.90625 272.425781 40.859375 273.136719 C 40.816406 273.847656 40.71875 274.546875 40.570312 275.242188 C 40.421875 275.9375 40.222656 276.621094 39.96875 277.285156 C 39.71875 277.949219 39.417969 278.59375 39.074219 279.214844 L 25.203125 304.066406 C 21.359375 310.957031 27.625 319.105469 35.269531 317.160156 L 82.246094 305.199219 C 83.886719 304.78125 85.542969 304.660156 87.226562 304.832031 C 88.90625 305.003906 90.507812 305.460938 92.027344 306.203125 C 102.417969 311.25 113.222656 315.125 124.449219 317.835938 C 135.675781 320.546875 147.0625 322.023438 158.605469 322.273438 C 248.917969 324.316406 323.042969 252.152344 323.328125 161.816406 C 323.605469 72.472656 251.113281 -0.00390625 161.761719 0.296875 Z M 162.316406 302.476562 C 160.007812 302.476562 157.699219 302.417969 155.390625 302.304688 C 153.082031 302.191406 150.78125 302.023438 148.480469 301.796875 C 146.183594 301.570312 143.890625 301.285156 141.605469 300.945312 C 139.320312 300.609375 137.042969 300.214844 134.777344 299.761719 C 132.511719 299.3125 130.257812 298.804688 128.015625 298.246094 C 125.777344 297.683594 123.550781 297.066406 121.339844 296.398438 C 119.128906 295.726562 116.933594 295 114.757812 294.222656 C 112.585938 293.445312 110.429688 292.613281 108.292969 291.730469 C 106.160156 290.84375 104.046875 289.910156 101.960938 288.921875 C 99.871094 287.933594 97.808594 286.894531 95.769531 285.804688 C 93.734375 284.71875 91.722656 283.578125 89.742188 282.390625 C 87.761719 281.203125 85.808594 279.96875 83.886719 278.683594 C 81.96875 277.402344 80.078125 276.070312 78.222656 274.695312 C 76.367188 273.316406 74.546875 271.898438 72.761719 270.429688 C 70.976562 268.964844 69.226562 267.457031 67.515625 265.90625 C 65.800781 264.355469 64.128906 262.761719 62.496094 261.128906 C 60.863281 259.496094 59.269531 257.820312 57.71875 256.109375 C 56.167969 254.398438 54.65625 252.648438 53.191406 250.863281 C 51.726562 249.078125 50.304688 247.257812 48.929688 245.402344 C 47.554688 243.542969 46.222656 241.65625 44.9375 239.734375 C 43.65625 237.8125 42.421875 235.863281 41.230469 233.882812 C 40.042969 231.898438 38.90625 229.890625 37.816406 227.851562 C 36.726562 225.816406 35.691406 223.75 34.703125 221.664062 C 33.714844 219.574219 32.777344 217.464844 31.894531 215.328125 C 31.007812 213.195312 30.179688 211.039062 29.398438 208.863281 C 28.621094 206.6875 27.898438 204.496094 27.226562 202.285156 C 26.554688 200.074219 25.941406 197.847656 25.378906 195.605469 C 24.816406 193.367188 24.3125 191.113281 23.859375 188.847656 C 23.410156 186.578125 23.015625 184.304688 22.675781 182.019531 C 22.335938 179.734375 22.054688 177.441406 21.828125 175.140625 C 21.601562 172.84375 21.429688 170.539062 21.316406 168.230469 C 21.203125 165.925781 21.148438 163.613281 21.148438 161.304688 C 21.148438 83.339844 84.351562 20.132812 162.316406 20.132812 C 239.980469 20.132812 302.996094 82.847656 303.484375 160.398438 C 303.976562 238.207031 240.128906 302.476562 162.316406 302.476562 Z M 162.316406 302.476562 " fill-opacity="1" fill-rule="nonzero"/></g><path fill="#faeaf9" d="M 137.085938 92.671875 L 137.152344 92.800781 L 145.570312 109.5 C 146.023438 110.398438 146.402344 111.328125 146.707031 112.285156 C 147.007812 113.246094 147.234375 114.222656 147.378906 115.21875 C 147.523438 116.214844 147.585938 117.214844 147.570312 118.21875 C 147.554688 119.226562 147.457031 120.222656 147.28125 121.210938 C 147.105469 122.203125 146.847656 123.171875 146.515625 124.121094 C 146.183594 125.070312 145.773438 125.984375 145.292969 126.867188 C 144.8125 127.75 144.261719 128.589844 143.644531 129.386719 C 143.027344 130.179688 142.351562 130.917969 141.617188 131.605469 C 140.882812 132.285156 140.210938 133.019531 139.59375 133.808594 C 138.980469 134.597656 138.429688 135.429688 137.949219 136.304688 C 137.46875 137.183594 137.0625 138.089844 136.726562 139.035156 C 136.390625 139.976562 136.132812 140.9375 135.953125 141.921875 C 135.773438 142.90625 135.671875 143.898438 135.652344 144.898438 C 135.632812 145.894531 135.691406 146.890625 135.828125 147.882812 C 135.96875 148.871094 136.1875 149.84375 136.480469 150.800781 C 136.777344 151.753906 137.148438 152.679688 137.589844 153.574219 C 142.644531 163.726562 151.402344 177.714844 164.765625 187.808594 C 165.511719 188.375 166.292969 188.882812 167.113281 189.332031 C 167.933594 189.777344 168.785156 190.164062 169.660156 190.484375 C 170.539062 190.808594 171.4375 191.0625 172.351562 191.25 C 173.269531 191.433594 174.195312 191.554688 175.128906 191.601562 C 176.0625 191.652344 176.992188 191.628906 177.925781 191.539062 C 178.855469 191.449219 179.773438 191.289062 180.679688 191.0625 C 181.585938 190.832031 182.472656 190.539062 183.335938 190.179688 C 184.199219 189.820312 185.027344 189.394531 185.828125 188.910156 L 191.25 185.613281 C 192.46875 184.871094 193.75 184.277344 195.101562 183.832031 C 196.453125 183.386719 197.839844 183.097656 199.253906 182.964844 C 200.671875 182.835938 202.085938 182.867188 203.496094 183.058594 C 204.90625 183.25 206.277344 183.597656 207.609375 184.105469 L 229.160156 192.300781 C 229.734375 192.515625 230.296875 192.761719 230.84375 193.035156 C 231.390625 193.308594 231.925781 193.605469 232.445312 193.929688 C 232.964844 194.257812 233.464844 194.605469 233.949219 194.980469 C 234.433594 195.355469 234.898438 195.753906 235.34375 196.171875 C 235.789062 196.59375 236.214844 197.035156 236.617188 197.496094 C 237.019531 197.957031 237.398438 198.4375 237.753906 198.9375 C 238.109375 199.4375 238.4375 199.949219 238.742188 200.480469 C 239.046875 201.011719 239.324219 201.558594 239.574219 202.117188 C 239.824219 202.675781 240.046875 203.246094 240.242188 203.824219 C 240.4375 204.40625 240.605469 204.996094 240.742188 205.59375 C 240.878906 206.1875 240.984375 206.792969 241.0625 207.398438 C 241.140625 208.007812 241.191406 208.617188 241.207031 209.226562 C 241.226562 209.839844 241.214844 210.453125 241.171875 211.0625 C 241.128906 211.671875 241.058594 212.28125 240.957031 212.886719 C 240.855469 213.488281 240.722656 214.085938 240.5625 214.675781 C 240.402344 215.269531 240.210938 215.851562 239.996094 216.421875 C 239.742188 217.082031 239.457031 217.722656 239.132812 218.347656 L 233.160156 229.925781 C 232.679688 230.863281 232.121094 231.75 231.484375 232.59375 C 230.851562 233.433594 230.152344 234.21875 229.386719 234.941406 C 228.621094 235.664062 227.796875 236.320312 226.921875 236.902344 C 226.046875 237.488281 225.125 237.996094 224.164062 238.425781 C 223.203125 238.855469 222.210938 239.199219 221.191406 239.460938 C 220.167969 239.722656 219.132812 239.898438 218.082031 239.984375 C 217.035156 240.074219 215.984375 240.070312 214.933594 239.980469 C 213.882812 239.890625 212.847656 239.714844 211.828125 239.449219 C 177.980469 230.691406 97.304688 200.25 90.804688 108.195312 C 90.742188 107.289062 90.742188 106.378906 90.8125 105.472656 C 90.878906 104.5625 91.015625 103.664062 91.214844 102.777344 C 91.414062 101.886719 91.675781 101.019531 92.003906 100.167969 C 92.328125 99.316406 92.714844 98.496094 93.164062 97.703125 C 93.609375 96.90625 94.113281 96.148438 94.667969 95.429688 C 95.226562 94.710938 95.832031 94.03125 96.488281 93.402344 C 97.144531 92.769531 97.84375 92.1875 98.585938 91.660156 C 99.324219 91.128906 100.101562 90.65625 100.910156 90.238281 L 111.902344 84.59375 C 112.449219 84.3125 113.003906 84.058594 113.574219 83.832031 C 114.144531 83.609375 114.722656 83.410156 115.3125 83.242188 C 115.902344 83.074219 116.496094 82.933594 117.101562 82.824219 C 117.703125 82.714844 118.308594 82.636719 118.917969 82.585938 C 119.53125 82.535156 120.140625 82.515625 120.753906 82.523438 C 121.367188 82.535156 121.976562 82.574219 122.585938 82.644531 C 123.195312 82.714844 123.796875 82.8125 124.394531 82.941406 C 124.996094 83.070312 125.585938 83.230469 126.167969 83.417969 C 126.753906 83.601562 127.324219 83.820312 127.886719 84.0625 C 128.449219 84.304688 128.996094 84.574219 129.53125 84.871094 C 130.070312 85.171875 130.589844 85.492188 131.09375 85.839844 C 131.597656 86.191406 132.082031 86.5625 132.546875 86.957031 C 133.015625 87.355469 133.460938 87.773438 133.890625 88.210938 C 134.316406 88.652344 134.71875 89.113281 135.097656 89.589844 C 135.480469 90.070312 135.835938 90.570312 136.167969 91.082031 C 136.5 91.597656 136.808594 92.128906 137.085938 92.671875 Z M 137.085938 92.671875 " fill-opacity="1" fill-rule="nonzero"/><g clip-path="url(#c51a4d12e6)"><path fill="#faeaf9" d="M 161.761719 0.296875 C 71.941406 0.597656 0.148438 73.632812 1.320312 163.449219 C 1.375 167.964844 1.617188 172.464844 2.050781 176.957031 C 2.484375 181.449219 3.105469 185.914062 3.917969 190.355469 C 4.726562 194.792969 5.722656 199.191406 6.90625 203.546875 C 8.085938 207.902344 9.449219 212.199219 10.996094 216.441406 C 12.539062 220.679688 14.261719 224.847656 16.160156 228.941406 C 18.054688 233.039062 20.121094 237.046875 22.355469 240.964844 C 24.589844 244.886719 26.988281 248.707031 29.546875 252.425781 C 32.101562 256.140625 34.8125 259.746094 37.675781 263.234375 C 38.125 263.785156 38.53125 264.367188 38.894531 264.980469 C 39.257812 265.589844 39.570312 266.226562 39.839844 266.882812 C 40.105469 267.542969 40.324219 268.21875 40.492188 268.910156 C 40.65625 269.601562 40.773438 270.300781 40.832031 271.007812 C 40.894531 271.71875 40.90625 272.425781 40.859375 273.136719 C 40.816406 273.847656 40.71875 274.546875 40.570312 275.242188 C 40.421875 275.9375 40.222656 276.621094 39.96875 277.285156 C 39.71875 277.949219 39.417969 278.59375 39.074219 279.214844 L 25.203125 304.066406 C 21.359375 310.957031 27.625 319.105469 35.269531 317.160156 L 82.246094 305.199219 C 83.886719 304.78125 85.542969 304.660156 87.226562 304.832031 C 88.90625 305.003906 90.507812 305.460938 92.027344 306.203125 C 102.417969 311.25 113.222656 315.125 124.449219 317.835938 C 135.675781 320.546875 147.0625 322.023438 158.605469 322.273438 C 248.917969 324.316406 323.042969 252.152344 323.328125 161.816406 C 323.605469 72.472656 251.113281 -0.00390625 161.761719 0.296875 Z M 162.316406 302.476562 C 160.007812 302.476562 157.699219 302.417969 155.390625 302.304688 C 153.082031 302.191406 150.78125 302.023438 148.480469 301.796875 C 146.183594 301.570312 143.890625 301.285156 141.605469 300.945312 C 139.320312 300.609375 137.042969 300.214844 134.777344 299.761719 C 132.511719 299.3125 130.257812 298.804688 128.015625 298.246094 C 125.777344 297.683594 123.550781 297.066406 121.339844 296.398438 C 119.128906 295.726562 116.933594 295 114.757812 294.222656 C 112.585938 293.445312 110.429688 292.613281 108.292969 291.730469 C 106.160156 290.84375 104.046875 289.910156 101.960938 288.921875 C 99.871094 287.933594 97.808594 286.894531 95.769531 285.804688 C 93.734375 284.71875 91.722656 283.578125 89.742188 282.390625 C 87.761719 281.203125 85.808594 279.96875 83.886719 278.683594 C 81.96875 277.402344 80.078125 276.070312 78.222656 274.695312 C 76.367188 273.316406 74.546875 271.898438 72.761719 270.429688 C 70.976562 268.964844 69.226562 267.457031 67.515625 265.90625 C 65.800781 264.355469 64.128906 262.761719 62.496094 261.128906 C 60.863281 259.496094 59.269531 257.820312 57.71875 256.109375 C 56.167969 254.398438 54.65625 252.648438 53.191406 250.863281 C 51.726562 249.078125 50.304688 247.257812 48.929688 245.402344 C 47.554688 243.542969 46.222656 241.65625 44.9375 239.734375 C 43.65625 237.8125 42.421875 235.863281 41.230469 233.882812 C 40.042969 231.898438 38.90625 229.890625 37.816406 227.851562 C 36.726562 225.816406 35.691406 223.75 34.703125 221.664062 C 33.714844 219.574219 32.777344 217.464844 31.894531 215.328125 C 31.007812 213.195312 30.179688 211.039062 29.398438 208.863281 C 28.621094 206.6875 27.898438 204.496094 27.226562 202.285156 C 26.554688 200.074219 25.941406 197.847656 25.378906 195.605469 C 24.816406 193.367188 24.3125 191.113281 23.859375 188.847656 C 23.410156 186.578125 23.015625 184.304688 22.675781 182.019531 C 22.335938 179.734375 22.054688 177.441406 21.828125 175.140625 C 21.601562 172.84375 21.429688 170.539062 21.316406 168.230469 C 21.203125 165.925781 21.148438 163.613281 21.148438 161.304688 C 21.148438 83.339844 84.351562 20.132812 162.316406 20.132812 C 239.980469 20.132812 302.996094 82.847656 303.484375 160.398438 C 303.976562 238.207031 240.128906 302.476562 162.316406 302.476562 Z M 162.316406 302.476562 " fill-opacity="1" fill-rule="nonzero"/></g><path fill="#faeaf9" d="M 137.085938 92.671875 L 137.152344 92.800781 L 145.570312 109.5 C 146.023438 110.398438 146.402344 111.328125 146.707031 112.285156 C 147.007812 113.246094 147.234375 114.222656 147.378906 115.21875 C 147.523438 116.214844 147.585938 117.214844 147.570312 118.21875 C 147.554688 119.226562 147.457031 120.222656 147.28125 121.210938 C 147.105469 122.203125 146.847656 123.171875 146.515625 124.121094 C 146.183594 125.070312 145.773438 125.984375 145.292969 126.867188 C 144.8125 127.75 144.261719 128.589844 143.644531 129.386719 C 143.027344 130.179688 142.351562 130.917969 141.617188 131.605469 C 140.882812 132.285156 140.210938 133.019531 139.59375 133.808594 C 138.980469 134.597656 138.429688 135.429688 137.949219 136.304688 C 137.46875 137.183594 137.0625 138.089844 136.726562 139.035156 C 136.390625 139.976562 136.132812 140.9375 135.953125 141.921875 C 135.773438 142.90625 135.671875 143.898438 135.652344 144.898438 C 135.632812 145.894531 135.691406 146.890625 135.828125 147.882812 C 135.96875 148.871094 136.1875 149.84375 136.480469 150.800781 C 136.777344 151.753906 137.148438 152.679688 137.589844 153.574219 C 142.644531 163.726562 151.402344 177.714844 164.765625 187.808594 C 165.511719 188.375 166.292969 188.882812 167.113281 189.332031 C 167.933594 189.777344 168.785156 190.164062 169.660156 190.484375 C 170.539062 190.808594 171.4375 191.0625 172.351562 191.25 C 173.269531 191.433594 174.195312 191.554688 175.128906 191.601562 C 176.0625 191.652344 176.992188 191.628906 177.925781 191.539062 C 178.855469 191.449219 179.773438 191.289062 180.679688 191.0625 C 181.585938 190.832031 182.472656 190.539062 183.335938 190.179688 C 184.199219 189.820312 185.027344 189.394531 185.828125 188.910156 L 191.25 185.613281 C 192.46875 184.871094 193.75 184.277344 195.101562 183.832031 C 196.453125 183.386719 197.839844 183.097656 199.253906 182.964844 C 200.671875 182.835938 202.085938 182.867188 203.496094 183.058594 C 204.90625 183.25 206.277344 183.597656 207.609375 184.105469 L 229.160156 192.300781 C 229.734375 192.515625 230.296875 192.761719 230.84375 193.035156 C 231.390625 193.308594 231.925781 193.605469 232.445312 193.929688 C 232.964844 194.257812 233.464844 194.605469 233.949219 194.980469 C 234.433594 195.355469 234.898438 195.753906 235.34375 196.171875 C 235.789062 196.59375 236.214844 197.035156 236.617188 197.496094 C 237.019531 197.957031 237.398438 198.4375 237.753906 198.9375 C 238.109375 199.4375 238.4375 199.949219 238.742188 200.480469 C 239.046875 201.011719 239.324219 201.558594 239.574219 202.117188 C 239.824219 202.675781 240.046875 203.246094 240.242188 203.824219 C 240.4375 204.40625 240.605469 204.996094 240.742188 205.59375 C 240.878906 206.1875 240.984375 206.792969 241.0625 207.398438 C 241.140625 208.007812 241.191406 208.617188 241.207031 209.226562 C 241.226562 209.839844 241.214844 210.453125 241.171875 211.0625 C 241.128906 211.671875 241.058594 212.28125 240.957031 212.886719 C 240.855469 213.488281 240.722656 214.085938 240.5625 214.675781 C 240.402344 215.269531 240.210938 215.851562 239.996094 216.421875 C 239.742188 217.082031 239.457031 217.722656 239.132812 218.347656 L 233.160156 229.925781 C 232.679688 230.863281 232.121094 231.75 231.484375 232.59375 C 230.851562 233.433594 230.152344 234.21875 229.386719 234.941406 C 228.621094 235.664062 227.796875 236.320312 226.921875 236.902344 C 226.046875 237.488281 225.125 237.996094 224.164062 238.425781 C 223.203125 238.855469 222.210938 239.199219 221.191406 239.460938 C 220.167969 239.722656 219.132812 239.898438 218.082031 239.984375 C 217.035156 240.074219 215.984375 240.070312 214.933594 239.980469 C 213.882812 239.890625 212.847656 239.714844 211.828125 239.449219 C 177.980469 230.691406 97.304688 200.25 90.804688 108.195312 C 90.742188 107.289062 90.742188 106.378906 90.8125 105.472656 C 90.878906 104.5625 91.015625 103.664062 91.214844 102.777344 C 91.414062 101.886719 91.675781 101.019531 92.003906 100.167969 C 92.328125 99.316406 92.714844 98.496094 93.164062 97.703125 C 93.609375 96.90625 94.113281 96.148438 94.667969 95.429688 C 95.226562 94.710938 95.832031 94.03125 96.488281 93.402344 C 97.144531 92.769531 97.84375 92.1875 98.585938 91.660156 C 99.324219 91.128906 100.101562 90.65625 100.910156 90.238281 L 111.902344 84.59375 C 112.449219 84.3125 113.003906 84.058594 113.574219 83.832031 C 114.144531 83.609375 114.722656 83.410156 115.3125 83.242188 C 115.902344 83.074219 116.496094 82.933594 117.101562 82.824219 C 117.703125 82.714844 118.308594 82.636719 118.917969 82.585938 C 119.53125 82.535156 120.140625 82.515625 120.753906 82.523438 C 121.367188 82.535156 121.976562 82.574219 122.585938 82.644531 C 123.195312 82.714844 123.796875 82.8125 124.394531 82.941406 C 124.996094 83.070312 125.585938 83.230469 126.167969 83.417969 C 126.753906 83.601562 127.324219 83.820312 127.886719 84.0625 C 128.449219 84.304688 128.996094 84.574219 129.53125 84.871094 C 130.070312 85.171875 130.589844 85.492188 131.09375 85.839844 C 131.597656 86.191406 132.082031 86.5625 132.546875 86.957031 C 133.015625 87.355469 133.460938 87.773438 133.890625 88.210938 C 134.316406 88.652344 134.71875 89.113281 135.097656 89.589844 C 135.480469 90.070312 135.835938 90.570312 136.167969 91.082031 C 136.5 91.597656 136.808594 92.128906 137.085938 92.671875 Z M 137.085938 92.671875 " fill-opacity="1" fill-rule="nonzero"/></svg>