<svg width="60" height="60" viewBox="0 0 60 60" fill="none" xmlns="http://www.w3.org/2000/svg">
<path d="M34.9068 1.83104C35.0568 1.8312 35.0568 1.8312 35.2099 1.83136C38.6844 1.84307 41.9946 2.55095 45.1167 4.10155C45.2002 4.14232 45.2836 4.18309 45.3696 4.22509C47.2667 5.15934 48.9234 6.34024 50.5073 7.73437C50.6428 7.84834 50.6428 7.84834 50.7811 7.96462C51.2502 8.36095 51.6613 8.77968 52.0578 9.24865C52.1964 9.41143 52.3384 9.57139 52.4835 9.72838C55.8942 13.4193 58.1018 18.7362 58.1525 23.7639C58.1536 23.8588 58.1548 23.9538 58.1559 24.0516C58.1761 26.1516 58.1587 28.1823 57.6558 30.2344C57.6181 30.391 57.6181 30.391 57.5797 30.5507C56.56 34.6704 54.529 38.2609 51.6012 41.3207C51.4679 41.4603 51.3362 41.6015 51.205 41.743C48.5676 44.51 44.8091 46.505 41.1323 47.4609C41.0163 47.4609 40.9003 47.4609 40.7808 47.4609C40.8318 47.5164 40.8829 47.5718 40.9355 47.6289C42 48.811 42.6039 49.7594 42.5748 51.3899C42.4834 52.4177 41.9484 53.0724 41.2495 53.7891C41.1905 53.851 41.1314 53.9128 41.0706 53.9766C40.2527 54.8326 39.4507 55.6255 38.437 56.25C38.3478 56.3094 38.2585 56.3687 38.1665 56.4299C35.5203 58.1289 32.1756 58.5587 29.1118 57.9981C25.7956 57.2666 23.6033 55.2609 21.2695 52.9313C21.0886 52.7512 20.9078 52.5711 20.7269 52.391C20.1368 51.8034 19.5473 51.2151 18.9578 50.6268C18.7539 50.4234 18.55 50.2199 18.346 50.0165C17.3882 49.0609 16.4307 48.105 15.4735 47.1488C14.372 46.0485 13.2696 44.9492 12.1663 43.8506C11.311 42.9988 10.4565 42.1461 9.60273 41.2927C9.09391 40.7841 8.58472 40.276 8.07456 39.7688C7.5946 39.2916 7.11578 38.8132 6.63779 38.334C6.46309 38.1593 6.28799 37.9849 6.11245 37.811C3.46337 35.185 1.85878 32.237 1.83791 28.4473C1.83137 24.6844 3.31553 21.6454 5.93215 18.977C6.05595 18.8493 6.05595 18.8493 6.18226 18.719C7.00145 17.9034 7.80417 17.4538 8.9717 17.4243C10.24 17.4428 11.043 17.869 11.9417 18.7472C12.1904 19.0018 12.1904 19.0018 12.5386 19.2187C12.5712 18.9976 12.5712 18.9976 12.6045 18.772C13.3826 14.9196 15.7353 11.4675 18.398 8.67187C18.4876 8.57473 18.5771 8.4776 18.6694 8.37752C19.9736 7.00718 21.5735 5.8768 23.2027 4.92187C23.2819 4.87524 23.3612 4.82862 23.4429 4.78059C26.9454 2.75559 30.8816 1.82089 34.9068 1.83104ZM20.9761 9.02343C20.8654 9.11996 20.7546 9.21649 20.6406 9.31594C19.9992 9.88614 19.4076 10.467 18.8667 11.1328C18.7706 11.2479 18.6746 11.363 18.5756 11.4816C16.651 13.8254 14.0872 17.735 14.1881 20.9026C14.347 21.3548 14.6643 21.6273 15.005 21.9488C15.1119 22.0531 15.1119 22.0531 15.221 22.1595C15.5249 22.4557 15.8315 22.7492 16.138 23.0429C18.2695 25.0929 18.2695 25.0929 18.3321 26.7773C18.3085 28.2025 17.669 29.0208 16.6841 29.978C16.6071 30.0495 16.53 30.1211 16.4506 30.1947C15.8829 30.7251 15.4326 31.2049 15.2847 31.9954C15.2849 32.1642 15.2849 32.1642 15.2852 32.3364C15.2826 32.4487 15.28 32.5609 15.2774 32.6765C15.4723 33.6561 16.2558 34.3538 16.939 35.0319C17.0884 35.1821 17.0884 35.1821 17.2407 35.3354C17.5117 35.6077 17.7835 35.8792 18.0557 36.1502C18.3415 36.4351 18.6264 36.7209 18.9115 37.0065C19.3899 37.4856 19.869 37.9639 20.3486 38.4418C20.9021 38.9933 21.4543 39.5462 22.0059 40.0997C22.4809 40.5763 22.9566 41.0522 23.4328 41.5275C23.7167 41.8108 24.0003 42.0944 24.2833 42.3785C24.5988 42.6949 24.9154 43.0102 25.2324 43.3252C25.3253 43.4189 25.4183 43.5126 25.5141 43.6091C26.1334 44.2213 26.6703 44.6984 27.5825 44.6997C27.685 44.702 27.7874 44.7042 27.8929 44.7066C28.8725 44.5433 29.463 43.947 30.1167 43.2422C30.8423 42.4599 31.5819 41.7791 32.6953 41.6908C34.1573 41.6603 34.9364 41.9531 36.0052 42.9322C36.3363 43.2505 36.6544 43.5788 36.969 43.9133C37.0778 44.0279 37.1867 44.1425 37.2956 44.257C37.4617 44.4319 37.6267 44.6073 37.7891 44.7856C38.3866 45.4857 38.3866 45.4857 39.1818 45.8802C39.4615 45.8549 39.6946 45.7928 39.9605 45.7031C40.0488 45.6816 40.1372 45.6601 40.2282 45.6379C40.5111 45.5686 40.788 45.4879 41.0664 45.4028C41.1676 45.3721 41.2688 45.3413 41.373 45.3096C42.4265 44.978 43.422 44.5462 44.4136 44.0625C44.5275 44.0077 44.5275 44.0077 44.6436 43.9518C46.3513 43.1208 47.894 42.0335 49.2636 40.7194C49.4841 40.5108 49.7028 40.3166 49.937 40.1248C50.3781 39.7558 50.7279 39.3487 51.0933 38.9062C51.1901 38.7904 51.2869 38.6745 51.3867 38.5551C54.1805 35.1491 56.1285 30.6775 56.1562 26.2257C56.1574 26.0924 56.1574 26.0924 56.1587 25.9563C56.1951 23.2697 56.1951 23.2697 55.7808 20.625C55.7575 20.5292 55.7342 20.4335 55.7102 20.3348C54.2405 14.4416 50.679 9.69874 45.4937 6.55293C37.8025 2.01075 27.6305 3.17376 20.9761 9.02343ZM7.26516 20.625C7.34271 20.7023 7.42026 20.7796 7.50016 20.8592C8.22991 21.5866 8.95936 22.3143 9.6885 23.0423C10.0634 23.4165 10.4384 23.7907 10.8137 24.1646C11.1756 24.5253 11.5372 24.8863 11.8987 25.2474C12.0368 25.3853 12.1751 25.5232 12.3135 25.6609C12.5068 25.8534 12.6998 26.0462 12.8926 26.2392C12.9503 26.2964 13.008 26.3536 13.0674 26.4126C13.4308 26.7772 13.5815 26.9436 13.6299 27.4658C13.5933 27.8906 13.5933 27.8906 13.4102 28.1763C12.9837 28.4497 12.8061 28.4646 12.3042 28.3594C12.0472 28.1626 12.0472 28.1626 11.7675 27.903C11.6642 27.8071 11.5608 27.7112 11.4543 27.6124C10.9253 27.1068 10.4059 26.5926 9.88997 26.0738C9.77607 25.9596 9.66214 25.8455 9.54819 25.7315C9.25241 25.4352 8.95698 25.1387 8.66164 24.842C8.35856 24.5377 8.05515 24.2338 7.75176 23.9298C7.15954 23.3363 6.5677 22.7425 5.9761 22.1484C5.50108 22.6008 5.50108 22.6008 5.14434 23.1441C5.10628 23.2184 5.06822 23.2928 5.02901 23.3694C4.99109 23.4474 4.95316 23.5255 4.91408 23.6059C4.87382 23.6876 4.83355 23.7692 4.79206 23.8533C3.64808 26.249 3.46048 29.1296 4.33547 31.6406C5.16293 33.968 6.73296 35.597 8.4459 37.3067C8.62297 37.4842 8.79998 37.6619 8.97696 37.8395C9.4546 38.3187 9.93299 38.7972 10.4116 39.2755C10.8122 39.676 11.2125 40.0768 11.6128 40.4777C12.5575 41.4237 13.5028 42.3691 14.4485 43.3141C15.4219 44.2867 16.3942 45.2605 17.3659 46.2347C18.2027 47.0736 19.0402 47.9117 19.8782 48.7494C20.3776 49.2486 20.8768 49.7481 21.3753 50.2482C21.8441 50.7185 22.3138 51.1879 22.7841 51.6567C22.9558 51.8282 23.1273 51.9999 23.2984 52.172C24.4442 53.3239 25.5743 54.3943 27.0552 55.1074C27.1735 55.1654 27.1735 55.1654 27.2941 55.2246C29.6815 56.3637 32.5352 56.5318 35.0386 55.6641C35.1602 55.623 35.2818 55.5819 35.4071 55.5395C37.2359 54.8493 39.6424 53.2534 40.5464 51.4453C40.59 50.7803 40.57 50.4847 40.1948 49.9219C39.9991 49.705 39.7968 49.4938 39.5904 49.2871C39.5303 49.2266 39.4702 49.1661 39.4084 49.1038C39.2109 48.9053 39.0126 48.7077 38.8142 48.5101C38.6763 48.372 38.5384 48.2339 38.4005 48.0957C38.1121 47.8069 37.8232 47.5186 37.534 47.2305C37.1632 46.861 36.7934 46.4905 36.424 46.1196C36.1397 45.8345 35.8549 45.5499 35.5699 45.2655C35.4333 45.1291 35.2968 44.9924 35.1606 44.8556C34.9704 44.6649 34.7795 44.4749 34.5884 44.2851C34.4799 44.1768 34.3714 44.0685 34.2596 43.9569C33.8472 43.5889 33.4811 43.5522 32.9356 43.5612C32.3734 43.6371 32.0202 44.0118 31.6782 44.4314C31.5883 44.5417 31.4984 44.652 31.4058 44.7656C31.4833 44.8429 31.5609 44.9202 31.6408 44.9998C32.3705 45.7272 33.1 46.4549 33.8291 47.1829C34.204 47.5572 34.579 47.9313 34.9543 48.3053C35.3162 48.6659 35.6779 49.0269 36.0393 49.388C36.1775 49.526 36.3157 49.6638 36.4541 49.8015C36.6474 49.994 36.8404 50.1869 37.0333 50.3798C37.0909 50.437 37.1486 50.4943 37.208 50.5532C37.5715 50.9178 37.7222 51.0842 37.7705 51.6064C37.7339 52.0312 37.7339 52.0312 37.5435 52.3169C37.2652 52.5 37.2652 52.5 36.9429 52.5806C35.9011 52.3602 35.038 51.1084 34.3025 50.3691C34.1778 50.2441 34.053 50.1192 33.9282 49.9943C33.6027 49.6684 33.2776 49.3421 32.9526 49.0158C32.6197 48.6817 32.2865 48.3479 31.9533 48.0141C31.3017 47.3613 30.6505 46.7081 29.9995 46.0547C29.6495 46.1703 29.3018 46.287 28.9572 46.4181C27.8034 46.752 26.4836 46.612 25.4292 46.0547C24.6343 45.488 23.9302 44.8246 23.2426 44.1346C23.1487 44.0413 23.0548 43.948 22.958 43.8519C22.6514 43.5468 22.3456 43.241 22.0399 42.935C21.8253 42.7208 21.6105 42.5066 21.3958 42.2924C20.9474 41.8449 20.4995 41.397 20.0519 40.9488C19.5366 40.4328 19.0203 39.9179 18.5034 39.4035C18.0031 38.9054 17.5037 38.4064 17.0047 37.907C16.7936 37.696 16.5823 37.4853 16.3706 37.2748C16.0745 36.9801 15.7796 36.6844 15.4849 36.3883C15.3983 36.3027 15.3117 36.217 15.2225 36.1287C14.1449 35.0401 13.4487 33.9836 13.4248 32.4243C13.4397 30.9062 13.922 30.0091 14.9995 28.9453C15.0955 28.8506 15.1914 28.7559 15.2902 28.6583C15.4675 28.4833 15.6461 28.3094 15.8263 28.1374C16.2729 27.654 16.4435 27.2845 16.4639 26.6203C16.3152 25.9728 15.785 25.4824 15.33 25.0267C15.2711 24.9674 15.2121 24.908 15.1514 24.8469C14.9584 24.6528 14.7645 24.4596 14.5706 24.2665C14.4355 24.1312 14.3004 23.9959 14.1653 23.8605C13.883 23.5779 13.6004 23.2958 13.3175 23.0139C12.9546 22.6524 12.5929 22.2899 12.2314 21.9271C11.9531 21.6479 11.6742 21.3692 11.3951 21.0908C11.2615 20.9573 11.128 20.8236 10.9947 20.6897C10.8087 20.5032 10.622 20.3174 10.4351 20.1318C10.3291 20.026 10.223 19.9201 10.1137 19.811C9.71597 19.457 9.33944 19.3993 8.81148 19.4041C8.12764 19.5343 7.6586 20.089 7.26516 20.625Z" fill="#506CD7"/>
<path d="M29.5901 13.9101C30.2933 14.4978 30.6486 15.0687 30.9382 15.9375C31.0337 17.0533 30.9535 17.987 30.2694 18.8997C29.9961 19.2137 29.7088 19.5104 29.4148 19.8047C29.3382 19.882 29.2617 19.9594 29.1829 20.0391C28.6383 20.5891 28.0904 21.1357 27.5398 21.6797C27.6184 21.6814 27.6969 21.6831 27.7779 21.6849C28.1356 21.6936 28.4932 21.7049 28.8508 21.7163C28.9745 21.719 29.0981 21.7216 29.2255 21.7243C29.3452 21.7285 29.4649 21.7326 29.5883 21.7369C29.753 21.7415 29.753 21.7415 29.9212 21.7462C30.2913 21.806 30.518 21.9307 30.821 22.1484C31.0049 22.5163 30.9795 22.7975 30.9382 23.2031C30.6979 23.5582 30.5064 23.7585 30.0766 23.8438C29.7278 23.8668 29.3836 23.8703 29.0339 23.8669C28.9061 23.8674 28.7782 23.868 28.6465 23.8686C28.3766 23.869 28.1067 23.8679 27.8369 23.8655C27.424 23.8623 27.0115 23.8654 26.5986 23.8692C26.3362 23.8688 26.0737 23.868 25.8113 23.8669C25.688 23.8681 25.5647 23.8693 25.4376 23.8705C24.8859 23.8616 24.5828 23.8498 24.1175 23.5352C23.8667 23.1396 23.8256 22.9598 23.907 22.5C24.6139 21.2731 25.8944 20.2557 26.8952 19.27C27.1547 19.0138 27.4139 18.7575 27.6728 18.5008C27.8328 18.3423 27.9931 18.184 28.1537 18.0262C28.2253 17.9553 28.297 17.8844 28.3708 17.8113C28.4656 17.718 28.4656 17.718 28.5623 17.6228C28.8709 17.2884 28.8609 16.9716 28.8545 16.5276C28.8071 16.0873 28.6164 15.8165 28.2795 15.542C27.6907 15.3828 27.2077 15.5163 26.6828 15.7837C26.1751 16.2206 26.0281 16.6668 25.9065 17.3071C25.8373 17.6385 25.8017 17.7884 25.5842 18.0542C25.1988 18.2105 24.9047 18.2082 24.4929 18.1641C24.1197 17.9578 24.0437 17.8712 23.907 17.4609C23.8164 16.4464 24.0982 15.5208 24.7493 14.729C26.0297 13.3966 27.9541 12.7964 29.5901 13.9101Z" fill="#506CD7"/>
<path d="M43.3588 14.4141C43.7429 14.636 43.9097 14.7719 44.0443 15.1979C44.0669 15.6975 43.896 16.0224 43.6618 16.4479C43.619 16.5293 43.5763 16.6107 43.5322 16.6945C43.4423 16.8655 43.3517 17.0361 43.2603 17.2063C43.0889 17.5274 42.9236 17.8514 42.7584 18.1758C42.5548 18.5755 42.3487 18.9739 42.143 19.3726C42.0994 19.4569 42.0559 19.5413 42.0111 19.6283C41.2078 21.1853 40.3997 22.7395 39.5689 24.2821C39.4235 24.5523 39.2781 24.8225 39.1327 25.0928C39.0959 25.1612 39.0591 25.2296 39.0211 25.3001C38.3952 26.4643 37.7872 27.6371 37.1845 28.8135C36.607 29.9401 36.0251 31.0635 35.4193 32.1753C35.3648 32.2755 35.3103 32.3757 35.2542 32.479C34.3448 34.1343 34.3448 34.1343 33.8666 34.4531C33.4345 34.5095 33.2149 34.48 32.8265 34.2773C32.5394 33.9395 32.5254 33.7465 32.5383 33.3113C32.6112 32.8194 32.8425 32.4116 33.0756 31.9775C33.1286 31.8752 33.1816 31.7728 33.2363 31.6674C33.6641 30.8473 34.111 30.0373 34.5584 29.2277C35.1509 28.1489 35.7094 27.0532 36.2689 25.957C36.911 24.6994 37.5592 23.4479 38.2446 22.2131C38.9233 20.9813 39.5556 19.7248 40.192 18.4708C40.6633 17.5439 41.1433 16.622 41.6403 15.7086C41.688 15.6192 41.7358 15.5298 41.7849 15.4377C42.1726 14.7337 42.4833 14.289 43.3588 14.4141Z" fill="#506CD7"/>
<path d="M35.9318 13.3521C36.3724 13.4908 36.5201 13.5803 36.7961 13.9453C36.843 14.2592 36.8615 14.5253 36.8586 14.8391C36.8601 14.9732 36.8601 14.9732 36.8617 15.11C36.8643 15.4053 36.8635 15.7004 36.8625 15.9956C36.8631 16.2011 36.8638 16.4066 36.8647 16.6121C36.8659 17.0427 36.8654 17.4733 36.8637 17.9039C36.8616 18.4553 36.8644 19.0066 36.8685 19.5581C36.8711 19.9824 36.8709 20.4068 36.8699 20.8311C36.8699 21.0344 36.8707 21.2377 36.8724 21.441C36.8744 21.7255 36.8727 22.0097 36.8701 22.2942C36.8714 22.3779 36.8728 22.4617 36.8742 22.5479C36.8657 22.9971 36.8052 23.1916 36.5246 23.5492C36.2102 23.7891 36.2102 23.7891 35.7927 23.8477C35.3793 23.7875 35.2075 23.7349 34.9211 23.4375C34.782 23.0203 34.7926 22.683 34.7966 22.2437C34.7976 22.0946 34.7987 21.9455 34.7998 21.7918C34.8012 21.6775 34.8025 21.5631 34.8039 21.4453C34.6934 21.4472 34.5829 21.449 34.469 21.4509C34.0573 21.4569 33.6456 21.4613 33.2339 21.4646C33.056 21.4664 32.8782 21.4688 32.7003 21.4718C32.444 21.4761 32.1878 21.4781 31.9314 21.4796C31.7774 21.4815 31.6234 21.4833 31.4647 21.4852C31.0265 21.4427 30.8132 21.3609 30.468 21.0938C30.1946 20.6836 30.1849 20.5216 30.2336 20.0391C30.3728 19.7749 30.3728 19.7749 30.5852 19.5044C30.6708 19.3929 30.7565 19.2814 30.8447 19.1666C30.8953 19.1022 30.9459 19.0378 30.998 18.9714C31.2752 18.6168 31.5464 18.2577 31.8187 17.8993C31.979 17.6885 32.1396 17.478 32.3006 17.2677C32.7161 16.7249 33.1282 16.1799 33.5336 15.6294C33.6117 15.5237 33.6898 15.4181 33.7703 15.3092C33.9183 15.1084 34.0657 14.9071 34.2123 14.7052C35.2031 13.3646 35.2031 13.3646 35.9318 13.3521ZM34.6867 17.4609C34.489 17.7023 34.2974 17.9455 34.1081 18.1934C34.0547 18.2621 34.0013 18.3308 33.9463 18.4016C33.6827 18.7451 33.4751 19.0638 33.2805 19.4531C33.7832 19.4531 34.2859 19.4531 34.8039 19.4531C34.8039 18.7957 34.8039 18.1383 34.8039 17.4609C34.7652 17.4609 34.7266 17.4609 34.6867 17.4609Z" fill="#506CD7"/>
<path d="M41.0073 24.942C41.1247 24.9409 41.242 24.9398 41.3629 24.9386C41.4896 24.9381 41.6163 24.9376 41.7469 24.9371C41.9426 24.9361 41.9426 24.9361 42.1423 24.9351C42.4186 24.934 42.695 24.9332 42.9713 24.9328C43.3933 24.9316 43.8153 24.928 44.2374 24.9243C44.5058 24.9235 44.7743 24.9229 45.0428 24.9225C45.2318 24.9203 45.2318 24.9203 45.4246 24.9181C46.0706 24.92 46.558 24.9335 47.1096 25.3125C47.2985 25.6904 47.2813 26.0747 47.2268 26.4844C47.0783 26.7838 46.9414 27.0166 46.7484 27.2827C46.6971 27.3572 46.6459 27.4316 46.593 27.5084C46.423 27.7544 46.25 27.9982 46.0769 28.2422C45.9568 28.4147 45.8369 28.5875 45.7172 28.7604C45.5267 29.0354 45.3361 29.3103 45.1446 29.5847C44.6415 30.306 44.149 31.034 43.6603 31.7651C43.5886 31.8723 43.5169 31.9794 43.443 32.0898C43.1593 32.5138 42.8756 32.9379 42.5927 33.3624C42.3954 33.6581 42.1974 33.9531 41.9991 34.248C41.9403 34.3367 41.8814 34.4254 41.8208 34.5168C41.7661 34.5979 41.7114 34.679 41.655 34.7626C41.5841 34.8687 41.5841 34.8687 41.5117 34.9769C41.3674 35.1562 41.3674 35.1562 41.0158 35.3906C40.2068 35.4677 40.2068 35.4677 39.7854 35.2148C39.5903 34.8897 39.5139 34.6393 39.5373 34.2583C39.6271 33.9181 39.7741 33.6988 39.9754 33.4094C40.0603 33.2856 40.1452 33.1618 40.2327 33.0343C40.2818 32.9632 40.331 32.8921 40.3816 32.8189C40.6405 32.4422 40.8948 32.0623 41.1496 31.6827C41.4493 31.2364 41.7499 30.7907 42.0505 30.3449C42.2846 29.9976 42.5185 29.6502 42.7524 29.3028C42.9018 29.0811 43.0513 28.8594 43.2008 28.6377C43.2703 28.5343 43.3399 28.4309 43.4116 28.3244C43.4766 28.2281 43.5416 28.1318 43.6085 28.0325C43.6653 27.9483 43.7221 27.864 43.7805 27.7773C43.947 27.5369 44.1202 27.303 44.2971 27.0703C44.1718 27.0692 44.0464 27.0681 43.9173 27.067C43.4516 27.0623 42.986 27.0546 42.5204 27.046C42.319 27.0427 42.1176 27.0402 41.9162 27.0385C41.6263 27.036 41.3367 27.0306 41.047 27.0245C40.9571 27.0244 40.8673 27.0242 40.7747 27.0241C40.3575 27.0127 40.1224 26.9871 39.7873 26.7289C39.5408 26.3897 39.5429 26.1767 39.5634 25.7698C39.6347 25.426 39.7984 25.278 40.0783 25.0781C40.4222 24.9635 40.6488 24.9448 41.0073 24.942Z" fill="#506CD7"/>
</svg>
