<svg width="30" height="30" viewBox="0 0 30 30" fill="none" xmlns="http://www.w3.org/2000/svg">
<path d="M17.4371 0.757128C17.5001 0.792377 17.5631 0.827626 17.628 0.863944C17.7286 0.921307 17.7286 0.921307 17.8312 0.97983C17.9019 1.01968 17.9727 1.05949 18.0434 1.09926C18.5595 1.39019 19.0711 1.68863 19.5815 1.98933C20.0388 2.25779 20.5025 2.51318 20.971 2.76149C21.5364 3.06403 21.5364 3.06403 21.6764 3.2247C21.7757 3.69352 21.5139 4.04904 21.2846 4.44419C21.2479 4.51046 21.2113 4.57674 21.1735 4.64503C20.8593 5.19736 20.8593 5.19736 20.5632 5.33408C20.372 5.31879 20.2174 5.27743 20.0358 5.21689C19.9293 5.39862 19.8232 5.58056 19.7172 5.76254C19.687 5.81417 19.6567 5.8658 19.6255 5.91899C19.5822 5.99348 19.5822 5.99348 19.538 6.06948C19.498 6.13806 19.498 6.13806 19.4571 6.20802C19.3839 6.33542 19.3839 6.33542 19.3327 6.50595C19.3726 6.52045 19.4124 6.53496 19.4535 6.5499C19.9632 6.76679 19.9632 6.76679 20.1237 6.96738C20.1943 7.26735 20.0713 7.51257 19.9179 7.76435C19.8832 7.82296 19.8485 7.88157 19.8128 7.94196C19.7389 8.06436 19.6648 8.18658 19.5903 8.30863C19.5558 8.36709 19.5213 8.42555 19.4858 8.48578C19.4537 8.53877 19.4215 8.59177 19.3884 8.64637C19.3167 8.78731 19.3167 8.78731 19.3741 8.91807C19.6205 9.26741 19.8707 9.38539 20.2629 9.51254C22.2648 10.2094 23.753 11.6533 24.6757 13.5482C24.9138 14.0546 25.0647 14.5757 25.1921 15.1192C25.2127 15.2036 25.2127 15.2036 25.2337 15.2898C25.6501 17.2419 25.1611 19.2978 24.1374 20.9786C23.9597 21.2474 23.7596 21.4947 23.5514 21.7403C23.5141 21.785 23.5141 21.785 23.476 21.8307C22.5914 22.8807 21.3267 23.7783 19.9772 24.0841C19.9959 24.1337 19.9959 24.1337 20.0149 24.1844C20.0709 24.334 20.1266 24.4837 20.1823 24.6334C20.2019 24.6855 20.2214 24.7376 20.2416 24.7913C20.2601 24.8412 20.2786 24.891 20.2977 24.9424C20.3234 25.0114 20.3234 25.0114 20.3497 25.0819C20.3874 25.1974 20.3874 25.1974 20.3874 25.3145C20.4568 25.3133 20.5263 25.3121 20.5979 25.3108C20.8561 25.3066 21.1144 25.3039 21.3726 25.3017C21.4843 25.3005 21.596 25.2989 21.7077 25.2969C21.8684 25.294 22.0291 25.2927 22.1898 25.2917C22.2396 25.2904 22.2893 25.2892 22.3406 25.288C22.3875 25.288 22.4344 25.288 22.4827 25.2879C22.5237 25.2874 22.5647 25.2869 22.6069 25.2864C22.7946 25.3289 22.8908 25.4122 23.0241 25.5489C23.0613 25.7068 23.0613 25.7068 23.062 25.8892C23.0629 25.9576 23.0639 26.026 23.0648 26.0965C23.0639 26.2071 23.0639 26.2071 23.063 26.3198C23.0633 26.3956 23.0636 26.4715 23.0639 26.5496C23.0643 26.71 23.0637 26.8704 23.0623 27.0307C23.0606 27.2361 23.0616 27.4413 23.0633 27.6466C23.0647 27.8428 23.0637 28.0389 23.063 28.2351C23.0636 28.3088 23.0642 28.3824 23.0648 28.4583C23.0639 28.5268 23.063 28.5952 23.062 28.6657C23.0618 28.7259 23.0615 28.7861 23.0613 28.8481C23.0241 29.006 23.0241 29.006 22.9195 29.1312C22.6295 29.2992 22.353 29.2722 22.0235 29.2693C21.9509 29.2696 21.8783 29.2699 21.8035 29.2702C21.6022 29.2707 21.4009 29.2702 21.1996 29.2693C20.9824 29.2685 20.7653 29.2691 20.5481 29.2695C20.1228 29.2701 19.6974 29.2694 19.2721 29.2683C18.7769 29.2671 18.2818 29.2671 17.7866 29.2672C16.9033 29.2672 16.02 29.2661 15.1366 29.2644C14.2791 29.2628 13.4216 29.262 12.5641 29.262C12.5113 29.262 12.4585 29.2621 12.404 29.2621C12.3513 29.2621 12.2986 29.2621 12.2442 29.2621C11.2685 29.2622 10.2927 29.2615 9.31692 29.2604C8.97161 29.2601 8.6263 29.2599 8.281 29.2599C7.86034 29.2598 7.43969 29.2593 7.01904 29.2582C6.80433 29.2577 6.58964 29.2573 6.37493 29.2575C6.14243 29.2576 5.90994 29.2569 5.67744 29.256C5.57515 29.2563 5.57514 29.2563 5.47078 29.2565C5.40865 29.2562 5.34652 29.2558 5.28251 29.2554C5.22883 29.2553 5.17514 29.2552 5.11983 29.2552C4.96629 29.2392 4.87224 29.2064 4.74285 29.1231C4.63296 28.9192 4.61089 28.7459 4.61049 28.5165C4.61012 28.4553 4.60976 28.3941 4.60938 28.331C4.60961 28.2655 4.60985 28.2 4.61009 28.1325C4.60998 28.0647 4.60987 27.9969 4.60975 27.927C4.60967 27.7838 4.60989 27.6406 4.61038 27.4974C4.61101 27.2782 4.61039 27.0592 4.60964 26.84C4.60971 26.7008 4.60986 26.5616 4.61009 26.4223C4.60986 26.3568 4.60962 26.2913 4.60938 26.2239C4.60974 26.1627 4.61011 26.1014 4.61049 26.0384C4.61059 25.9848 4.61068 25.9311 4.61078 25.8759C4.62764 25.7045 4.66111 25.5835 4.74285 25.4317C4.92324 25.316 5.0671 25.2995 5.27901 25.2982C5.37046 25.2972 5.37046 25.2972 5.46375 25.2962C5.5303 25.2961 5.59685 25.296 5.66541 25.2959C5.73574 25.2953 5.80607 25.2947 5.87853 25.2941C6.07112 25.2926 6.2637 25.2916 6.45629 25.2908C6.65766 25.2899 6.85903 25.2883 7.06039 25.2868C7.44159 25.2841 7.82278 25.282 8.20399 25.28C8.63802 25.2778 9.07205 25.2749 9.50608 25.2719C10.3988 25.2659 11.2915 25.2607 12.1843 25.256C12.3969 24.6565 12.6096 24.0571 12.8288 23.4395C12.527 23.4409 12.2251 23.4423 11.9142 23.4437C11.723 23.4443 11.5318 23.4448 11.3406 23.4453C11.0371 23.446 10.7336 23.4468 10.4302 23.4484C10.1855 23.4497 9.94083 23.4504 9.69616 23.4507C9.60281 23.4509 9.50946 23.4513 9.41611 23.4519C9.28537 23.4528 9.15465 23.4529 9.02391 23.4529C8.94948 23.4531 8.87506 23.4534 8.79838 23.4536C8.6201 23.4403 8.52272 23.4203 8.37566 23.3224C8.22265 23.1177 8.24053 22.8848 8.24085 22.6396C8.24047 22.5748 8.24047 22.5748 8.24009 22.5087C8.23975 22.4176 8.23972 22.3264 8.23997 22.2352C8.24016 22.0962 8.23878 21.9573 8.2373 21.8183C8.23717 21.7295 8.23712 21.6407 8.23718 21.552C8.23664 21.5106 8.23611 21.4693 8.23555 21.4267C8.23795 21.1699 8.27658 21.0071 8.43425 20.8028C8.60515 20.7174 8.75522 20.7363 8.94616 20.7356C8.98721 20.7354 9.02826 20.7352 9.07055 20.735C9.20878 20.7343 9.347 20.7341 9.48523 20.7339C9.58407 20.7335 9.6829 20.7331 9.78173 20.7327C10.0507 20.7317 10.3197 20.7311 10.5887 20.7306C10.7567 20.7303 10.9247 20.7299 11.0927 20.7295C11.618 20.7284 12.1433 20.7276 12.6686 20.7271C13.2755 20.7265 13.8823 20.725 14.4892 20.7226C14.9579 20.7209 15.4267 20.72 15.8954 20.7198C16.1755 20.7197 16.4556 20.7191 16.7357 20.7177C16.9993 20.7163 17.2627 20.7161 17.5262 20.7167C17.623 20.7167 17.7197 20.7163 17.8164 20.7155C17.9485 20.7145 18.0805 20.7149 18.2125 20.7157C18.2864 20.7155 18.3603 20.7154 18.4364 20.7152C18.6657 20.7497 18.7613 20.8147 18.9225 20.9786C18.9994 21.169 18.9994 21.169 19.0397 21.3302C19.9333 21.221 20.8107 20.521 21.3764 19.8537C22.2313 18.7248 22.6109 17.393 22.4196 15.9782C22.1894 14.7382 21.5273 13.5735 20.4826 12.8451C19.8924 12.4186 19.8924 12.4186 19.2137 12.2596C19.0402 12.3066 18.9006 12.3673 18.7431 12.4532C18.4274 12.6248 18.1671 12.6665 17.8093 12.6656C17.75 12.6658 17.6908 12.6659 17.6298 12.6661C17.4681 12.6588 17.3226 12.6332 17.1647 12.5997C17.1442 12.6367 17.1236 12.6737 17.1024 12.7119C16.6168 13.5852 16.1244 14.4539 15.6163 15.3144C15.5526 15.4225 15.4893 15.5308 15.4264 15.6393C15.3796 15.7191 15.3796 15.7191 15.3318 15.8006C15.304 15.8485 15.2762 15.8963 15.2475 15.9456C15.1725 16.0567 15.1725 16.0567 15.0553 16.1153C14.7258 16.1536 14.5654 16.0482 14.2936 15.881C14.255 15.881 14.2163 15.881 14.1764 15.881C14.154 15.9213 14.1316 15.9617 14.1086 16.0033C13.3559 17.3589 13.3559 17.3589 13.0815 17.8109C13.0304 17.8951 13.0304 17.8951 12.9782 17.9809C12.8874 18.1075 12.8874 18.1075 12.7116 18.2247C12.2933 18.2275 11.9725 18.0014 11.6203 17.7962C11.5559 17.7594 11.4914 17.7226 11.4251 17.6846C11.2926 17.6088 11.1603 17.5327 11.0282 17.4563C10.8518 17.3546 10.675 17.2538 10.4979 17.1535C10.1998 16.9847 9.90266 16.8142 9.60613 16.6427C9.56118 16.6167 9.51623 16.5908 9.46991 16.5641C9.34534 16.4919 9.22115 16.4191 9.09709 16.346C9.06087 16.3251 9.02464 16.3041 8.98732 16.2825C8.81392 16.1792 8.72428 16.1109 8.61003 15.9395C8.6037 15.5094 8.85054 15.1694 9.06047 14.808C9.09639 14.7448 9.1323 14.6817 9.16931 14.6167C9.36652 14.2714 9.56887 13.9299 9.77866 13.5921C9.84985 13.483 9.84985 13.483 9.8405 13.3614C9.7242 13.2703 9.7242 13.2703 9.58049 13.182C9.31596 13.0127 9.31596 13.0127 9.25456 12.9513C9.19511 12.4951 9.37223 12.2282 9.60979 11.849C9.68571 11.7236 9.76147 11.5981 9.83707 11.4725C9.87643 11.4075 9.91579 11.3425 9.95634 11.2755C10.1502 10.9497 10.332 10.6175 10.5143 10.2852C10.7945 9.777 11.0806 9.27297 11.3749 8.7728C11.6333 8.33378 11.8839 7.89182 12.1257 7.44345C12.4007 6.93345 12.6883 6.43205 12.9825 5.93292C13.1676 5.61818 13.3493 5.30192 13.5257 4.98229C13.5629 4.91501 13.6001 4.84774 13.6385 4.77842C13.7102 4.64831 13.7815 4.51799 13.8524 4.38747C13.8847 4.32899 13.9169 4.27052 13.9501 4.21027C13.9783 4.15846 14.0065 4.10666 14.0356 4.05328C14.1178 3.92783 14.1178 3.92783 14.2936 3.81064C14.5791 3.77901 14.7444 3.84301 14.9894 3.98642C15.0461 4.01905 15.1027 4.05168 15.1611 4.0853C15.2035 4.11068 15.246 4.13606 15.2897 4.1622C15.311 4.1267 15.3323 4.0912 15.3543 4.05463C15.3837 4.00553 15.4132 3.95644 15.4435 3.90586C15.4753 3.85283 15.507 3.79981 15.5397 3.74518C15.6069 3.63347 15.6746 3.52207 15.7429 3.41101C15.7905 3.33329 15.7905 3.33329 15.839 3.254C15.8685 3.20626 15.898 3.15853 15.9283 3.10935C16.0022 2.99572 16.0022 2.99572 15.9928 2.87314C15.8959 2.81345 15.7982 2.75489 15.6999 2.69736C15.6097 2.51692 15.6276 2.36967 15.6413 2.17002C15.7182 1.98547 15.7182 1.98547 15.8253 1.80083C15.8639 1.73395 15.9025 1.66706 15.9423 1.59815C15.9626 1.56399 15.983 1.52983 16.0039 1.49463C16.0662 1.38985 16.1267 1.28422 16.1872 1.17838C16.545 0.566589 16.7689 0.380292 17.4371 0.757128ZM16.9889 1.58408C16.9365 1.66637 16.8855 1.74956 16.8351 1.8331C16.8066 1.87933 16.778 1.92555 16.7486 1.97318C16.6807 2.10723 16.6807 2.10723 16.7356 2.22775C16.8298 2.37108 16.9118 2.41875 17.0633 2.49777C17.1148 2.52513 17.1663 2.55249 17.2193 2.58067C17.3029 2.62393 17.3029 2.62393 17.3881 2.66806C17.5059 2.73059 17.6236 2.79323 17.7413 2.85597C17.8014 2.8879 17.8615 2.91982 17.9234 2.95271C18.1983 3.10064 18.469 3.25564 18.7394 3.41147C18.8402 3.46939 18.941 3.5273 19.0418 3.58519C19.0901 3.61298 19.1385 3.64076 19.1883 3.66939C19.5476 3.87506 19.909 4.07708 20.2702 4.27939C20.4435 4.07622 20.5678 3.87693 20.6803 3.63486C20.6517 3.61847 20.623 3.60208 20.5934 3.58519C20.5523 3.5617 20.5112 3.53821 20.4689 3.51401C20.4218 3.4871 20.3747 3.46018 20.3261 3.43246C20.2187 3.37105 20.1112 3.30965 20.0038 3.24823C19.7143 3.08281 19.4249 2.91743 19.1353 2.75219C18.9912 2.66994 18.8471 2.58767 18.703 2.5054C18.6331 2.46552 18.5633 2.42566 18.4934 2.38581C18.3934 2.32879 18.2935 2.27172 18.1935 2.21465C18.1299 2.17835 18.0663 2.14204 18.0008 2.10464C17.7469 1.9583 17.4951 1.80849 17.2437 1.65796C17.1149 1.57484 17.1149 1.57484 16.9889 1.58408ZM16.8132 3.34189C16.6956 3.54429 16.5785 3.74701 16.4616 3.9498C16.4281 4.00751 16.3945 4.06521 16.36 4.12467C16.3282 4.1798 16.2965 4.23494 16.2638 4.29175C16.2197 4.36815 16.2197 4.36815 16.1746 4.4461C16.1011 4.56612 16.1011 4.56612 16.11 4.68955C16.1764 4.72626 16.1764 4.72626 16.2441 4.76372C16.4119 4.85659 16.5796 4.94954 16.7473 5.04253C16.8192 5.08238 16.8912 5.12221 16.9631 5.162C17.0679 5.21997 17.1726 5.27804 17.2773 5.33614C17.3119 5.35529 17.3465 5.37444 17.3821 5.39417C17.5545 5.49012 17.7256 5.5877 17.895 5.68905C17.9576 5.72652 18.0203 5.76399 18.0848 5.8026C18.1684 5.85341 18.1684 5.85341 18.2536 5.90524C18.3946 5.99209 18.3946 5.99209 18.571 5.97861C18.803 5.57255 19.035 5.1665 19.2741 4.74814C19.053 4.57129 18.8671 4.44228 18.6229 4.30892C18.5725 4.28119 18.5725 4.28119 18.5211 4.25291C18.4146 4.19433 18.3079 4.13613 18.2011 4.07797C17.4128 3.64717 17.4128 3.64717 17.1219 3.46068C16.9513 3.3316 16.9513 3.3316 16.8132 3.34189ZM14.6452 4.86533C14.3715 5.20156 14.1739 5.60097 13.9714 5.98227C13.7202 6.44916 13.4604 6.90975 13.1913 7.36655C12.8969 7.8667 12.611 8.37082 12.3307 8.879C12.0504 9.38718 11.7645 9.89126 11.4701 10.3915C11.1975 10.8555 10.9307 11.3222 10.6718 11.794C10.6419 11.8481 10.612 11.9022 10.5812 11.958C10.5539 12.0081 10.5267 12.0582 10.4985 12.1099C10.4746 12.1537 10.4507 12.1975 10.426 12.2427C10.3697 12.3615 10.336 12.4713 10.3093 12.5997C10.3523 12.6243 10.3523 12.6243 10.3962 12.6494C10.4852 12.7002 10.5742 12.7511 10.6633 12.802C10.7713 12.8638 10.8794 12.9255 10.9875 12.9872C11.3035 13.1678 11.6194 13.3485 11.9352 13.5294C12.3499 13.767 12.7649 14.004 13.1803 14.2403C13.2156 14.2604 13.2509 14.2805 13.2873 14.3012C13.5273 14.4376 13.7675 14.5735 14.008 14.7091C14.0705 14.7446 14.133 14.7801 14.1974 14.8166C14.2547 14.8488 14.312 14.881 14.371 14.9142C14.4465 14.9568 14.4465 14.9568 14.5235 15.0002C14.64 15.0693 14.64 15.0693 14.7624 15.0606C14.7853 15.0192 14.8083 14.9777 14.8319 14.9349C14.9205 14.7748 15.0092 14.6147 15.098 14.4546C15.1378 14.3827 15.1777 14.3108 15.2175 14.2388C15.4272 13.8595 15.6382 13.4813 15.8583 13.1078C15.891 13.052 15.9237 12.9962 15.9574 12.9387C16.019 12.8341 16.0812 12.7299 16.1441 12.6261C16.1715 12.5794 16.199 12.5327 16.2272 12.4846C16.2514 12.4443 16.2756 12.4041 16.3005 12.3626C16.3551 12.2202 16.3388 12.1547 16.2858 12.0138C16.2326 11.9276 16.1762 11.8435 16.1174 11.7611C15.7678 11.2498 15.614 10.7194 15.7289 10.0992C15.8782 9.48943 16.1622 9.03675 16.696 8.69223C17.2918 8.33631 17.8392 8.3554 18.5124 8.43955C18.7057 8.0915 18.8991 7.74345 19.0983 7.38486C18.9117 7.24489 18.7353 7.13049 18.5337 7.01567C18.435 6.95938 18.435 6.95938 18.3344 6.90195C18.2631 6.8615 18.1918 6.82105 18.1205 6.78061C18.0468 6.73865 17.9732 6.69668 17.8995 6.6547C17.3577 6.34635 16.8138 6.0417 16.2692 5.73841C15.8594 5.50966 15.4535 5.27515 15.0522 5.03187C14.8622 4.9071 14.8622 4.9071 14.6452 4.86533ZM16.8461 9.62607C16.5965 9.95703 16.469 10.3081 16.5202 10.7247C16.656 11.2038 16.943 11.4925 17.3625 11.7464C17.8015 11.8405 18.1591 11.8037 18.5552 11.586C18.8269 11.3825 18.9921 11.1019 19.0983 10.7833C19.1417 10.3828 19.1074 10.057 18.8639 9.72861C18.5638 9.4048 18.2969 9.23049 17.8532 9.17929C17.4658 9.21804 17.1149 9.33392 16.8461 9.62607ZM19.9772 10.3731C19.9192 10.7212 19.8612 11.0692 19.8014 11.4278C19.8701 11.464 19.9388 11.5002 20.0095 11.5375C20.5539 11.829 21.0452 12.12 21.5007 12.5411C21.5461 12.5818 21.5914 12.6225 21.6382 12.6645C22.6422 13.6099 23.287 15.0251 23.329 16.4044C23.3516 17.9904 22.9396 19.4377 21.8522 20.627C21.8077 20.677 21.7632 20.7269 21.7174 20.7783C21.1229 21.4117 20.2001 22.0365 19.3327 22.2091C19.4258 22.5744 19.5246 22.9217 19.6843 23.2638C21.3528 22.804 22.7169 21.6324 23.5778 20.1498C24.1132 19.1942 24.4352 18.1512 24.4889 17.0528C24.4914 17.0083 24.4938 16.9637 24.4963 16.9178C24.5388 15.3399 24.0008 13.6797 22.9655 12.4825C22.9207 12.4304 22.8759 12.3783 22.8298 12.3246C22.7017 12.1794 22.5706 12.0377 22.4382 11.8966C22.408 11.862 22.3779 11.8274 22.3468 11.7917C21.7502 11.1378 20.9035 10.7022 20.0944 10.3731C20.0557 10.3731 20.0171 10.3731 19.9772 10.3731ZM10.6608 13.8302C10.5687 13.9581 10.5687 13.9581 10.4761 14.1234C10.4403 14.185 10.4044 14.2466 10.3675 14.31C10.3302 14.3752 10.2928 14.4405 10.2543 14.5077C10.2172 14.5713 10.1801 14.6349 10.1418 14.7005C9.96306 15.0097 9.79424 15.3135 9.66472 15.6466C10.5601 16.16 11.4557 16.6724 12.36 17.17C12.531 16.9661 12.6679 16.7606 12.7967 16.528C12.833 16.4629 12.8692 16.3977 12.9066 16.3306C12.9438 16.2632 12.9809 16.1958 13.0192 16.1263C13.0576 16.0571 13.0961 15.9878 13.1346 15.9186C13.2282 15.7499 13.3216 15.5811 13.4147 15.4122C13.2731 15.2543 13.1217 15.1622 12.9364 15.0604C12.8759 15.0269 12.8154 14.9934 12.753 14.9589C12.6886 14.9236 12.6242 14.8883 12.5578 14.8519C12.0564 14.5747 11.5581 14.294 11.0682 13.9969C10.878 13.872 10.878 13.872 10.6608 13.8302ZM9.13738 21.6231C9.13738 21.9325 9.13738 22.2419 9.13738 22.5606C10.4716 22.5606 11.8057 22.5606 13.1803 22.5606C13.277 22.2513 13.3737 21.9419 13.4733 21.6231C12.0425 21.6231 10.6116 21.6231 9.13738 21.6231ZM14.4108 21.6231C14.2242 22.0867 14.2242 22.0867 14.053 22.5544C14.0319 22.6151 14.0108 22.6759 13.9891 22.7385C13.9672 22.8019 13.9454 22.8654 13.9228 22.9307C13.8998 22.9974 13.8767 23.0641 13.8529 23.1327C13.8046 23.2724 13.7563 23.4121 13.7081 23.5518C13.634 23.7667 13.5596 23.9815 13.4852 24.1963C13.4382 24.3323 13.3912 24.4683 13.3442 24.6043C13.3219 24.6688 13.2996 24.7333 13.2765 24.7998C13.2562 24.8589 13.2358 24.918 13.2148 24.9789C13.1968 25.0311 13.1788 25.0834 13.1602 25.1372C13.1187 25.2444 13.1187 25.2444 13.1218 25.3145C15.21 25.3145 17.2983 25.3145 19.4499 25.3145C19.3147 24.8107 19.3147 24.8107 19.1573 24.3172C19.1359 24.2554 19.1145 24.1936 19.0925 24.1299C19.0597 24.0362 19.0597 24.0362 19.0262 23.9406C19.0057 23.8813 18.9851 23.8221 18.9639 23.761C18.8881 23.5427 18.8119 23.3245 18.7358 23.1063C18.4802 22.3721 18.4802 22.3721 18.2194 21.6231C16.9626 21.6231 15.7057 21.6231 14.4108 21.6231ZM5.50456 26.1935C5.50456 26.9089 5.50456 27.6243 5.50456 28.3614C11.0153 28.3614 16.526 28.3614 22.2038 28.3614C22.2038 27.646 22.2038 26.9306 22.2038 26.1935C16.693 26.1935 11.1823 26.1935 5.50456 26.1935Z" fill="white"/>
</svg>
