<svg width="30" height="30" viewBox="0 0 30 30" fill="none" xmlns="http://www.w3.org/2000/svg">
<g clip-path="url(#clip0_206_380)">
<path d="M7.85142 -2.04518e-06C8.18563 0.121339 8.38789 0.331205 8.55455 0.644529C8.65775 0.902534 8.65718 1.206 8.57515 1.46988C8.43952 1.77242 8.2435 1.98364 7.96861 2.16797C7.80121 2.22377 7.68532 2.23799 7.51085 2.24121C7.46213 2.24272 7.41341 2.24423 7.36322 2.24579C7.20689 2.22656 7.20689 2.22656 7.04461 2.13226C6.78109 2.01882 6.60694 2.07132 6.33531 2.13867C6.28651 2.14997 6.23771 2.16127 6.18744 2.17292C4.71965 2.49976 4.71965 2.49976 3.63267 3.45703C2.81921 5.32112 3.40767 7.74071 4.10142 9.55078C4.53845 10.6607 5.05916 11.7313 5.76654 12.6952C5.85923 12.832 5.85923 12.832 5.85923 12.9492C5.91022 12.9568 5.91022 12.9568 5.96223 12.9646C6.4122 13.0455 6.63889 13.2409 6.92857 13.5791C7.75114 14.5343 8.86815 15.2314 10.1366 15.3516C11.4263 15.399 12.4751 14.7307 13.3963 13.8998C13.5681 13.7396 13.721 13.5689 13.8719 13.3887C14.0494 13.1792 14.1814 13.0879 14.4396 12.9968C14.912 12.8084 15.1082 12.3742 15.3514 11.9531C15.3965 11.8782 15.4415 11.8032 15.4867 11.7284C16.5508 9.93143 17.2935 7.79027 17.2991 5.6919C17.2997 5.56448 17.3015 5.43712 17.3033 5.30971C17.3093 4.52602 17.2447 3.73717 16.724 3.11188C16.058 2.44732 14.6795 2.13936 13.7694 2.05078C13.7162 2.07857 13.663 2.10637 13.6083 2.13501C13.3455 2.26133 13.1188 2.26072 12.8319 2.22656C12.4807 2.10066 12.2619 1.89153 12.0812 1.56738C11.9683 1.21113 11.9529 0.912186 12.1105 0.567625C12.2654 0.292228 12.4824 0.119591 12.7733 -2.04518e-06C13.1155 -0.0380234 13.4297 -0.0498807 13.7438 0.0988749C13.8866 0.234373 13.8866 0.234373 13.9912 0.382231C14.1465 0.555953 14.2408 0.585718 14.4652 0.640867C14.5378 0.659825 14.6104 0.678784 14.6851 0.698316C14.7705 0.719549 14.8559 0.740674 14.9413 0.761717C16.1723 1.06692 17.4618 1.40297 18.1937 2.53578C19.215 4.39923 18.9034 6.88872 18.3397 8.84765C18.0872 9.69545 17.7845 10.5111 17.4022 11.3086C17.3838 11.3478 17.3654 11.387 17.3464 11.4274C16.9838 12.1981 16.561 12.9462 16.0472 13.6267C15.8867 13.8472 15.8347 14.0123 15.8415 14.285C15.7869 14.6156 15.4995 14.8756 15.2782 15.1135C15.2496 15.1443 15.2211 15.1751 15.1916 15.2069C14.9651 15.4485 14.7308 15.6712 14.4725 15.8789C14.418 15.9239 14.3634 15.9689 14.3073 16.0153C13.4172 16.7358 12.1974 17.4813 11.0155 17.4609C11.0205 18.1064 11.026 18.7518 11.0323 19.3972C11.0352 19.697 11.038 19.9968 11.0402 20.2966C11.0424 20.5869 11.0451 20.8772 11.0482 21.1674C11.0493 21.2772 11.0501 21.387 11.0508 21.4968C11.0545 22.0537 11.0698 22.6056 11.1264 23.1599C11.1308 23.204 11.1353 23.2481 11.1399 23.2936C11.3105 24.805 12.1488 26.2119 13.3006 27.1875C14.553 28.1698 16.1827 28.6898 17.7735 28.5079C19.4316 28.2924 20.9211 27.5554 21.9707 26.2205C22.0734 26.0765 22.1704 25.9303 22.2655 25.7812C22.2955 25.7363 22.3255 25.6914 22.3564 25.6451C23.3727 24.0562 23.2809 22.1924 23.2968 20.3824C23.2992 20.125 23.3021 19.8677 23.3051 19.6104C23.3107 19.1087 23.3156 18.6071 23.3202 18.1055C23.21 18.0927 23.21 18.0927 23.0977 18.0796C22.2091 17.9765 21.3933 17.4004 20.8006 16.7578C20.0567 15.8108 19.7047 14.682 19.8412 13.4802C19.9877 12.3737 20.5513 11.3629 21.4342 10.675C22.4317 9.9706 23.5304 9.6937 24.7413 9.86211C25.6536 10.024 26.4398 10.454 27.0702 11.1328C27.1056 11.1679 27.141 11.2031 27.1775 11.2392C27.9545 12.0459 28.2196 13.0916 28.2072 14.184C28.1949 14.5926 28.1487 14.9656 28.0077 15.3516C27.9877 15.4095 27.9678 15.4674 27.9472 15.5271C27.7798 15.9711 27.54 16.3292 27.246 16.6992C27.1892 16.7738 27.1892 16.7738 27.1313 16.8498C26.575 17.5114 25.7796 17.8878 24.9608 18.1055C24.8835 18.1055 24.8061 18.1055 24.7264 18.1055C24.727 18.1979 24.727 18.1979 24.7276 18.2923C24.7312 18.8775 24.7338 19.4626 24.7355 20.0478C24.7364 20.3486 24.7377 20.6493 24.7397 20.95C24.7416 21.241 24.7427 21.5321 24.7431 21.8231C24.7434 21.9333 24.744 22.0435 24.745 22.1537C24.762 24.1875 24.15 25.9115 22.8514 27.4805C22.8257 27.5135 22.7999 27.5465 22.7734 27.5805C22.5727 27.8349 22.3385 28.037 22.0897 28.2422C22.0381 28.2863 21.9865 28.3304 21.9334 28.3758C21.0874 29.0675 20.0945 29.5395 19.0428 29.8242C18.9742 29.844 18.9055 29.8638 18.8348 29.8842C17.7609 30.14 16.3516 30.1312 15.2928 29.8242C15.2312 29.8067 15.2312 29.8067 15.1683 29.7889C13.1773 29.2139 11.5512 27.9337 10.5036 26.1502C9.77015 24.8168 9.59035 23.461 9.59779 21.9642C9.59801 21.8339 9.59818 21.7036 9.59829 21.5733C9.59874 21.2328 9.59989 20.8923 9.60119 20.5518C9.60239 20.2034 9.60292 19.855 9.60351 19.5066C9.60476 18.8247 9.60676 18.1428 9.60923 17.4609C9.56484 17.4572 9.52044 17.4534 9.4747 17.4495C9.41654 17.4445 9.35838 17.4394 9.29846 17.4342C9.24077 17.4292 9.18308 17.4242 9.12364 17.4191C7.82105 17.2816 6.55104 16.264 5.62486 15.4102C5.57131 15.3608 5.51776 15.3115 5.46258 15.2607C4.79999 14.6245 4.79999 14.6245 4.78967 14.1685C4.75788 13.8337 4.59594 13.6261 4.39805 13.363C4.01994 12.8352 3.69536 12.2957 3.3983 11.7187C3.37597 11.6756 3.35364 11.6325 3.33063 11.588C2.706 10.3662 2.28272 9.07317 1.99205 7.73437C1.97641 7.66686 1.97641 7.66686 1.96046 7.59799C1.80972 6.93388 1.79842 6.26645 1.79429 5.58838C1.79382 5.54542 1.79335 5.50247 1.79287 5.45822C1.78223 4.17893 1.98853 2.96184 2.86821 1.98189C3.60514 1.2576 4.65678 1.01424 5.62486 0.761717C5.68864 0.744996 5.75243 0.728275 5.81815 0.711048C6.30513 0.585935 6.30513 0.585935 6.50377 0.585935C6.51585 0.553306 6.52794 0.520677 6.54039 0.487058C6.84251 -0.021067 7.30782 -0.0559519 7.85142 -2.04518e-06ZM22.0215 12.1328C21.5262 12.6513 21.2791 13.2893 21.2547 14.0039C21.2845 14.7914 21.6176 15.5569 22.1982 16.097C22.8503 16.5897 23.5752 16.8213 24.3881 16.7457C25.0993 16.6403 25.7458 16.2632 26.1913 15.7031C26.6516 15.0593 26.8493 14.3757 26.7369 13.5864C26.588 12.8221 26.1741 12.18 25.5467 11.7187C25.3569 11.6059 25.1639 11.5121 24.9608 11.4258C24.9052 11.4016 24.8496 11.3774 24.7923 11.3525C23.7328 11.0982 22.7981 11.3913 22.0215 12.1328Z" fill="white"/>
<path d="M25.2688 12.2839C25.7317 12.6759 26.0808 13.1478 26.1326 13.7695C26.1786 14.3628 26.022 14.8761 25.6638 15.3516C25.5247 15.509 25.5247 15.509 25.3709 15.6445C25.3278 15.6825 25.3278 15.6825 25.2839 15.7212C24.8276 16.0873 24.2414 16.1713 23.6717 16.1133C23.1371 16.029 22.6859 15.7453 22.3286 15.3415C21.9768 14.8504 21.8514 14.309 21.9138 13.7109C22.0276 13.1156 22.324 12.6299 22.7927 12.2461C23.5205 11.7594 24.5592 11.767 25.2688 12.2839Z" fill="white"/>
</g>
<defs>
<clipPath id="clip0_206_380">
<rect width="30" height="30" fill="white"/>
</clipPath>
</defs>
</svg>
