<svg width="60" height="60" viewBox="0 0 60 60" fill="none" xmlns="http://www.w3.org/2000/svg">
<g clip-path="url(#clip0_289_777)">
<path d="M29.9262 -0.0293055C30.0158 -0.0294235 30.1054 -0.0295415 30.1978 -0.0296631C31.494 -0.0285057 32.7238 0.0202107 33.9838 0.351554C34.1225 0.385543 34.2612 0.419532 34.404 0.454551C36.6294 1.04159 38.6997 2.0297 40.5463 3.39843C40.6419 3.46762 40.7375 3.5368 40.8361 3.60808C42.3908 4.78647 43.7011 6.22392 44.765 7.85155C44.8363 7.95125 44.9077 8.05096 44.9811 8.15368C46.6155 10.5161 47.5846 13.7503 47.6002 16.6071C47.6011 16.7059 47.6021 16.8048 47.6031 16.9066C47.6059 17.2313 47.6079 17.556 47.6096 17.8807C47.6102 17.9923 47.6108 18.1038 47.6115 18.2188C47.6146 18.809 47.6169 19.3992 47.6186 19.9894C47.6201 20.476 47.6234 20.9625 47.6282 21.4491C47.634 22.0389 47.6369 22.6287 47.6377 23.2186C47.6385 23.4423 47.6403 23.666 47.6431 23.8898C47.6695 26.1118 47.6695 26.1118 46.9916 27.0703C46.9264 27.1767 46.8611 27.283 46.7939 27.3926C46.089 28.0784 45.2804 28.4928 44.2986 28.488C44.1623 28.4876 44.0259 28.4872 43.8855 28.4869C43.7431 28.4859 43.6007 28.4849 43.454 28.4839C43.3103 28.4833 43.1665 28.4828 43.0185 28.4823C42.6631 28.4809 42.3078 28.479 41.9525 28.4766C41.9463 28.5586 41.94 28.6406 41.9336 28.7251C41.6898 31.6811 40.5503 34.5545 38.4369 36.6797C38.4718 36.7808 38.5067 36.882 38.5426 36.9862C38.6227 37.2331 38.6962 37.4823 38.7592 37.7341C39.0634 38.9029 39.5066 40.1816 40.5937 40.8328C41.9645 41.5008 43.4682 41.8721 44.9374 42.2577C49.0518 43.3538 52.4423 46.2021 54.5867 49.8375C56.0586 52.4067 56.9503 55.2332 56.9965 58.2056C57.0009 58.3138 57.0053 58.422 57.0098 58.5335C57.0111 58.6385 57.0125 58.7434 57.0139 58.8515C57.0162 58.9455 57.0185 59.0396 57.0209 59.1365C56.9165 59.5603 56.7019 59.7273 56.3666 60C56.0442 60.0577 55.7942 60.079 55.4726 60.0737C55.383 60.0746 55.2935 60.0754 55.2013 60.0763C54.9001 60.0785 54.5992 60.0764 54.2981 60.0744C54.0805 60.0751 53.8629 60.076 53.6453 60.0772C53.0465 60.0796 52.4477 60.0784 51.8489 60.0766C51.2034 60.0753 50.558 60.0773 49.9125 60.0789C48.6477 60.0815 47.3829 60.081 46.1182 60.0793C45.0905 60.0779 44.0628 60.0778 43.0352 60.0784C42.8891 60.0785 42.743 60.0786 42.5924 60.0787C42.2956 60.0789 41.9988 60.079 41.702 60.0792C38.9967 60.0809 36.2913 60.0792 33.5859 60.0761C31.1155 60.0733 28.6452 60.0736 26.1748 60.0764C23.4001 60.0795 20.6255 60.0807 17.8508 60.0789C17.5551 60.0788 17.2594 60.0786 16.9637 60.0784C16.8182 60.0783 16.6727 60.0782 16.5227 60.0781C15.496 60.0776 14.4692 60.0785 13.4425 60.0798C12.1917 60.0815 10.9409 60.0811 9.69007 60.0779C9.05155 60.0764 8.41306 60.0758 7.77454 60.0777C7.19047 60.0795 6.60647 60.0785 6.0224 60.0754C5.81067 60.0747 5.59893 60.0751 5.3872 60.0765C5.10014 60.0783 4.81332 60.0765 4.52627 60.0737C4.44337 60.0751 4.36047 60.0765 4.27507 60.0779C3.82323 60.0692 3.64278 60.0086 3.2879 59.7186C3.03679 59.4021 2.97294 59.287 2.97672 58.8927C2.97675 58.7944 2.97678 58.6961 2.9768 58.5948C2.9804 58.4905 2.984 58.3862 2.9877 58.2788C2.98987 58.1698 2.99203 58.0609 2.99426 57.9486C3.13248 53.4782 5.15957 49.4871 8.20255 46.2891C8.31562 46.1647 8.31562 46.1647 8.43097 46.0377C10.5064 43.8272 13.3348 42.7546 16.1493 41.8359C16.4156 41.7475 16.6818 41.6588 16.9479 41.57C17.4321 41.4087 17.9165 41.2483 18.4014 41.0893C18.5545 41.0379 18.5545 41.0379 18.7107 40.9854C18.9838 40.8984 18.9838 40.8984 19.3844 40.8068C19.8252 40.5988 19.9717 40.2584 20.174 39.8373C20.2152 39.7555 20.2563 39.6737 20.2988 39.5895C20.385 39.4169 20.47 39.2437 20.5539 39.07C20.6829 38.8039 20.8163 38.5404 20.9504 38.2768C21.0336 38.1086 21.1166 37.9403 21.1994 37.7719C21.2394 37.693 21.2794 37.6142 21.3206 37.5329C21.5313 37.1056 21.5313 37.1056 21.4846 36.648C21.1771 36.2512 20.8613 35.8624 20.5417 35.4754C20.1478 34.9838 19.906 34.5285 19.665 33.9477C19.4939 33.5634 19.4939 33.5634 19.2182 33.2812C18.7326 33.1669 18.3025 33.1631 17.8073 33.1737C17.1472 33.16 16.7124 32.936 16.1713 32.5781C16.065 32.5129 15.9586 32.4476 15.849 32.3804C15.3561 31.8737 14.7767 31.0847 14.7596 30.3528C14.7643 30.2223 14.7643 30.2223 14.7692 30.0893C14.8323 29.0132 14.8323 29.0132 14.4043 28.0893C14.1006 27.9223 14.1006 27.9223 13.7781 27.7936C13.11 27.4899 12.7722 26.7857 12.4974 26.134C12.3645 25.7226 12.3724 25.3192 12.3758 24.8903C12.3752 24.7928 12.3746 24.6953 12.3739 24.5948C12.3724 24.274 12.3734 23.9533 12.3746 23.6325C12.3744 23.4072 12.374 23.182 12.3736 22.9567C12.3731 22.4845 12.3738 22.0122 12.3755 21.54C12.3775 20.9402 12.3763 20.3405 12.3742 19.7408C12.3729 19.2751 12.3734 18.8094 12.3743 18.3436C12.3745 18.1229 12.3742 17.9021 12.3734 17.6813C12.3592 12.8217 14.229 8.43556 17.5775 4.92187C17.8775 4.63159 18.1912 4.36478 18.515 4.10155C18.6232 4.01243 18.7314 3.9233 18.8428 3.83147C22.0113 1.27488 25.8652 -0.0256194 29.9262 -0.0293055ZM25.8979 2.92968C25.8124 2.95417 25.7269 2.97866 25.6389 3.00389C23.2654 3.71086 21.2453 4.9835 19.4525 6.67968C19.356 6.76865 19.2595 6.85763 19.16 6.9493C17.3997 8.62723 16.1757 10.8091 15.4682 13.125C15.4236 13.2699 15.379 13.4147 15.3331 13.564C15.0584 14.5192 14.9269 15.4136 14.8822 16.4062C15.617 16.4062 16.3518 16.4062 17.1088 16.4062C17.1354 16.0799 17.162 15.7537 17.1894 15.4175C17.4798 12.4786 18.8155 9.55585 21.0932 7.61718C23.2404 5.90103 25.7038 4.79902 28.4819 4.77676C28.5959 4.77581 28.7098 4.77486 28.8272 4.77389C29.0684 4.77227 29.3096 4.77101 29.5508 4.77009C29.7939 4.76875 30.0369 4.76636 30.2799 4.76288C33.7622 4.71304 36.8154 5.65911 39.3744 8.08593C41.6943 10.3478 42.6151 13.2446 42.89 16.4062C43.6248 16.4062 44.3596 16.4062 45.1166 16.4062C44.9662 12.5467 43.0007 8.96594 40.246 6.33956C38.3369 4.58426 36.111 3.5152 33.6322 2.81249C33.4839 2.77004 33.3356 2.72759 33.1827 2.68386C30.854 2.14082 28.1889 2.26909 25.8979 2.92968ZM21.8769 10.2246C20.6241 11.6685 19.8239 13.4587 19.5697 15.3516C19.6545 15.2653 19.7392 15.179 19.8265 15.0902C21.874 13.0712 24.5775 11.7616 27.4856 11.7466C28.4107 11.7878 28.8057 12.2262 29.4135 12.8906C29.6715 13.1185 29.9401 13.3312 30.2118 13.5425C30.3168 13.6244 30.3168 13.6244 30.4239 13.708C31.1091 14.2347 31.824 14.6937 32.5775 15.1172C32.6448 15.1553 32.712 15.1935 32.7812 15.2328C34.964 16.4544 37.8884 17.5872 40.4291 17.4609C40.5393 14.4459 39.7339 11.9617 37.6606 9.71191C35.4076 7.56037 32.503 6.97165 29.4904 7.01385C26.5281 7.08914 23.9544 8.06089 21.8769 10.2246ZM20.6832 17.9058C20.5629 18.0695 20.4438 18.234 20.326 18.3995C20.1557 18.6328 20.1557 18.6328 19.981 18.8393C19.5242 19.397 19.5003 19.8104 19.5624 20.5151C19.5735 20.6779 19.5735 20.6779 19.5847 20.8441C19.614 21.2403 19.65 21.6356 19.6869 22.0312C19.7018 22.1969 19.7167 22.3626 19.7316 22.5283C19.9148 24.5391 20.1417 26.5415 20.4633 28.5351C20.4874 28.6852 20.5116 28.8353 20.5364 28.9899C20.6427 29.6226 20.7615 30.2141 20.976 30.8203C21.5056 30.8579 22.0348 30.8807 22.5653 30.9009C22.7898 30.9171 22.7898 30.9171 23.0188 30.9336C23.4651 30.9464 23.8267 30.9411 24.2572 30.8203C24.5521 30.5164 24.7223 30.2322 24.9047 29.8512C25.2659 29.1827 26.0167 28.8273 26.7182 28.5937C27.0352 28.5676 27.34 28.5526 27.657 28.5503C27.7471 28.5492 27.8371 28.5481 27.9299 28.547C28.1201 28.5454 28.3103 28.5443 28.5004 28.5439C28.7881 28.5425 29.0754 28.5367 29.3629 28.5308C30.5925 28.5182 31.459 28.6454 32.4384 29.4507C33.2836 30.489 33.4974 31.3767 33.4249 32.6984C33.3307 33.5033 32.841 34.1869 32.226 34.6875C31.213 35.386 30.3855 35.4263 29.1852 35.4381C28.9926 35.4406 28.8 35.4446 28.6074 35.4501C27.3713 35.4852 26.355 35.4489 25.3119 34.6875C24.9457 34.3042 24.6766 33.9267 24.4861 33.4305C24.2885 33.1449 24.2885 33.1449 24.0206 33.1175C23.719 33.1062 23.4234 33.1131 23.122 33.1274C23.0174 33.1301 22.9128 33.1327 22.805 33.1354C22.5467 33.1423 22.2888 33.152 22.0307 33.1641C23.4031 35.3585 25.3698 36.9814 27.9047 37.6392C30.4302 38.1327 32.8528 37.6918 35.0385 36.3281C37.5899 34.51 38.9793 31.8729 39.4916 28.8281C39.9638 25.9079 40.4291 22.8854 40.4291 19.9219C40.3386 19.909 40.248 19.8962 40.1547 19.883C35.6122 19.223 30.795 17.8228 27.5183 14.3811C27.3049 14.1422 27.3049 14.1422 26.9159 14.1211C24.2987 14.2765 22.1999 15.8768 20.6832 17.9058ZM14.765 18.75C14.7563 19.6195 14.75 20.489 14.7457 21.3585C14.744 21.6542 14.7416 21.9498 14.7385 22.2454C14.7343 22.671 14.7323 23.0966 14.7307 23.5222C14.7289 23.6538 14.7271 23.7854 14.7252 23.921C14.7251 24.6312 14.7571 25.1608 15.1166 25.7812C15.6712 26.1719 16.185 26.1493 16.847 26.1406C16.9693 26.1397 16.9693 26.1397 17.0942 26.1389C17.2944 26.1374 17.4946 26.1352 17.6947 26.1328C17.6806 25.9909 17.6806 25.9909 17.6662 25.8462C17.4327 23.4828 17.248 21.1209 17.1088 18.75C16.3354 18.75 15.5619 18.75 14.765 18.75ZM42.89 18.75C42.8674 19.0767 42.8447 19.4035 42.8214 19.7401C42.5101 24.1993 42.5101 24.1993 42.3041 26.1328C43.6578 26.2354 43.6578 26.2354 44.8822 25.7812C45.3077 25.047 45.2796 24.3548 45.2681 23.5222C45.2674 23.3171 45.2674 23.3171 45.2666 23.1079C45.2647 22.6733 45.2603 22.2388 45.2558 21.8042C45.254 21.5087 45.2524 21.2132 45.251 20.9177C45.2471 20.1951 45.241 19.4726 45.2338 18.75C44.4604 18.75 43.6869 18.75 42.89 18.75ZM17.1088 28.4766C17.0682 29.2243 17.0522 29.8236 17.4604 30.4687C17.7319 30.6377 17.9723 30.7214 18.2807 30.8203C18.4343 30.3159 18.3343 29.8902 18.2294 29.3848C18.2121 29.2974 18.1948 29.2101 18.177 29.1202C18.1343 28.9055 18.0904 28.691 18.0463 28.4766C17.7369 28.4766 17.4275 28.4766 17.1088 28.4766ZM26.8354 31.1719C26.5481 31.6027 26.5044 31.9604 26.601 32.4609C26.9173 32.8739 27.1497 33.0721 27.6557 33.1641C28.0386 33.1924 28.4217 33.1911 28.8056 33.1934C28.9084 33.1958 29.0112 33.1982 29.1171 33.2007C29.7758 33.2046 30.2412 33.1362 30.8197 32.8125C31.107 32.3816 31.1507 32.0239 31.0541 31.5234C30.7378 31.1105 30.5054 30.9123 29.9994 30.8203C29.6165 30.792 29.2334 30.7932 28.8495 30.791C28.7467 30.7886 28.6439 30.7862 28.538 30.7837C27.8793 30.7797 27.4139 30.8482 26.8354 31.1719ZM36.0263 39.1919C35.9405 39.2775 35.8547 39.3632 35.7663 39.4514C35.6308 39.5876 35.6308 39.5876 35.4926 39.7266C35.405 39.8137 35.3174 39.9009 35.2271 39.9907C34.7366 40.482 34.2679 40.9844 33.8149 41.5105C33.5711 41.7884 33.3111 42.0468 33.0463 42.3047C32.5521 42.7929 32.0897 43.2991 31.64 43.8281C32.0971 44.3752 32.5719 44.8935 33.0783 45.395C33.145 45.4615 33.2116 45.528 33.2803 45.5965C33.4901 45.8056 33.7003 46.0144 33.9106 46.2231C34.0542 46.3662 34.1978 46.5092 34.3413 46.6523C34.6906 47.0003 35.0402 47.3479 35.39 47.6953C35.7177 47.4087 35.8733 47.1103 36.0547 46.7171C36.1129 46.5914 36.1711 46.4658 36.2311 46.3363C36.2919 46.2023 36.3528 46.0683 36.4154 45.9302C36.5088 45.7251 36.5088 45.7251 36.6041 45.516C36.9653 44.7166 37.3228 43.9157 37.6532 43.103C37.6879 43.0212 37.7225 42.9394 37.7582 42.8551C38.0214 42.1839 38.0037 41.7217 37.7192 41.0614C37.5526 40.7127 37.3777 40.3696 37.1991 40.0268C37.1382 39.9076 37.0772 39.7883 37.0144 39.6654C36.8646 39.3727 36.7138 39.0807 36.5619 38.7891C36.3362 38.7891 36.1755 39.0429 36.0263 39.1919ZM23.2025 39.2578C23.0013 39.6295 22.8049 40.0037 22.6093 40.3784C22.5524 40.4833 22.4955 40.5882 22.4369 40.6963C22.1119 41.3257 21.9331 41.716 22.1479 42.4219C22.3095 42.8871 22.4887 43.343 22.6752 43.7988C22.727 43.927 22.7788 44.0552 22.8322 44.1872C23.3031 45.3387 23.824 46.4627 24.3744 47.5781C24.7167 47.6137 24.7167 47.6137 24.9035 47.4424C24.9652 47.3796 25.0268 47.3169 25.0904 47.2522C25.1591 47.1829 25.2278 47.1137 25.2986 47.0424C25.3707 46.9678 25.4427 46.8932 25.517 46.8164C25.591 46.7411 25.6651 46.6658 25.7414 46.5881C26.1765 46.1427 26.5973 45.6887 26.9997 45.2133C27.3538 44.8098 27.7405 44.4374 28.1244 44.0625C27.6059 43.4425 27.0602 42.8623 26.4893 42.2905C26.4024 42.2032 26.3155 42.1159 26.226 42.026C26.0438 41.8432 25.8614 41.6605 25.6788 41.478C25.3984 41.1973 25.1189 40.9157 24.8395 40.6341C24.662 40.4562 24.4843 40.2783 24.3067 40.1005C24.2229 40.016 24.1392 39.9314 24.0529 39.8442C23.9754 39.7671 23.898 39.69 23.8181 39.6105C23.75 39.5422 23.6818 39.4739 23.6116 39.4035C23.4448 39.2328 23.4448 39.2328 23.2025 39.2578ZM27.89 40.0781C28.4741 40.7851 29.111 41.4279 29.765 42.0703C30.2082 41.8906 30.4558 41.6212 30.7685 41.2646C30.858 41.1634 30.9476 41.0622 31.0399 40.9579C31.25 40.7095 31.4487 40.4582 31.64 40.1953C31.5068 40.1967 31.3736 40.198 31.2363 40.1994C30.1139 40.2072 29.0088 40.1788 27.89 40.0781ZM18.9773 43.4951C18.8386 43.5398 18.8386 43.5398 18.6971 43.5855C18.5978 43.6184 18.4984 43.6514 18.396 43.6853C18.2398 43.7366 18.2398 43.7366 18.0805 43.7889C17.8593 43.8618 17.6383 43.9352 17.4173 44.0088C17.0861 44.1189 16.7542 44.2267 16.4222 44.3344C13.9758 45.1398 11.865 46.2039 10.0051 48.0081C9.87558 48.1329 9.74311 48.2545 9.60971 48.3751C7.26279 50.548 5.88743 53.9497 5.50724 57.0703C5.50724 57.2637 5.50724 57.457 5.50724 57.6562C12.8549 57.6562 20.2025 57.6562 27.7729 57.6562C27.1805 56.5651 27.1805 56.5651 26.5204 55.5249C26.4461 55.4145 26.4461 55.4145 26.3702 55.3018C26.112 54.9196 25.8501 54.5402 25.5852 54.1626C23.2438 50.8186 21.3811 47.169 19.9213 43.3594C19.5309 43.3594 19.3318 43.3795 18.9773 43.4951ZM40.0775 43.3594C40.0435 43.4451 40.0095 43.5309 39.9745 43.6193C38.4611 47.4125 36.7172 51.1868 34.2163 54.4436C33.7375 55.0729 33.3222 55.7386 32.9071 56.4111C32.8056 56.5756 32.8056 56.5756 32.7019 56.7434C32.3868 57.173 32.3868 57.173 32.226 57.6562C39.5736 57.6562 46.9213 57.6562 54.4916 57.6562C54.3866 56.3908 54.3866 56.3908 54.1254 55.1733C54.0998 55.079 54.0743 54.9847 54.048 54.8876C52.9888 51.1308 50.6062 47.7576 47.1719 45.8266C46.0043 45.2176 44.8014 44.7674 43.5534 44.3519C43.2305 44.2443 42.9084 44.1344 42.5863 44.0243C42.3786 43.954 42.1709 43.8839 41.9631 43.8139C41.8206 43.7654 41.8206 43.7654 41.6753 43.7159C41.1412 43.5392 40.6371 43.4205 40.0775 43.3594ZM29.4634 46.095C29.3411 46.2176 29.2195 46.3409 29.0985 46.4648C29.0028 46.5617 29.0028 46.5617 28.9052 46.6605C28.5056 47.0676 28.1252 47.4861 27.7559 47.921C27.3696 48.3528 26.951 48.7534 26.5369 49.1583C26.0587 49.5956 26.0587 49.5956 25.8951 50.1833C26.0733 50.6655 26.3538 51.0605 26.6449 51.4819C26.708 51.5749 26.771 51.6678 26.836 51.7636C27.1415 52.213 27.4506 52.6599 27.76 53.1065C27.8669 53.2608 27.9737 53.4151 28.0805 53.5693C28.1325 53.6443 28.1845 53.7193 28.238 53.7965C28.8155 54.6349 29.3503 55.4994 29.8822 56.3672C30.2938 56.23 30.3175 56.1635 30.5222 55.8C30.5767 55.7055 30.6312 55.6109 30.6873 55.5135C30.7455 55.4109 30.8037 55.3083 30.8637 55.2026C31.3481 54.37 31.8582 53.5747 32.4311 52.8003C32.8821 52.1877 33.3273 51.5753 33.7348 50.9326C33.8467 50.7572 33.8467 50.7572 33.9609 50.5783C34.1234 50.2943 34.1234 50.2943 34.0746 50.0462C33.9652 49.7552 33.8282 49.6052 33.6085 49.3857C33.5295 49.306 33.4505 49.2262 33.3691 49.1441C33.2832 49.0594 33.1974 48.9746 33.109 48.8873C33.0213 48.7995 32.9336 48.7118 32.8432 48.6213C32.6577 48.4361 32.4718 48.2514 32.2855 48.067C31.9994 47.7837 31.7149 47.4988 31.4306 47.2137C31.2504 47.0342 31.0702 46.8548 30.8898 46.6754C30.8042 46.5897 30.7186 46.504 30.6305 46.4158C30.5511 46.3375 30.4717 46.2592 30.3899 46.1786C30.32 46.1092 30.2501 46.0399 30.1781 45.9684C29.8501 45.6965 29.772 45.8139 29.4634 46.095Z" fill="#506CD7"/>
<path d="M47.4619 48.6328C47.8208 48.8232 47.8208 48.8232 48.165 49.1016C48.2273 49.1485 48.2895 49.1955 48.3536 49.2439C49.5532 50.1932 51.0571 51.9445 51.2705 53.5181C51.2014 53.9758 51.0674 54.1679 50.7431 54.4922C50.3337 54.6969 49.9009 54.6741 49.4541 54.6094C48.9067 54.2314 48.6153 53.6284 48.2721 53.0699C47.9822 52.6362 47.6458 52.2649 47.2866 51.888C47.1103 51.6797 47.1103 51.6797 47.1103 51.4453C47.0421 51.4154 46.9738 51.3855 46.9034 51.3547C46.4352 51.0976 46.1089 50.7194 45.8213 50.2734C45.7191 49.9046 45.7504 49.7287 45.8213 49.3359C46.2548 48.6567 46.6724 48.5276 47.4619 48.6328Z" fill="#506CD7"/>
<path d="M43.4758 46.4063C43.8421 46.626 43.8421 46.626 44.0618 46.9922C44.1776 47.5812 44.1528 48.0123 43.8421 48.5303C43.3241 48.8411 42.893 48.8659 42.304 48.75C41.9378 48.5303 41.9378 48.5303 41.718 48.1641C41.6022 47.5751 41.627 47.1439 41.9378 46.626C42.4557 46.3152 42.8868 46.2904 43.4758 46.4063Z" fill="#506CD7"/>
</g>
<defs>
<clipPath id="clip0_289_777">
<rect width="60" height="60" fill="white"/>
</clipPath>
</defs>
</svg>
