<svg width="30" height="30" viewBox="0 0 30 30" fill="none" xmlns="http://www.w3.org/2000/svg">
<path d="M19.2526 2.22099C19.9969 2.88709 20.471 3.71125 20.6808 4.6906C20.6915 4.74015 20.7022 4.78969 20.7133 4.84074C20.9031 6.30607 20.5913 7.6595 20.0948 9.02653C20.149 9.04164 20.2031 9.05675 20.2589 9.07231C20.5412 9.17984 20.6518 9.35549 20.798 9.61247C21.0817 10.2459 21.0383 10.9634 20.798 11.6047C20.6082 11.9611 20.3414 12.1946 19.9776 12.3664C19.8019 12.414 19.8019 12.414 19.6847 12.425C19.6823 12.4926 19.6798 12.5603 19.6774 12.6301C19.5474 13.7782 18.7969 14.975 17.9269 15.7062C17.8882 15.7062 17.8495 15.7062 17.8097 15.7062C17.843 15.8883 17.8775 16.0701 17.9122 16.2519C17.9214 16.3024 17.9306 16.3529 17.9401 16.4049C17.9709 16.5638 18.0067 16.7206 18.0441 16.8781C18.0564 16.9322 18.0687 16.9863 18.0814 17.0421C18.1726 17.3705 18.1726 17.3705 18.4017 17.6088C18.56 17.6712 18.7152 17.7149 18.8806 17.7547C18.9394 17.7713 18.9982 17.7879 19.0588 17.805C19.2461 17.8575 19.4341 17.9063 19.6224 17.9548C19.8103 18.0051 19.998 18.0561 20.1854 18.1083C20.3018 18.1404 20.4186 18.1715 20.5356 18.2012C20.8505 18.286 21.0671 18.3604 21.2667 18.6359C21.2667 18.7133 21.2667 18.7906 21.2667 18.8703C21.3157 18.8682 21.3647 18.8662 21.4153 18.8641C22.8561 18.8306 24.1731 19.383 25.2247 20.3679C26.2504 21.3874 26.831 22.7817 26.8424 24.2256C26.8424 24.2706 26.8425 24.3156 26.8426 24.3619C26.8428 24.4106 26.8431 24.4594 26.8434 24.5096C26.8443 24.6692 26.8447 24.8289 26.845 24.9885C26.8452 25.0433 26.8453 25.0981 26.8455 25.1546C26.8464 25.444 26.8469 25.7335 26.8472 26.0229C26.8475 26.3216 26.8489 26.6203 26.8506 26.919C26.8517 27.1492 26.852 27.3793 26.8521 27.6095C26.8523 27.7197 26.8527 27.8298 26.8535 27.94C26.8545 28.0938 26.8544 28.2476 26.854 28.4014C26.8545 28.4468 26.8551 28.4921 26.8556 28.5388C26.8536 28.8017 26.8255 28.9766 26.6573 29.1828C26.4596 29.2487 26.3105 29.2489 26.102 29.2491C26.0631 29.2492 26.0242 29.2493 25.9842 29.2494C25.8529 29.2498 25.7217 29.2497 25.5904 29.2496C25.4957 29.2498 25.401 29.2499 25.3064 29.2501C25.0454 29.2506 24.7845 29.2507 24.5236 29.2508C24.2425 29.2509 23.9614 29.2513 23.6803 29.2517C23.0653 29.2525 22.4503 29.2529 21.8353 29.2531C21.4515 29.2533 21.0678 29.2535 20.684 29.2538C19.622 29.2545 18.56 29.2551 17.498 29.2553C17.396 29.2553 17.396 29.2553 17.292 29.2553C17.2238 29.2554 17.1557 29.2554 17.0854 29.2554C16.9473 29.2554 16.8092 29.2554 16.6711 29.2555C16.6026 29.2555 16.534 29.2555 16.4635 29.2555C15.3527 29.2557 14.242 29.2567 13.1313 29.2581C11.9917 29.2595 10.8521 29.2602 9.71257 29.2603C9.07242 29.2604 8.43228 29.2607 7.79213 29.2618C7.24714 29.2627 6.70215 29.263 6.15716 29.2625C5.87897 29.2622 5.60078 29.2623 5.32258 29.2631C5.06806 29.2639 4.81356 29.2638 4.55904 29.2631C4.46681 29.263 4.37458 29.2632 4.28236 29.2637C4.15725 29.2643 4.03218 29.2639 3.90708 29.2632C3.80273 29.2632 3.80272 29.2632 3.69626 29.2633C3.49203 29.2389 3.38159 29.1913 3.21984 29.0656C3.14768 28.8491 3.15213 28.6486 3.1518 28.4231C3.15151 28.3755 3.15122 28.3279 3.15092 28.2789C3.15006 28.1211 3.14966 27.9632 3.14934 27.8054C3.149 27.695 3.14867 27.5847 3.14833 27.4744C3.14771 27.2424 3.14737 27.0104 3.14717 26.7784C3.14685 26.4837 3.14544 26.1891 3.14377 25.8945C3.14267 25.6661 3.14237 25.4376 3.14228 25.2092C3.14211 25.1008 3.14165 24.9923 3.14087 24.8839C3.13037 23.307 3.4596 21.9156 4.5089 20.6867C4.56487 20.6138 4.56487 20.6138 4.62197 20.5395C5.40893 19.5937 6.70494 19.0198 7.90734 18.8703C8.16218 18.8586 8.41425 18.8587 8.66906 18.8703C8.67389 18.8159 8.67872 18.7615 8.6837 18.7055C8.7356 18.4849 8.77528 18.459 8.96202 18.3429C9.09096 18.2946 9.09096 18.2946 9.23233 18.257C9.28552 18.2425 9.33871 18.2279 9.39351 18.213C9.45052 18.1978 9.50753 18.1826 9.56627 18.1669C9.68731 18.1329 9.80831 18.0988 9.92928 18.0645C10.1196 18.0111 10.3099 17.9584 10.501 17.9077C10.6857 17.8583 10.8694 17.806 11.0531 17.7531C11.1101 17.7387 11.1671 17.7244 11.2259 17.7096C11.5347 17.618 11.5347 17.618 11.7446 17.3855C11.8054 17.2367 11.8522 17.0923 11.8917 16.9367C11.912 16.8634 11.9322 16.79 11.9531 16.7144C11.9734 16.616 11.9734 16.616 11.9943 16.5155C12.0155 16.4164 12.0155 16.4164 12.0373 16.3153C12.0693 16.1042 12.0884 15.9191 12.0675 15.7062C11.9736 15.582 11.9736 15.582 11.8368 15.4902C10.9589 14.7705 10.5056 13.681 10.2511 12.6008C10.2511 12.5427 10.2511 12.4847 10.2511 12.425C10.2021 12.4141 10.2021 12.4141 10.1522 12.403C9.70039 12.2809 9.43444 12.0448 9.17374 11.6607C8.90771 11.1333 8.94218 10.3955 9.06136 9.82899C9.1766 9.51039 9.35194 9.30502 9.60655 9.08513C9.52635 8.87827 9.43719 8.67661 9.3451 8.4748C8.76375 7.18757 8.4864 5.76207 8.96202 4.39763C9.17449 3.84306 9.47447 3.40346 9.89952 2.99138C9.93253 2.95784 9.96554 2.92431 9.99955 2.88976C10.5555 2.36494 11.3076 2.14823 12.0492 2.07219C12.3992 2.02248 12.5324 1.91796 12.7592 1.657C14.4347 -0.0424208 17.6662 0.852105 19.2526 2.22099ZM12.8647 2.79178C12.7012 2.93505 12.4814 2.91456 12.2726 2.92912C11.4242 3.00709 10.7439 3.28834 10.184 3.95108C9.5504 4.84616 9.52632 5.78762 9.70291 6.83026C9.76622 7.17065 9.8626 7.48472 10.0167 7.79607C10.036 7.79607 10.0554 7.79607 10.0753 7.79607C10.0875 7.73081 10.0996 7.66555 10.1122 7.59831C10.3579 6.35223 10.8716 5.20349 11.954 4.45622C12.1654 4.31559 12.3445 4.31101 12.5948 4.33904C12.7706 4.45073 12.7706 4.45073 12.9464 4.60271C13.7878 5.29188 14.8418 5.7457 15.9406 5.75558C16.0222 5.75695 16.1037 5.75836 16.1853 5.75982C16.3122 5.76186 16.439 5.76359 16.5659 5.76438C17.39 5.77052 18.0788 5.92621 18.6959 6.507C19.0667 6.90026 19.3155 7.35225 19.5089 7.85466C19.6118 7.66796 19.6669 7.48645 19.7176 7.27971C19.7322 7.22132 19.7468 7.16294 19.7618 7.10278C19.8565 6.66419 19.873 6.23998 19.8751 5.79289C19.8763 5.73077 19.8775 5.66864 19.8788 5.60464C19.8837 4.58828 19.5145 3.71983 18.8058 2.99138C17.8697 2.14089 16.4761 1.6157 15.2146 1.62724C14.2657 1.69916 13.4956 2.0711 12.8647 2.79178ZM11.9595 5.55898C11.2131 6.31341 10.836 7.46252 10.8372 8.51232C10.8375 8.56079 10.8378 8.60925 10.8382 8.65918C10.8385 8.70924 10.8388 8.7593 10.8391 8.81087C10.8402 8.91186 10.8419 9.01284 10.8443 9.1138C10.8453 9.18378 10.8453 9.18378 10.8464 9.25519C10.8474 9.29718 10.8484 9.33917 10.8494 9.38243C10.837 9.49528 10.837 9.49528 10.7198 9.67107C10.5578 9.72127 10.3956 9.75275 10.2293 9.78596C10.0681 9.83596 10.0681 9.83596 9.96865 9.97021C9.88153 10.184 9.87157 10.3777 9.87389 10.6049C9.87272 10.6454 9.87155 10.6858 9.87034 10.7275C9.87063 11.0281 9.94413 11.1987 10.1339 11.4289C10.3234 11.5468 10.4893 11.6057 10.7052 11.6633C10.8956 11.7218 10.8956 11.7218 11.0128 11.8976C11.0418 12.0312 11.0669 12.1657 11.0897 12.3005C11.3034 13.4536 11.8609 14.494 12.8246 15.1805C13.7827 15.7944 14.8519 15.9451 15.9518 15.7044C16.9783 15.4361 17.74 14.8202 18.2894 13.9191C18.6678 13.2474 18.8947 12.4859 18.9816 11.7218C19.024 11.7126 19.0665 11.7033 19.1102 11.6937C19.4723 11.6063 19.7246 11.5321 19.9776 11.2531C20.1378 10.9473 20.1284 10.5946 20.0948 10.257C20.0168 10.0548 19.9536 9.94001 19.8019 9.78825C19.6706 9.76824 19.5412 9.76239 19.4086 9.75552C19.2328 9.72162 19.1614 9.6878 19.0401 9.55388C19.0016 9.38673 18.9755 9.23247 18.9559 9.06316C18.8263 8.15577 18.5135 7.39009 17.7692 6.82195C17.4831 6.65157 17.2171 6.60987 16.8877 6.60817C16.8123 6.60713 16.7368 6.60609 16.6591 6.60502C16.6197 6.60461 16.5803 6.6042 16.5397 6.60377C15.0809 6.58516 13.6674 6.29129 12.5063 5.33902C12.2831 5.17914 12.1247 5.40988 11.9595 5.55898ZM12.9464 16.2336C12.9388 16.2681 12.9311 16.3026 12.9232 16.3382C12.8876 16.4975 12.8511 16.6567 12.8146 16.8158C12.8026 16.8701 12.7905 16.9244 12.7782 16.9803C12.7164 17.2472 12.65 17.4812 12.5225 17.7243C12.3697 18.0533 12.4247 18.3445 12.4776 18.6945C12.4885 18.7733 12.4992 18.852 12.5099 18.9308C12.5394 19.1443 12.5713 19.3574 12.604 19.5704C12.6244 19.7036 12.6443 19.8367 12.6642 19.9699C12.6771 20.0547 12.6899 20.1394 12.7029 20.2241C12.7203 20.3385 12.7203 20.3385 12.738 20.4551C12.7524 20.6209 12.7524 20.6209 12.8292 20.6867C14.2701 20.8849 15.723 20.8385 17.1651 20.6867C17.2156 20.3605 17.2657 20.0342 17.3154 19.7079C17.3323 19.597 17.3493 19.4861 17.3665 19.3752C17.3912 19.2154 17.4156 19.0556 17.4398 18.8957C17.4475 18.8465 17.4552 18.7974 17.4631 18.7468C17.5237 18.3432 17.5685 17.9951 17.3849 17.6178C17.1858 17.172 17.0902 16.7091 16.9894 16.2336C16.9319 16.2534 16.8744 16.2731 16.8152 16.2935C15.4628 16.7462 14.2821 16.6918 12.9464 16.2336ZM10.6246 18.7421C10.5134 18.7734 10.5134 18.7734 10.3999 18.8054C10.3295 18.826 10.2591 18.8466 10.1865 18.8678C10.1217 18.8865 10.0568 18.9052 9.99002 18.9245C9.94082 18.9453 9.89162 18.9661 9.84093 18.9875C9.75954 19.1667 9.75954 19.1667 9.86174 19.3479C9.9012 19.4236 9.94122 19.499 9.98169 19.5741C10.0246 19.6568 10.0675 19.7396 10.1104 19.8223C10.1786 19.9522 10.2472 20.0819 10.3161 20.2115C10.3824 20.3367 10.4476 20.4626 10.5127 20.5885C10.5437 20.6456 10.5437 20.6456 10.5754 20.7038C10.7195 20.9845 10.7488 21.1915 10.7198 21.507C10.6086 21.6727 10.6086 21.6727 10.4635 21.8146C10.2268 22.0425 10.2268 22.0425 10.0753 22.3273C10.1114 22.442 10.1114 22.442 10.1909 22.5505C10.2191 22.5936 10.2472 22.6367 10.2762 22.6811C10.3078 22.7275 10.3394 22.7739 10.3719 22.8217C10.4381 22.9224 10.5041 23.0232 10.5701 23.1241C10.622 23.2024 10.622 23.2024 10.6748 23.2822C10.84 23.5346 10.9977 23.7915 11.1556 24.0485C11.2192 24.1515 11.2829 24.2545 11.3465 24.3575C11.3783 24.4089 11.41 24.4603 11.4427 24.5133C11.5753 24.7279 11.7081 24.9424 11.841 25.1569C12.1517 25.6585 12.4618 26.1604 12.7706 26.6633C12.8354 26.4643 12.8235 26.3139 12.7922 26.1082C12.7825 26.0431 12.7728 25.978 12.7628 25.9108C12.7517 25.8396 12.7406 25.7684 12.7292 25.6951C12.7179 25.6199 12.7066 25.5447 12.6949 25.4672C12.6638 25.2611 12.6322 25.0551 12.6004 24.8491C12.5673 24.6336 12.5347 24.4179 12.502 24.2023C12.447 23.8403 12.3917 23.4783 12.3362 23.1164C12.2649 22.6517 12.1941 22.1869 12.1236 21.7221C12.0629 21.3226 12.002 20.9232 11.941 20.5237C11.9215 20.3952 11.9019 20.2668 11.8823 20.1383C11.8459 19.8991 11.8092 19.6599 11.7725 19.4207C11.7617 19.3494 11.7508 19.2781 11.7396 19.2046C11.7246 19.1071 11.7246 19.1071 11.7093 19.0077C11.6963 18.9228 11.6963 18.9228 11.683 18.8363C11.6594 18.6869 11.6594 18.6869 11.5987 18.5187C11.2649 18.5187 10.9431 18.649 10.6246 18.7421ZM18.337 18.5187C18.0843 20.0502 17.8507 21.5846 17.6182 23.1193C17.5635 23.48 17.5084 23.8406 17.4533 24.2011C17.4106 24.4805 17.3683 24.7599 17.326 25.0394C17.3058 25.1726 17.2855 25.3058 17.265 25.439C17.2368 25.6231 17.209 25.8072 17.1813 25.9914C17.1728 26.0462 17.1643 26.101 17.1555 26.1575C17.1481 26.2073 17.1407 26.2571 17.1331 26.3084C17.1265 26.3517 17.12 26.3951 17.1132 26.4397C17.0973 26.552 17.0973 26.552 17.1651 26.6633C17.6173 25.9424 18.0676 25.2205 18.5128 24.4953C18.958 23.7701 19.4083 23.0482 19.8605 22.3273C19.7067 22.0626 19.5291 21.867 19.3123 21.6521C19.1794 21.452 19.1952 21.3354 19.2159 21.0968C19.2734 20.93 19.3518 20.777 19.4338 20.621C19.4559 20.5774 19.478 20.5337 19.5008 20.4888C19.5711 20.3505 19.6425 20.2128 19.714 20.0751C19.762 19.981 19.81 19.8869 19.8579 19.7928C19.9751 19.563 20.0933 19.3337 20.212 19.1047C20.0639 18.9565 19.9443 18.9327 19.7435 18.8735C19.6733 18.8527 19.6031 18.8319 19.5308 18.8105C19.4571 18.7892 19.3834 18.7678 19.3075 18.7458C19.234 18.7239 19.1606 18.7021 19.0849 18.6796C18.7168 18.5623 18.7168 18.5623 18.337 18.5187ZM7.64756 20.0618C7.61727 20.1134 7.58698 20.1649 7.55577 20.2179C7.51884 20.2803 7.4819 20.3427 7.44385 20.407C7.06082 21.0964 6.94478 21.78 6.91124 22.5617C6.9623 22.5668 7.01336 22.5718 7.06597 22.577C7.92691 22.6786 8.54955 22.9355 9.11377 23.6107C9.52054 24.1955 9.6205 24.9144 9.54796 25.6086C9.46579 25.8254 9.46579 25.8254 9.31359 25.9015C9.18898 25.9009 9.06438 25.8953 8.94005 25.8869C8.87313 25.883 8.80621 25.879 8.73726 25.875C8.5433 25.8415 8.45479 25.8061 8.31749 25.6672C8.2882 25.495 8.2882 25.495 8.31749 25.3156C8.44828 25.1487 8.5255 25.09 8.72765 25.0226C8.69025 24.5739 8.52232 24.1728 8.20031 23.8508C7.77555 23.5595 7.43601 23.3898 6.91124 23.4406C6.52637 23.5219 6.22769 23.7298 5.97374 24.0265C5.71047 24.4371 5.61262 24.8321 5.68077 25.3156C5.72716 25.4972 5.78476 25.6699 5.85656 25.8429C5.92906 25.8284 6.00157 25.8139 6.07628 25.799C6.2629 25.7762 6.30645 25.7726 6.47179 25.8759C6.5835 26.0574 6.59092 26.1605 6.55968 26.3703C6.34146 26.6366 6.02517 26.709 5.69542 26.7475C5.46327 26.7162 5.41984 26.6626 5.27062 26.4875C4.91304 25.8513 4.75188 25.1992 4.90074 24.4751C5.1034 23.7523 5.4688 23.2694 6.09093 22.8547C6.11682 22.7457 6.11682 22.7457 6.11267 22.6198C6.11354 22.5721 6.1144 22.5244 6.11529 22.4752C6.11571 22.424 6.11613 22.3728 6.11656 22.32C6.13186 21.763 6.22935 21.2795 6.3839 20.7453C6.42413 20.5893 6.46266 20.433 6.50109 20.2765C5.61703 20.593 4.93357 21.398 4.5089 22.2101C4.10237 23.0792 4.02259 23.907 4.0287 24.8549C4.02888 24.945 4.029 25.035 4.02906 25.1251C4.02967 25.456 4.03131 25.7868 4.03282 26.1176C4.03524 26.8584 4.03766 27.5992 4.04015 28.3625C6.9212 28.3625 9.80226 28.3625 12.7706 28.3625C12.686 28.1509 12.61 27.9859 12.4934 27.7955C12.4614 27.7429 12.4293 27.6903 12.3962 27.6362C12.3614 27.5798 12.3267 27.5234 12.2909 27.4653C12.2545 27.4058 12.2181 27.3463 12.1805 27.2851C11.8869 26.8066 11.5895 26.3305 11.2913 25.8548C10.9784 25.3554 10.6691 24.8539 10.3607 24.3517C10.1719 24.0443 9.98281 23.7371 9.79241 23.4308C9.75729 23.3742 9.72218 23.3177 9.68601 23.2595C9.62023 23.1537 9.55437 23.048 9.48842 22.9423C9.45928 22.8954 9.43013 22.8485 9.4001 22.8002C9.37477 22.7596 9.34944 22.7189 9.32334 22.6771C9.13746 22.3633 9.13746 22.3633 9.13941 22.1602C9.21492 21.9158 9.34508 21.7815 9.52233 21.6022C9.5528 21.5703 9.58328 21.5383 9.61468 21.5054C9.68946 21.4272 9.76511 21.3498 9.84093 21.2726C9.74253 20.9322 9.58358 20.6276 9.42345 20.3132C9.39603 20.2588 9.36861 20.2045 9.34037 20.1486C9.27306 20.0153 9.20553 19.8822 9.13781 19.7492C8.30592 19.6499 8.30592 19.6499 7.64756 20.0618ZM20.798 19.7492C20.5659 20.2133 20.3339 20.6773 20.0948 21.1554C20.2733 21.4232 20.431 21.6225 20.6522 21.8455C20.7818 22.0391 20.8029 22.1508 20.798 22.3859C20.704 22.6047 20.5764 22.7985 20.4464 22.9975C20.4092 23.0564 20.372 23.1153 20.3336 23.1761C20.2551 23.3003 20.1761 23.4243 20.0966 23.548C19.9467 23.7818 19.7999 24.0173 19.6531 24.2531C19.544 24.4282 19.4345 24.603 19.3249 24.7777C19.0889 25.1548 18.8556 25.5335 18.6227 25.9125C18.5644 26.0073 18.5644 26.0073 18.505 26.104C18.428 26.2292 18.3511 26.3544 18.2741 26.4797C18.0953 26.7706 17.916 27.0612 17.7364 27.3517C17.7057 27.4016 17.6749 27.4515 17.6433 27.5028C17.5193 27.7032 17.3949 27.902 17.2613 28.0961C17.1546 28.2321 17.1546 28.2321 17.1651 28.3625C20.0655 28.3625 22.9659 28.3625 25.9542 28.3625C25.9578 27.6253 25.9615 26.8881 25.9652 26.1286C25.9668 25.8975 25.9684 25.6663 25.97 25.4282C25.9706 25.2175 25.9706 25.2175 25.971 25.0069C25.9713 24.9144 25.9719 24.822 25.9728 24.7296C25.986 23.2996 25.619 22.0831 24.6249 21.0236C24.2052 20.621 23.6765 20.271 23.1417 20.0422C23.0837 20.0615 23.0257 20.0808 22.9659 20.1008C22.9893 20.1618 23.0126 20.2228 23.0367 20.2857C23.1966 20.7142 23.3408 21.137 23.4237 21.5876C23.4309 21.6263 23.4381 21.665 23.4455 21.7048C23.4854 21.9372 23.4942 22.1581 23.4933 22.3932C23.4964 22.5459 23.4964 22.5459 23.5519 22.6789C23.7044 22.7958 23.8575 22.8701 24.0323 22.9494C24.3376 23.1002 24.5163 23.3448 24.6578 23.6493C24.8034 24.101 24.8008 24.6195 24.6029 25.0519C24.3673 25.4561 24.0545 25.6949 23.6105 25.8429C23.1477 25.9416 22.7165 25.8939 22.3031 25.6525C21.9766 25.4274 21.7071 25.1255 21.6183 24.7297C21.5685 24.1572 21.5938 23.6891 21.9442 23.2245C22.1615 22.9847 22.4382 22.8633 22.7316 22.7375C22.6326 21.6738 22.4183 20.7225 21.8389 19.8112C21.6596 19.7037 21.4581 19.7314 21.2557 19.7382C21.0291 19.7436 21.0291 19.7436 20.798 19.7492ZM12.9464 21.5656C13.0595 22.4578 13.1838 23.3477 13.3188 24.2369C13.3369 24.3571 13.3551 24.4774 13.3732 24.5976C13.4202 24.909 13.4673 25.2204 13.5145 25.5318C13.5629 25.8516 13.6112 26.1714 13.6595 26.4912C13.7537 27.115 13.848 27.7387 13.9425 28.3625C14.6193 28.3625 15.296 28.3625 15.9933 28.3625C16.0357 28.0844 16.0782 27.8064 16.1219 27.52C16.1495 27.3393 16.1771 27.1586 16.2047 26.9779C16.2566 26.6381 16.3085 26.2982 16.3603 25.9583C16.6314 24.1816 16.6314 24.1816 16.7589 23.3651C16.7674 23.3106 16.7758 23.2562 16.7846 23.2001C16.8218 22.961 16.8592 22.722 16.897 22.4829C16.9097 22.4015 16.9224 22.3201 16.9351 22.2387C16.9457 22.1714 16.9564 22.104 16.9673 22.0346C16.9872 21.8758 16.9938 21.7254 16.9894 21.5656C16.9502 21.5674 16.9111 21.5691 16.8707 21.571C15.5568 21.6296 14.2604 21.6199 12.9464 21.5656ZM22.4972 23.9093C22.3799 24.1529 22.3611 24.3119 22.4422 24.5649C22.5379 24.7804 22.6399 24.904 22.8487 25.0226C23.0934 25.0906 23.2302 25.0895 23.475 25.019C23.7042 24.8849 23.7919 24.7949 23.9034 24.5539C23.9538 24.3135 23.9589 24.1173 23.8284 23.9036C23.6195 23.6524 23.6195 23.6524 23.3223 23.5397C22.9449 23.5183 22.7322 23.6094 22.4972 23.9093Z" fill="white"/>
</svg>
