<svg width="30" height="30" viewBox="0 0 30 30" fill="none" xmlns="http://www.w3.org/2000/svg">
<g clip-path="url(#clip0_296_646)">
<path d="M15.0023 30C15.8796 30 16.5933 29.2863 16.5933 28.409V26.3388H18.0343C18.8302 26.3388 19.4778 25.6912 19.4778 24.8951V24.1731H21.6586C24.1056 24.1731 26.096 22.1824 26.096 19.7357V4.44332C26.096 1.99339 24.1056 0 21.6586 0H8.34713C5.8972 0 3.90381 1.99339 3.90381 4.44332V19.7357C3.90381 22.1824 5.8972 24.1731 8.34713 24.1731H10.5262V24.8951C10.5262 25.6912 11.1738 26.3388 11.9702 26.3388H13.4113V28.409C13.4113 29.2863 14.1249 30 15.0023 30ZM15.6791 28.409C15.6791 28.7822 15.3755 29.0857 15.0023 29.0857C14.6291 29.0857 14.3255 28.7822 14.3255 28.409V26.3397H15.6791L15.6791 28.409ZM8.34713 23.2588C6.40135 23.2588 4.81806 21.6782 4.81806 19.7357V4.44332C4.81806 2.49724 6.40135 0.914256 8.34713 0.914256H21.6586C23.6014 0.914256 25.1817 2.49724 25.1817 4.44332V19.7357C25.1817 21.6782 23.6014 23.2588 21.6586 23.2588H19.4777V22.5389C19.4777 21.7428 18.8301 21.0952 18.0343 21.0952H18.0325H11.9702H11.9678C11.2048 21.0952 10.5262 21.7249 10.5262 22.5389V23.2588L8.34713 23.2588ZM11.4405 24.8951C11.4406 24.8325 11.4436 22.4086 11.4435 22.5395C11.4435 22.2351 11.7038 22.0095 11.9702 22.0095H18.0326C18.3248 22.0095 18.5629 22.2473 18.5629 22.5395C18.5629 22.6021 18.5635 25.026 18.5635 24.8951C18.5635 25.187 18.326 25.4245 18.0343 25.4245H11.9702C11.678 25.4245 11.4405 25.187 11.4405 24.8951Z" fill="white"/>
<path d="M22.6545 16.2311V6.0763C22.6545 4.66652 21.5075 3.51953 20.098 3.51953H9.90668C8.4966 3.51953 7.34961 4.66652 7.34961 6.0763V16.2311C7.34961 17.6408 8.4966 18.7878 9.90668 18.7878H20.098C21.5075 18.7878 22.6545 17.6408 22.6545 16.2311ZM8.26387 16.2311V6.0763C8.26387 5.17067 9.00075 4.43379 9.90668 4.43379H20.098C21.0034 4.43379 21.7403 5.17067 21.7403 6.0763V16.2311C21.7403 17.1367 21.0034 17.8736 20.098 17.8736H9.90668C9.00075 17.8736 8.26387 17.1367 8.26387 16.2311Z" fill="white"/>
<path d="M14.0874 7.44292C12.9916 8.85835 11.6851 10.7976 11.6851 11.9973C11.6851 13.8261 13.1731 15.3141 15.0022 15.3141C16.8313 15.3141 18.3194 13.8261 18.3194 11.9973C18.3194 10.7976 17.0129 8.85836 15.9171 7.44263C15.4589 6.85146 14.5551 6.83776 14.0874 7.44292ZM15.0022 14.3999C13.6773 14.3999 12.5993 13.3219 12.5993 11.9973C12.5993 11.2839 13.4261 9.79077 14.81 8.00243C14.9092 7.87519 15.0962 7.87644 15.1945 8.00243C16.5784 9.79076 17.4051 11.2839 17.4051 11.9973C17.4051 13.3219 16.3272 14.3999 15.0022 14.3999Z" fill="white"/>
</g>
<defs>
<clipPath id="clip0_296_646">
<rect width="30" height="30" fill="white"/>
</clipPath>
</defs>
</svg>
