<svg xmlns="http://www.w3.org/2000/svg" xmlns:xlink="http://www.w3.org/1999/xlink" width="515" zoomAndPan="magnify" viewBox="0 0 386.25 323.999988" height="432" preserveAspectRatio="xMidYMid meet" version="1.0"><defs><clipPath id="1452ff2f04"><path d="M 0 0.3125 L 384.753906 0.3125 L 384.753906 323.683594 L 0 323.683594 Z M 0 0.3125 " clip-rule="nonzero"/></clipPath></defs><g clip-path="url(#1452ff2f04)"><path fill="#4753bf" d="M 382.019531 83.445312 L 305.640625 2.636719 C 304.226562 1.140625 302.261719 0.292969 300.203125 0.292969 L 84.761719 0.292969 C 82.703125 0.292969 80.734375 1.140625 79.320312 2.636719 L 2.941406 83.445312 C 0.367188 86.167969 0.207031 90.378906 2.5625 93.292969 L 186.664062 320.855469 C 188.082031 322.609375 190.222656 323.628906 192.480469 323.628906 C 194.738281 323.628906 196.878906 322.609375 198.296875 320.855469 L 382.398438 93.292969 C 384.757812 90.378906 384.59375 86.167969 382.019531 83.445312 Z M 82.339844 21.238281 L 107.71875 81.101562 L 25.753906 81.101562 Z M 255.613281 96.070312 L 192.480469 288.578125 L 129.351562 96.070312 Z M 136.105469 81.101562 L 192.480469 19.992188 L 248.855469 81.101562 Z M 208.480469 15.261719 L 288.902344 15.261719 L 263.578125 74.988281 Z M 121.382812 74.988281 L 96.0625 15.261719 L 176.484375 15.261719 Z M 113.597656 96.070312 L 174.632812 282.1875 L 24.0625 96.070312 Z M 271.363281 96.070312 L 360.902344 96.070312 L 210.328125 282.1875 Z M 277.242188 81.101562 L 302.625 21.238281 L 359.210938 81.101562 Z M 277.242188 81.101562 " fill-opacity="1" fill-rule="nonzero"/><path fill="#4753bf" d="M 382.019531 83.445312 L 305.640625 2.636719 C 304.226562 1.140625 302.261719 0.292969 300.203125 0.292969 L 84.761719 0.292969 C 82.703125 0.292969 80.734375 1.140625 79.320312 2.636719 L 2.941406 83.445312 C 0.367188 86.167969 0.207031 90.378906 2.5625 93.292969 L 186.664062 320.855469 C 188.082031 322.609375 190.222656 323.628906 192.480469 323.628906 C 194.738281 323.628906 196.878906 322.609375 198.296875 320.855469 L 382.398438 93.292969 C 384.757812 90.378906 384.59375 86.167969 382.019531 83.445312 Z M 82.339844 21.238281 L 107.71875 81.101562 L 25.753906 81.101562 Z M 255.613281 96.070312 L 192.480469 288.578125 L 129.351562 96.070312 Z M 136.105469 81.101562 L 192.480469 19.992188 L 248.855469 81.101562 Z M 208.480469 15.261719 L 288.902344 15.261719 L 263.578125 74.988281 Z M 121.382812 74.988281 L 96.0625 15.261719 L 176.484375 15.261719 Z M 113.597656 96.070312 L 174.632812 282.1875 L 24.0625 96.070312 Z M 271.363281 96.070312 L 360.902344 96.070312 L 210.328125 282.1875 Z M 277.242188 81.101562 L 302.625 21.238281 L 359.210938 81.101562 Z M 277.242188 81.101562 " fill-opacity="1" fill-rule="nonzero"/></g></svg>