<svg xmlns="http://www.w3.org/2000/svg" xmlns:xlink="http://www.w3.org/1999/xlink" width="247" zoomAndPan="magnify" viewBox="0 0 185.25 176.249993" height="235" preserveAspectRatio="xMidYMid meet" version="1.0"><defs><g/><clipPath id="ddd6085cd4"><path d="M 8.585938 0 L 183.78125 0 L 183.78125 175.195312 L 8.585938 175.195312 Z M 8.585938 0 " clip-rule="nonzero"/></clipPath><clipPath id="4dfa6addce"><path d="M 96.183594 0 C 47.804688 0 8.585938 39.21875 8.585938 87.597656 C 8.585938 135.976562 47.804688 175.195312 96.183594 175.195312 C 144.5625 175.195312 183.78125 135.976562 183.78125 87.597656 C 183.78125 39.21875 144.5625 0 96.183594 0 Z M 96.183594 0 " clip-rule="nonzero"/></clipPath><radialGradient gradientTransform="matrix(1, 0, 0, 1, 8.586951, 0)" gradientUnits="userSpaceOnUse" r="123.880422" cx="87.596849" id="7e902b483a" cy="87.596849" fx="87.596849" fy="87.596849"><stop stop-opacity="1" stop-color="rgb(93.214417%, 81.465149%, 82.214355%)" offset="0"/><stop stop-opacity="1" stop-color="rgb(93.051147%, 81.204224%, 81.8573%)" offset="0.0625"/><stop stop-opacity="1" stop-color="rgb(92.89856%, 80.961609%, 81.523132%)" offset="0.121094"/><stop stop-opacity="1" stop-color="rgb(92.756653%, 80.734253%, 81.211853%)" offset="0.175781"/><stop stop-opacity="1" stop-color="rgb(92.623901%, 80.523682%, 80.923462%)" offset="0.226562"/><stop stop-opacity="1" stop-color="rgb(92.503357%, 80.329895%, 80.659485%)" offset="0.273438"/><stop stop-opacity="1" stop-color="rgb(92.391968%, 80.154419%, 80.41687%)" offset="0.316406"/><stop stop-opacity="1" stop-color="rgb(92.286682%, 79.986572%, 80.186462%)" offset="0.355469"/><stop stop-opacity="1" stop-color="rgb(92.185974%, 79.826355%, 79.968262%)" offset="0.394531"/><stop stop-opacity="1" stop-color="rgb(92.09137%, 79.675293%, 79.760742%)" offset="0.429688"/><stop stop-opacity="1" stop-color="rgb(92.001343%, 79.533386%, 79.563904%)" offset="0.464844"/><stop stop-opacity="1" stop-color="rgb(91.874695%, 79.33197%, 79.28772%)" offset="0.496094"/><stop stop-opacity="1" stop-color="rgb(91.716003%, 79.0802%, 78.941345%)" offset="0.558594"/><stop stop-opacity="1" stop-color="rgb(91.578674%, 78.862%, 78.642273%)" offset="0.613281"/><stop stop-opacity="1" stop-color="rgb(91.462708%, 78.675842%, 78.388977%)" offset="0.660156"/><stop stop-opacity="1" stop-color="rgb(91.363525%, 78.515625%, 78.170776%)" offset="0.699219"/><stop stop-opacity="1" stop-color="rgb(91.273499%, 78.373718%, 77.973938%)" offset="0.734375"/><stop stop-opacity="1" stop-color="rgb(91.152954%, 78.179932%, 77.708435%)" offset="0.765625"/><stop stop-opacity="1" stop-color="rgb(91.015625%, 77.961731%, 77.409363%)" offset="0.824219"/><stop stop-opacity="1" stop-color="rgb(90.914917%, 77.80304%, 77.189636%)" offset="0.867188"/><stop stop-opacity="1" stop-color="rgb(90.805054%, 77.626038%, 76.948547%)" offset="0.898438"/><stop stop-opacity="1" stop-color="rgb(90.667725%, 77.407837%, 76.649475%)" offset="0.949219"/><stop stop-opacity="1" stop-color="rgb(90.59906%, 77.2995%, 76.499939%)" offset="1"/></radialGradient></defs><g clip-path="url(#ddd6085cd4)"><g clip-path="url(#4dfa6addce)"><path fill="url(#7e902b483a)" d="M 8.585938 0 L 8.585938 175.195312 L 183.78125 175.195312 L 183.78125 0 Z M 8.585938 0 " fill-rule="nonzero"/></g></g><g fill="#ff57c1" fill-opacity="1"><g transform="translate(96.183793, 118.086833)"><g><path d="M 32.234375 8.59375 C 27.816406 8.59375 23.578125 7.726562 19.515625 6 C 15.460938 4.269531 12.226562 1.734375 9.8125 -1.609375 C 7.40625 -4.960938 5.945312 -8.625 5.4375 -12.59375 C 5.21875 -14.289062 5.109375 -16.160156 5.109375 -18.203125 C 5.109375 -20.242188 5.363281 -22.9375 5.875 -26.28125 C 6.382812 -29.625 7.503906 -33.253906 9.234375 -37.171875 C 10.960938 -41.085938 13.015625 -44.546875 15.390625 -47.546875 C 14.429688 -51.347656 13.953125 -54.847656 13.953125 -58.046875 C 13.953125 -61.253906 14.320312 -64.25 15.0625 -67.03125 C 15.164062 -67.476562 15.34375 -67.800781 15.59375 -68 C 15.851562 -68.207031 16.039062 -68.3125 16.15625 -68.3125 C 16.726562 -68.3125 16.898438 -67.613281 16.671875 -66.21875 C 16.441406 -64.832031 16.328125 -62.847656 16.328125 -60.265625 C 16.328125 -57.679688 16.695312 -54.40625 17.4375 -50.4375 C 21.976562 -56.28125 27.304688 -60.535156 33.421875 -63.203125 C 38.128906 -65.242188 43.066406 -66.265625 48.234375 -66.265625 C 49.703125 -66.265625 51.234375 -66.179688 52.828125 -66.015625 C 61.554688 -65.046875 67.453125 -61.695312 70.515625 -55.96875 C 71.765625 -53.59375 72.390625 -51.128906 72.390625 -48.578125 C 72.390625 -46.023438 71.796875 -43.382812 70.609375 -40.65625 C 68.109375 -35.21875 63.820312 -31.191406 57.75 -28.578125 C 53.84375 -26.878906 49.5625 -26.03125 44.90625 -26.03125 C 42.925781 -26.03125 40.914062 -26.171875 38.875 -26.453125 C 28.71875 -27.929688 21.6875 -32.753906 17.78125 -40.921875 C 16.414062 -38.984375 15.007812 -35.742188 13.5625 -31.203125 C 12.113281 -26.671875 11.273438 -23.1875 11.046875 -20.75 C 10.828125 -18.3125 10.71875 -16.269531 10.71875 -14.625 C 10.71875 -12.976562 10.832031 -11.28125 11.0625 -9.53125 C 11.457031 -6.40625 12.644531 -3.582031 14.625 -1.0625 C 16.613281 1.457031 19.265625 3.210938 22.578125 4.203125 C 25.898438 5.203125 28.78125 5.703125 31.21875 5.703125 C 39.101562 5.703125 45.820312 4.054688 51.375 0.765625 C 54.71875 -1.222656 57.335938 -3.476562 59.234375 -6 C 61.140625 -8.519531 63.171875 -11.992188 65.328125 -16.421875 C 65.671875 -17.148438 66.023438 -17.398438 66.390625 -17.171875 C 66.753906 -16.953125 66.738281 -16.414062 66.34375 -15.5625 C 64.1875 -11.195312 62.1875 -7.738281 60.34375 -5.1875 C 58.507812 -2.632812 56.003906 -0.253906 52.828125 1.953125 C 46.472656 6.378906 39.609375 8.59375 32.234375 8.59375 Z M 19.484375 -43.640625 C 23.503906 -33.367188 31.894531 -28.234375 44.65625 -28.234375 C 51.851562 -28.234375 57.617188 -30.242188 61.953125 -34.265625 C 66.296875 -38.296875 68.46875 -42.863281 68.46875 -47.96875 C 68.46875 -53.070312 66.257812 -57.046875 61.84375 -59.890625 C 58.550781 -61.984375 54.492188 -63.03125 49.671875 -63.03125 C 44.859375 -63.03125 40.007812 -61.640625 35.125 -58.859375 C 29 -55.285156 23.785156 -50.210938 19.484375 -43.640625 Z M 19.484375 -43.640625 "/></g></g></g><g fill="#000000" fill-opacity="1"><g transform="translate(19.244714, 118.086833)"><g><path d="M 31.90625 -3.0625 C 26.625 1.1875 20.78125 3.3125 14.375 3.3125 C 7.0625 3.3125 2.550781 1.269531 0.84375 -2.8125 C 0.445312 -3.769531 0.25 -4.882812 0.25 -6.15625 C 0.25 -7.4375 0.90625 -8.816406 2.21875 -10.296875 C 4.257812 -12.617188 7.09375 -13.78125 10.71875 -13.78125 C 13.15625 -13.78125 15.609375 -13.335938 18.078125 -12.453125 C 20.546875 -11.578125 24.925781 -9.46875 31.21875 -6.125 C 34.050781 -8.84375 36.882812 -12.46875 39.71875 -17 C 42.5625 -21.539062 45.015625 -25.921875 47.078125 -30.140625 C 49.148438 -34.367188 51.675781 -38.976562 54.65625 -43.96875 C 57.632812 -48.96875 60.597656 -53.109375 63.546875 -56.390625 C 57.191406 -60.191406 50.441406 -62.09375 43.296875 -62.09375 C 40.347656 -62.09375 37.34375 -61.78125 34.28125 -61.15625 C 25.488281 -59.289062 18.796875 -55.460938 14.203125 -49.671875 C 11.367188 -46.160156 9.953125 -42.816406 9.953125 -39.640625 C 9.953125 -35.328125 12.019531 -32.519531 16.15625 -31.21875 C 17.632812 -30.820312 18.910156 -30.625 19.984375 -30.625 C 21.066406 -30.625 22.273438 -30.789062 23.609375 -31.125 C 24.941406 -31.46875 26.257812 -32.265625 27.5625 -33.515625 C 30.050781 -36.003906 31.382812 -38.328125 31.5625 -40.484375 C 31.613281 -40.992188 31.9375 -41.175781 32.53125 -41.03125 C 33.125 -40.894531 33.367188 -40.457031 33.265625 -39.71875 C 32.691406 -35.582031 30.503906 -32.4375 26.703125 -30.28125 C 24.378906 -29.03125 22.054688 -28.40625 19.734375 -28.40625 L 15.3125 -29.171875 C 11 -30.648438 8.164062 -33.398438 6.8125 -37.421875 C 6.238281 -38.953125 5.953125 -40.484375 5.953125 -42.015625 C 5.953125 -45.140625 7.113281 -48.234375 9.4375 -51.296875 C 14.425781 -57.984375 23.273438 -62.265625 35.984375 -64.140625 C 38.472656 -64.472656 40.9375 -64.640625 43.375 -64.640625 C 51.257812 -64.640625 58.773438 -62.769531 65.921875 -59.03125 C 68.128906 -61.582031 70.171875 -63.523438 72.046875 -64.859375 C 73.921875 -66.191406 75.425781 -66.859375 76.5625 -66.859375 C 77.175781 -66.859375 77.539062 -66.726562 77.65625 -66.46875 C 77.769531 -66.21875 77.753906 -66.019531 77.609375 -65.875 C 77.472656 -65.738281 77.289062 -65.671875 77.0625 -65.671875 C 76.101562 -65.671875 74.859375 -64.648438 73.328125 -62.609375 C 71.796875 -60.566406 70.546875 -58.664062 69.578125 -56.90625 C 75.648438 -52.882812 80.273438 -47.722656 83.453125 -41.421875 C 86.003906 -36.378906 87.28125 -30.878906 87.28125 -24.921875 C 87.28125 -17.546875 85.519531 -11.675781 82 -7.3125 C 79.101562 -3.738281 75.585938 -1.21875 71.453125 0.25 C 66.515625 2.007812 61.640625 2.890625 56.828125 2.890625 C 47.066406 2.890625 38.757812 0.90625 31.90625 -3.0625 Z M 33.9375 -4.59375 C 39.664062 -1.1875 46.382812 0.515625 54.09375 0.515625 C 63.0625 0.515625 70.207031 -2.035156 75.53125 -7.140625 C 79.789062 -11.285156 81.921875 -17.015625 81.921875 -24.328125 C 81.921875 -29.546875 80.898438 -34.453125 78.859375 -39.046875 C 76.304688 -44.890625 72.535156 -49.765625 67.546875 -53.671875 C 65.898438 -51.117188 62.734375 -45.972656 58.046875 -38.234375 C 53.367188 -30.492188 49.414062 -24.210938 46.1875 -19.390625 C 42.957031 -14.566406 40.40625 -11.148438 38.53125 -9.140625 C 36.65625 -7.128906 35.125 -5.613281 33.9375 -4.59375 Z M 29 -4.421875 C 22.363281 -7.597656 18.164062 -9.5 16.40625 -10.125 C 14.65625 -10.75 12.941406 -11.0625 11.265625 -11.0625 C 9.597656 -11.0625 8.265625 -10.4375 7.265625 -9.1875 C 6.273438 -7.9375 5.78125 -6.816406 5.78125 -5.828125 C 5.78125 -4.835938 6.007812 -3.890625 6.46875 -2.984375 C 7.65625 -0.535156 10.09375 0.6875 13.78125 0.6875 C 19.226562 0.6875 24.300781 -1.015625 29 -4.421875 Z M 29 -4.421875 "/></g></g></g></svg>