<svg xmlns="http://www.w3.org/2000/svg" xmlns:xlink="http://www.w3.org/1999/xlink" width="731" zoomAndPan="magnify" viewBox="0 0 548.25 152.249993" height="203" preserveAspectRatio="xMidYMid meet" version="1.0"><defs><g/><clipPath id="fc7195707c"><path d="M 0.96875 0 L 546.53125 0 L 546.53125 151.503906 L 0.96875 151.503906 Z M 0.96875 0 " clip-rule="nonzero"/></clipPath></defs><g clip-path="url(#fc7195707c)"><path fill="#ffffff" d="M 0.96875 0 L 546.53125 0 L 546.53125 151.503906 L 0.96875 151.503906 Z M 0.96875 0 " fill-opacity="1" fill-rule="nonzero"/></g><g fill="#000000" fill-opacity="1"><g transform="translate(21.660733, 95.123433)"><g><path d="M 34.328125 -3.296875 C 28.648438 1.285156 22.363281 3.578125 15.46875 3.578125 C 7.59375 3.578125 2.742188 1.378906 0.921875 -3.015625 C 0.492188 -4.054688 0.28125 -5.265625 0.28125 -6.640625 C 0.28125 -8.015625 0.976562 -9.492188 2.375 -11.078125 C 4.570312 -13.578125 7.625 -14.828125 11.53125 -14.828125 C 14.15625 -14.828125 16.796875 -14.351562 19.453125 -13.40625 C 22.109375 -12.46875 26.820312 -10.195312 33.59375 -6.59375 C 36.644531 -9.519531 39.695312 -13.425781 42.75 -18.3125 C 45.800781 -23.195312 48.441406 -27.910156 50.671875 -32.453125 C 52.898438 -37.003906 55.613281 -41.960938 58.8125 -47.328125 C 62.019531 -52.703125 65.210938 -57.160156 68.390625 -60.703125 C 61.546875 -64.785156 54.28125 -66.828125 46.59375 -66.828125 C 43.425781 -66.828125 40.191406 -66.492188 36.890625 -65.828125 C 27.429688 -63.804688 20.226562 -59.6875 15.28125 -53.46875 C 12.238281 -49.675781 10.71875 -46.070312 10.71875 -42.65625 C 10.71875 -38.019531 12.941406 -35 17.390625 -33.59375 C 18.984375 -33.164062 20.359375 -32.953125 21.515625 -32.953125 C 22.671875 -32.953125 23.96875 -33.132812 25.40625 -33.5 C 26.84375 -33.875 28.257812 -34.726562 29.65625 -36.0625 C 32.34375 -38.75 33.78125 -41.253906 33.96875 -43.578125 C 34.03125 -44.128906 34.378906 -44.328125 35.015625 -44.171875 C 35.660156 -44.015625 35.921875 -43.539062 35.796875 -42.75 C 35.179688 -38.289062 32.832031 -34.90625 28.75 -32.59375 C 26.25 -31.25 23.742188 -30.578125 21.234375 -30.578125 L 16.484375 -31.40625 C 11.835938 -32.988281 8.785156 -35.945312 7.328125 -40.28125 C 6.710938 -41.925781 6.40625 -43.570312 6.40625 -45.21875 C 6.40625 -48.582031 7.65625 -51.910156 10.15625 -55.203125 C 15.53125 -62.398438 25.050781 -67.007812 38.71875 -69.03125 C 41.40625 -69.394531 44.0625 -69.578125 46.6875 -69.578125 C 55.164062 -69.578125 63.253906 -67.5625 70.953125 -63.53125 C 73.328125 -66.28125 75.519531 -68.367188 77.53125 -69.796875 C 79.550781 -71.234375 81.171875 -71.953125 82.390625 -71.953125 C 83.066406 -71.953125 83.460938 -71.8125 83.578125 -71.53125 C 83.703125 -71.257812 83.6875 -71.046875 83.53125 -70.890625 C 83.382812 -70.742188 83.1875 -70.671875 82.9375 -70.671875 C 81.90625 -70.671875 80.5625 -69.570312 78.90625 -67.375 C 77.257812 -65.175781 75.921875 -63.132812 74.890625 -61.25 C 81.421875 -56.914062 86.394531 -51.359375 89.8125 -44.578125 C 92.550781 -39.148438 93.921875 -33.234375 93.921875 -26.828125 C 93.921875 -18.890625 92.03125 -12.570312 88.25 -7.875 C 85.132812 -4.03125 81.351562 -1.3125 76.90625 0.28125 C 71.59375 2.164062 66.34375 3.109375 61.15625 3.109375 C 50.65625 3.109375 41.710938 0.972656 34.328125 -3.296875 Z M 36.53125 -4.9375 C 42.6875 -1.28125 49.914062 0.546875 58.21875 0.546875 C 67.863281 0.546875 75.554688 -2.195312 81.296875 -7.6875 C 85.867188 -12.144531 88.15625 -18.3125 88.15625 -26.1875 C 88.15625 -31.800781 87.054688 -37.078125 84.859375 -42.015625 C 82.117188 -48.304688 78.0625 -53.554688 72.6875 -57.765625 C 70.914062 -55.015625 67.507812 -49.472656 62.46875 -41.140625 C 57.4375 -32.816406 53.179688 -26.0625 49.703125 -20.875 C 46.222656 -15.6875 43.476562 -12.007812 41.46875 -9.84375 C 39.457031 -7.675781 37.8125 -6.039062 36.53125 -4.9375 Z M 31.21875 -4.765625 C 24.070312 -8.179688 19.550781 -10.222656 17.65625 -10.890625 C 15.769531 -11.566406 13.925781 -11.90625 12.125 -11.90625 C 10.320312 -11.90625 8.882812 -11.234375 7.8125 -9.890625 C 6.75 -8.546875 6.21875 -7.335938 6.21875 -6.265625 C 6.21875 -5.203125 6.460938 -4.179688 6.953125 -3.203125 C 8.234375 -0.578125 10.859375 0.734375 14.828125 0.734375 C 20.691406 0.734375 26.15625 -1.097656 31.21875 -4.765625 Z M 31.21875 -4.765625 "/></g></g></g><g fill="#000000" fill-opacity="1"><g transform="translate(114.483621, 95.123433)"><g><path d="M 21.875 -32.046875 C 26.332031 -32.046875 28.5625 -29.238281 28.5625 -23.625 C 28.5625 -21.0625 27.890625 -18.3125 26.546875 -15.375 C 24.835938 -11.40625 22.273438 -7.804688 18.859375 -4.578125 C 19.648438 -3.046875 21.082031 -2.28125 23.15625 -2.28125 C 24.8125 -2.28125 26.367188 -3.109375 27.828125 -4.765625 C 29.660156 -6.648438 30.972656 -8.3125 31.765625 -9.75 C 32.554688 -11.1875 33.132812 -12.238281 33.5 -12.90625 C 33.875 -13.582031 34.347656 -14.546875 34.921875 -15.796875 C 35.503906 -17.046875 35.851562 -17.804688 35.96875 -18.078125 C 36.09375 -18.359375 36.3125 -18.5 36.625 -18.5 C 37.226562 -18.550781 37.53125 -18.335938 37.53125 -17.859375 C 37.53125 -17.671875 37.46875 -17.453125 37.34375 -17.203125 L 36.796875 -15.921875 C 36.429688 -15.066406 36.15625 -14.457031 35.96875 -14.09375 C 35.789062 -13.726562 35.472656 -13.070312 35.015625 -12.125 C 34.554688 -11.1875 34.160156 -10.441406 33.828125 -9.890625 C 33.492188 -9.335938 33.035156 -8.601562 32.453125 -7.6875 C 31.867188 -6.769531 31.347656 -6.035156 30.890625 -5.484375 C 30.429688 -4.941406 29.867188 -4.332031 29.203125 -3.65625 C 28.535156 -2.988281 27.894531 -2.472656 27.28125 -2.109375 C 25.757812 -1.191406 24.328125 -0.734375 22.984375 -0.734375 C 20.472656 -0.734375 18.519531 -1.523438 17.125 -3.109375 C 14.3125 -1.035156 11.71875 0 9.34375 0 C 4.882812 0 2.65625 -2.804688 2.65625 -8.421875 C 2.65625 -10.984375 3.328125 -13.726562 4.671875 -16.65625 C 6.503906 -20.925781 9.082031 -24.554688 12.40625 -27.546875 C 15.726562 -30.546875 18.882812 -32.046875 21.875 -32.046875 Z M 22.890625 -29.203125 C 21.242188 -29.203125 19.289062 -28.101562 17.03125 -25.90625 C 14.769531 -23.707031 12.753906 -20.71875 10.984375 -16.9375 C 8.847656 -12.539062 7.78125 -8.9375 7.78125 -6.125 C 7.78125 -3.320312 8.847656 -1.921875 10.984375 -1.921875 C 12.515625 -1.921875 14.222656 -2.742188 16.109375 -4.390625 C 15.128906 -5.796875 14.640625 -7.289062 14.640625 -8.875 C 14.765625 -11.5 15.835938 -12.8125 17.859375 -12.8125 C 18.648438 -12.8125 19.300781 -12.535156 19.8125 -11.984375 C 20.332031 -11.441406 20.59375 -10.941406 20.59375 -10.484375 C 20.59375 -10.023438 20.535156 -9.550781 20.421875 -9.0625 C 21.453125 -10.59375 22.640625 -12.757812 23.984375 -15.5625 C 25.515625 -18.675781 26.28125 -21.726562 26.28125 -24.71875 C 26.28125 -27.707031 25.148438 -29.203125 22.890625 -29.203125 Z M 22.890625 -29.203125 "/></g></g></g><g fill="#000000" fill-opacity="1"><g transform="translate(145.149958, 95.123433)"><g><path d="M 22.0625 -21.0625 C 24.195312 -23.625 25.265625 -25.785156 25.265625 -27.546875 C 25.265625 -29.316406 24.53125 -30.203125 23.0625 -30.203125 C 20.195312 -30.203125 16.9375 -27.582031 13.28125 -22.34375 C 12.113281 -20.6875 10.976562 -18.515625 9.875 -15.828125 C 8.78125 -13.148438 8.234375 -10.726562 8.234375 -8.5625 C 8.234375 -6.394531 8.675781 -4.640625 9.5625 -3.296875 C 10.445312 -1.953125 11.820312 -1.28125 13.6875 -1.28125 C 15.550781 -1.28125 17.273438 -1.722656 18.859375 -2.609375 C 20.441406 -3.492188 21.953125 -4.894531 23.390625 -6.8125 C 24.828125 -8.738281 25.910156 -10.34375 26.640625 -11.625 C 27.367188 -12.90625 28.375 -14.828125 29.65625 -17.390625 C 30.082031 -18.242188 30.445312 -18.59375 30.75 -18.4375 C 31.0625 -18.289062 31.21875 -18.078125 31.21875 -17.796875 C 31.21875 -17.523438 30.804688 -16.519531 29.984375 -14.78125 C 29.160156 -13.039062 28.335938 -11.40625 27.515625 -9.875 C 26.691406 -8.351562 25.515625 -6.648438 23.984375 -4.765625 C 21.234375 -1.347656 17.476562 0.359375 12.71875 0.359375 C 9.300781 0.359375 6.84375 -0.476562 5.34375 -2.15625 C 3.851562 -3.832031 3.109375 -5.769531 3.109375 -7.96875 C 3.109375 -10.65625 3.765625 -13.582031 5.078125 -16.75 C 6.390625 -19.925781 7.898438 -22.675781 9.609375 -25 C 13.148438 -29.8125 17.238281 -32.21875 21.875 -32.21875 C 24.132812 -32.21875 25.765625 -31.679688 26.765625 -30.609375 C 27.773438 -29.546875 28.28125 -28.316406 28.28125 -26.921875 C 28.28125 -24.835938 27.425781 -23.066406 25.71875 -21.609375 C 24.863281 -20.816406 24.144531 -20.421875 23.5625 -20.421875 C 22.988281 -20.421875 22.488281 -20.632812 22.0625 -21.0625 Z M 22.0625 -21.0625 "/></g></g></g><g fill="#000000" fill-opacity="1"><g transform="translate(168.950703, 95.123433)"><g><path d="M 2.921875 -7.328125 C 2.921875 -12.390625 5.363281 -20.875 10.25 -32.78125 L 5.5 -32.78125 C 5.1875 -32.78125 4.984375 -32.945312 4.890625 -33.28125 C 4.804688 -33.613281 4.835938 -33.945312 4.984375 -34.28125 C 5.140625 -34.613281 5.367188 -34.78125 5.671875 -34.78125 L 11.171875 -34.78125 C 13.367188 -39.601562 15.410156 -43.628906 17.296875 -46.859375 C 19.191406 -50.097656 20.929688 -52.28125 22.515625 -53.40625 C 24.109375 -54.539062 25.253906 -55.109375 25.953125 -55.109375 C 26.648438 -55.109375 27.15625 -55.046875 27.46875 -54.921875 C 28.863281 -54.253906 29.5625 -52.867188 29.5625 -50.765625 C 29.5625 -48.660156 28.859375 -46.109375 27.453125 -43.109375 C 26.054688 -40.117188 24.6875 -37.34375 23.34375 -34.78125 L 27.734375 -34.78125 C 28.046875 -34.78125 28.242188 -34.613281 28.328125 -34.28125 C 28.421875 -33.945312 28.390625 -33.613281 28.234375 -33.28125 C 28.085938 -32.945312 27.863281 -32.78125 27.5625 -32.78125 L 22.25 -32.78125 C 18.882812 -27.101562 14.820312 -22.066406 10.0625 -17.671875 L 7.96875 -8.328125 C 7.78125 -7.535156 7.6875 -6.757812 7.6875 -6 C 7.6875 -5.238281 7.898438 -4.457031 8.328125 -3.65625 C 8.753906 -2.863281 9.425781 -2.46875 10.34375 -2.46875 C 11.382812 -2.46875 12.546875 -2.835938 13.828125 -3.578125 C 16.753906 -5.765625 19.988281 -10.367188 23.53125 -17.390625 C 23.769531 -17.941406 24.054688 -18.273438 24.390625 -18.390625 C 24.734375 -18.515625 24.929688 -18.441406 24.984375 -18.171875 C 25.046875 -17.898438 24.957031 -17.457031 24.71875 -16.84375 C 22.707031 -12.632812 21.117188 -9.644531 19.953125 -7.875 C 16.660156 -2.5625 13.148438 0.09375 9.421875 0.09375 C 7.535156 0.09375 5.976562 -0.609375 4.75 -2.015625 C 3.53125 -3.421875 2.921875 -5.191406 2.921875 -7.328125 Z M 21.328125 -34.78125 C 25.359375 -41.988281 27.375 -46.992188 27.375 -49.796875 C 27.375 -51.015625 27.160156 -51.625 26.734375 -51.625 C 26.054688 -51.625 25.03125 -50.644531 23.65625 -48.6875 C 22.289062 -46.738281 19.988281 -42.101562 16.75 -34.78125 Z M 20.140625 -32.78125 L 15.84375 -32.78125 C 15.101562 -31.0625 13.453125 -27 10.890625 -20.59375 C 14.191406 -24.007812 17.273438 -28.070312 20.140625 -32.78125 Z M 20.140625 -32.78125 "/></g></g></g><g fill="#000000" fill-opacity="1"><g transform="translate(187.258961, 95.123433)"><g><path d="M 21.875 -32.046875 C 26.332031 -32.046875 28.5625 -29.238281 28.5625 -23.625 C 28.5625 -21.0625 27.890625 -18.3125 26.546875 -15.375 C 24.835938 -11.40625 22.273438 -7.804688 18.859375 -4.578125 C 19.648438 -3.046875 21.082031 -2.28125 23.15625 -2.28125 C 24.8125 -2.28125 26.367188 -3.109375 27.828125 -4.765625 C 29.660156 -6.648438 30.972656 -8.3125 31.765625 -9.75 C 32.554688 -11.1875 33.132812 -12.238281 33.5 -12.90625 C 33.875 -13.582031 34.347656 -14.546875 34.921875 -15.796875 C 35.503906 -17.046875 35.851562 -17.804688 35.96875 -18.078125 C 36.09375 -18.359375 36.3125 -18.5 36.625 -18.5 C 37.226562 -18.550781 37.53125 -18.335938 37.53125 -17.859375 C 37.53125 -17.671875 37.46875 -17.453125 37.34375 -17.203125 L 36.796875 -15.921875 C 36.429688 -15.066406 36.15625 -14.457031 35.96875 -14.09375 C 35.789062 -13.726562 35.472656 -13.070312 35.015625 -12.125 C 34.554688 -11.1875 34.160156 -10.441406 33.828125 -9.890625 C 33.492188 -9.335938 33.035156 -8.601562 32.453125 -7.6875 C 31.867188 -6.769531 31.347656 -6.035156 30.890625 -5.484375 C 30.429688 -4.941406 29.867188 -4.332031 29.203125 -3.65625 C 28.535156 -2.988281 27.894531 -2.472656 27.28125 -2.109375 C 25.757812 -1.191406 24.328125 -0.734375 22.984375 -0.734375 C 20.472656 -0.734375 18.519531 -1.523438 17.125 -3.109375 C 14.3125 -1.035156 11.71875 0 9.34375 0 C 4.882812 0 2.65625 -2.804688 2.65625 -8.421875 C 2.65625 -10.984375 3.328125 -13.726562 4.671875 -16.65625 C 6.503906 -20.925781 9.082031 -24.554688 12.40625 -27.546875 C 15.726562 -30.546875 18.882812 -32.046875 21.875 -32.046875 Z M 22.890625 -29.203125 C 21.242188 -29.203125 19.289062 -28.101562 17.03125 -25.90625 C 14.769531 -23.707031 12.753906 -20.71875 10.984375 -16.9375 C 8.847656 -12.539062 7.78125 -8.9375 7.78125 -6.125 C 7.78125 -3.320312 8.847656 -1.921875 10.984375 -1.921875 C 12.515625 -1.921875 14.222656 -2.742188 16.109375 -4.390625 C 15.128906 -5.796875 14.640625 -7.289062 14.640625 -8.875 C 14.765625 -11.5 15.835938 -12.8125 17.859375 -12.8125 C 18.648438 -12.8125 19.300781 -12.535156 19.8125 -11.984375 C 20.332031 -11.441406 20.59375 -10.941406 20.59375 -10.484375 C 20.59375 -10.023438 20.535156 -9.550781 20.421875 -9.0625 C 21.453125 -10.59375 22.640625 -12.757812 23.984375 -15.5625 C 25.515625 -18.675781 26.28125 -21.726562 26.28125 -24.71875 C 26.28125 -27.707031 25.148438 -29.203125 22.890625 -29.203125 Z M 22.890625 -29.203125 "/></g></g></g><g fill="#000000" fill-opacity="1"><g transform="translate(217.92531, 95.123433)"><g><path d="M 17.578125 -36.703125 C 17.578125 -33.960938 15.835938 -31.367188 12.359375 -28.921875 C 13.578125 -28.867188 15.207031 -28.84375 17.25 -28.84375 C 19.300781 -28.84375 21.882812 -28.992188 25 -29.296875 C 25.113281 -29.109375 25.171875 -28.617188 25.171875 -27.828125 C 25.171875 -27.035156 24.804688 -25.859375 24.078125 -24.296875 C 23.347656 -22.742188 22.691406 -21.398438 22.109375 -20.265625 C 21.523438 -19.140625 20.972656 -18.070312 20.453125 -17.0625 C 19.941406 -16.0625 19.363281 -14.828125 18.71875 -13.359375 C 18.082031 -11.898438 17.550781 -10.5625 17.125 -9.34375 C 15.59375 -4.695312 15.835938 -2.375 17.859375 -2.375 C 20.421875 -2.375 24.203125 -7.472656 29.203125 -17.671875 C 29.628906 -18.460938 29.976562 -18.765625 30.25 -18.578125 C 30.53125 -18.398438 30.671875 -18.171875 30.671875 -17.890625 C 30.671875 -17.617188 30.273438 -16.675781 29.484375 -15.0625 C 28.691406 -13.445312 27.835938 -11.78125 26.921875 -10.0625 C 26.003906 -8.351562 24.566406 -6.375 22.609375 -4.125 C 20.296875 -1.3125 18.070312 0.09375 15.9375 0.09375 C 13.550781 0.09375 11.898438 -1.34375 10.984375 -4.21875 C 10.804688 -4.757812 10.71875 -5.578125 10.71875 -6.671875 C 10.71875 -7.773438 11.066406 -9.242188 11.765625 -11.078125 C 12.460938 -12.910156 13.570312 -15.140625 15.09375 -17.765625 C 16.625 -20.390625 17.484375 -21.925781 17.671875 -22.375 C 17.859375 -22.832031 17.953125 -23.273438 17.953125 -23.703125 C 17.953125 -25.597656 15.507812 -26.609375 10.625 -26.734375 L 9.515625 -23.796875 C 5.671875 -13.734375 1.984375 -6.992188 -1.546875 -3.578125 C -2.160156 -3.023438 -2.46875 -3.207031 -2.46875 -4.125 C -2.46875 -4.300781 -2.40625 -4.515625 -2.28125 -4.765625 C 1.132812 -9.273438 4.09375 -14.613281 6.59375 -20.78125 C 9.09375 -26.945312 10.832031 -32.804688 11.8125 -38.359375 C 12.175781 -40.253906 13.03125 -41.203125 14.375 -41.203125 C 15.71875 -41.203125 16.691406 -40.34375 17.296875 -38.625 C 17.484375 -38.082031 17.578125 -37.441406 17.578125 -36.703125 Z M 17.578125 -36.703125 "/></g></g></g><g fill="#000000" fill-opacity="1"><g transform="translate(241.726055, 95.123433)"><g><path d="M 33.046875 -24.8125 C 31.953125 -23.707031 30.394531 -21.21875 28.375 -17.34375 C 26.363281 -13.46875 25.160156 -10.566406 24.765625 -8.640625 C 24.367188 -6.722656 24.171875 -5.171875 24.171875 -3.984375 C 24.171875 -2.796875 24.628906 -2.203125 25.546875 -2.203125 C 26.703125 -2.203125 28.132812 -3.269531 29.84375 -5.40625 C 32.34375 -8.507812 34.816406 -12.566406 37.265625 -17.578125 C 37.503906 -18.128906 37.773438 -18.4375 38.078125 -18.5 C 38.566406 -18.675781 38.8125 -18.488281 38.8125 -17.9375 C 38.8125 -17.632812 38.722656 -17.269531 38.546875 -16.84375 C 32.929688 -5.488281 28.195312 0.1875 24.34375 0.1875 C 22.582031 0.1875 21.148438 -0.664062 20.046875 -2.375 C 19.492188 -3.289062 19.21875 -4.507812 19.21875 -6.03125 C 19.21875 -7.5625 19.523438 -9.425781 20.140625 -11.625 C 15.253906 -3.75 11.039062 0.1875 7.5 0.1875 C 6.53125 0.1875 5.648438 -0.117188 4.859375 -0.734375 C 3.023438 -2.015625 2.109375 -4.210938 2.109375 -7.328125 C 2.109375 -13.304688 4.703125 -19.378906 9.890625 -25.546875 C 12.816406 -28.960938 16.414062 -31.1875 20.6875 -32.21875 C 21.84375 -32.53125 22.941406 -32.6875 23.984375 -32.6875 C 26.796875 -32.6875 29.175781 -31.707031 31.125 -29.75 C 31.738281 -29.082031 31.921875 -28.441406 31.671875 -27.828125 C 31.429688 -27.222656 30.914062 -26.976562 30.125 -27.09375 C 29.445312 -29.289062 27.976562 -30.390625 25.71875 -30.390625 C 23.09375 -30.390625 19.859375 -28.316406 16.015625 -24.171875 C 13.816406 -21.722656 11.773438 -18.851562 9.890625 -15.5625 C 7.503906 -11.59375 6.3125 -8.414062 6.3125 -6.03125 C 6.3125 -3.65625 7.078125 -2.46875 8.609375 -2.46875 C 12.265625 -2.46875 17.054688 -8.082031 22.984375 -19.3125 C 24.140625 -21.570312 25.113281 -23.113281 25.90625 -23.9375 C 26.695312 -24.757812 27.703125 -25.171875 28.921875 -25.171875 C 29.171875 -25.171875 29.796875 -25.078125 30.796875 -24.890625 C 31.804688 -24.710938 32.554688 -24.6875 33.046875 -24.8125 Z M 33.046875 -24.8125 "/></g></g></g><g fill="#ff57c1" fill-opacity="1"><g transform="translate(281.059762, 95.123433)"><g><path d="M 34.703125 9.25 C 29.941406 9.25 25.378906 8.316406 21.015625 6.453125 C 16.648438 4.585938 13.171875 1.859375 10.578125 -1.734375 C 7.984375 -5.335938 6.410156 -9.273438 5.859375 -13.546875 C 5.617188 -15.378906 5.5 -17.394531 5.5 -19.59375 C 5.5 -21.789062 5.769531 -24.6875 6.3125 -28.28125 C 6.863281 -31.882812 8.066406 -35.789062 9.921875 -40 C 11.785156 -44.21875 14 -47.941406 16.5625 -51.171875 C 15.53125 -55.265625 15.015625 -59.035156 15.015625 -62.484375 C 15.015625 -65.929688 15.410156 -69.148438 16.203125 -72.140625 C 16.328125 -72.628906 16.523438 -72.976562 16.796875 -73.1875 C 17.066406 -73.40625 17.265625 -73.515625 17.390625 -73.515625 C 18.003906 -73.515625 18.1875 -72.765625 17.9375 -71.265625 C 17.695312 -69.773438 17.578125 -67.640625 17.578125 -64.859375 C 17.578125 -62.085938 17.972656 -58.5625 18.765625 -54.28125 C 23.648438 -60.570312 29.390625 -65.148438 35.984375 -68.015625 C 41.046875 -70.210938 46.351562 -71.3125 51.90625 -71.3125 C 53.488281 -71.3125 55.132812 -71.222656 56.84375 -71.046875 C 66.25 -70.003906 72.597656 -66.398438 75.890625 -60.234375 C 77.234375 -57.671875 77.90625 -55.015625 77.90625 -52.265625 C 77.90625 -49.523438 77.265625 -46.691406 75.984375 -43.765625 C 73.296875 -37.898438 68.6875 -33.566406 62.15625 -30.765625 C 57.945312 -28.929688 53.34375 -28.015625 48.34375 -28.015625 C 46.195312 -28.015625 44.03125 -28.164062 41.84375 -28.46875 C 30.914062 -30.050781 23.347656 -35.238281 19.140625 -44.03125 C 17.671875 -41.957031 16.15625 -38.476562 14.59375 -33.59375 C 13.039062 -28.71875 12.140625 -24.96875 11.890625 -22.34375 C 11.648438 -19.71875 11.53125 -17.519531 11.53125 -15.75 C 11.53125 -13.976562 11.65625 -12.144531 11.90625 -10.25 C 12.332031 -6.894531 13.613281 -3.859375 15.75 -1.140625 C 17.882812 1.566406 20.734375 3.457031 24.296875 4.53125 C 27.867188 5.601562 30.96875 6.140625 33.59375 6.140625 C 42.082031 6.140625 49.316406 4.367188 55.296875 0.828125 C 58.898438 -1.304688 61.722656 -3.734375 63.765625 -6.453125 C 65.804688 -9.171875 67.988281 -12.910156 70.3125 -17.671875 C 70.675781 -18.460938 71.054688 -18.734375 71.453125 -18.484375 C 71.847656 -18.242188 71.832031 -17.664062 71.40625 -16.75 C 69.082031 -12.050781 66.929688 -8.328125 64.953125 -5.578125 C 62.972656 -2.835938 60.269531 -0.273438 56.84375 2.109375 C 50.007812 6.867188 42.628906 9.25 34.703125 9.25 Z M 20.96875 -46.96875 C 25.300781 -35.914062 34.332031 -30.390625 48.0625 -30.390625 C 55.8125 -30.390625 62.019531 -32.554688 66.6875 -36.890625 C 71.351562 -41.222656 73.6875 -46.132812 73.6875 -51.625 C 73.6875 -57.125 71.304688 -61.398438 66.546875 -64.453125 C 63.015625 -66.710938 58.65625 -67.84375 53.46875 -67.84375 C 48.28125 -67.84375 43.0625 -66.34375 37.8125 -63.34375 C 31.21875 -59.5 25.601562 -54.039062 20.96875 -46.96875 Z M 20.96875 -46.96875 "/></g></g></g><g fill="#ff57c1" fill-opacity="1"><g transform="translate(346.054086, 95.123433)"><g><path d="M 21.875 -32.046875 C 26.332031 -32.046875 28.5625 -29.238281 28.5625 -23.625 C 28.5625 -21.0625 27.890625 -18.3125 26.546875 -15.375 C 24.835938 -11.40625 22.273438 -7.804688 18.859375 -4.578125 C 19.648438 -3.046875 21.082031 -2.28125 23.15625 -2.28125 C 24.8125 -2.28125 26.367188 -3.109375 27.828125 -4.765625 C 29.660156 -6.648438 30.972656 -8.3125 31.765625 -9.75 C 32.554688 -11.1875 33.132812 -12.238281 33.5 -12.90625 C 33.875 -13.582031 34.347656 -14.546875 34.921875 -15.796875 C 35.503906 -17.046875 35.851562 -17.804688 35.96875 -18.078125 C 36.09375 -18.359375 36.3125 -18.5 36.625 -18.5 C 37.226562 -18.550781 37.53125 -18.335938 37.53125 -17.859375 C 37.53125 -17.671875 37.46875 -17.453125 37.34375 -17.203125 L 36.796875 -15.921875 C 36.429688 -15.066406 36.15625 -14.457031 35.96875 -14.09375 C 35.789062 -13.726562 35.472656 -13.070312 35.015625 -12.125 C 34.554688 -11.1875 34.160156 -10.441406 33.828125 -9.890625 C 33.492188 -9.335938 33.035156 -8.601562 32.453125 -7.6875 C 31.867188 -6.769531 31.347656 -6.035156 30.890625 -5.484375 C 30.429688 -4.941406 29.867188 -4.332031 29.203125 -3.65625 C 28.535156 -2.988281 27.894531 -2.472656 27.28125 -2.109375 C 25.757812 -1.191406 24.328125 -0.734375 22.984375 -0.734375 C 20.472656 -0.734375 18.519531 -1.523438 17.125 -3.109375 C 14.3125 -1.035156 11.71875 0 9.34375 0 C 4.882812 0 2.65625 -2.804688 2.65625 -8.421875 C 2.65625 -10.984375 3.328125 -13.726562 4.671875 -16.65625 C 6.503906 -20.925781 9.082031 -24.554688 12.40625 -27.546875 C 15.726562 -30.546875 18.882812 -32.046875 21.875 -32.046875 Z M 22.890625 -29.203125 C 21.242188 -29.203125 19.289062 -28.101562 17.03125 -25.90625 C 14.769531 -23.707031 12.753906 -20.71875 10.984375 -16.9375 C 8.847656 -12.539062 7.78125 -8.9375 7.78125 -6.125 C 7.78125 -3.320312 8.847656 -1.921875 10.984375 -1.921875 C 12.515625 -1.921875 14.222656 -2.742188 16.109375 -4.390625 C 15.128906 -5.796875 14.640625 -7.289062 14.640625 -8.875 C 14.765625 -11.5 15.835938 -12.8125 17.859375 -12.8125 C 18.648438 -12.8125 19.300781 -12.535156 19.8125 -11.984375 C 20.332031 -11.441406 20.59375 -10.941406 20.59375 -10.484375 C 20.59375 -10.023438 20.535156 -9.550781 20.421875 -9.0625 C 21.453125 -10.59375 22.640625 -12.757812 23.984375 -15.5625 C 25.515625 -18.675781 26.28125 -21.726562 26.28125 -24.71875 C 26.28125 -27.707031 25.148438 -29.203125 22.890625 -29.203125 Z M 22.890625 -29.203125 "/></g></g></g><g fill="#ff57c1" fill-opacity="1"><g transform="translate(376.720424, 95.123433)"><g><path d="M 17.578125 -36.703125 C 17.578125 -33.960938 15.835938 -31.367188 12.359375 -28.921875 C 13.578125 -28.867188 15.207031 -28.84375 17.25 -28.84375 C 19.300781 -28.84375 21.882812 -28.992188 25 -29.296875 C 25.113281 -29.109375 25.171875 -28.617188 25.171875 -27.828125 C 25.171875 -27.035156 24.804688 -25.859375 24.078125 -24.296875 C 23.347656 -22.742188 22.691406 -21.398438 22.109375 -20.265625 C 21.523438 -19.140625 20.972656 -18.070312 20.453125 -17.0625 C 19.941406 -16.0625 19.363281 -14.828125 18.71875 -13.359375 C 18.082031 -11.898438 17.550781 -10.5625 17.125 -9.34375 C 15.59375 -4.695312 15.835938 -2.375 17.859375 -2.375 C 20.421875 -2.375 24.203125 -7.472656 29.203125 -17.671875 C 29.628906 -18.460938 29.976562 -18.765625 30.25 -18.578125 C 30.53125 -18.398438 30.671875 -18.171875 30.671875 -17.890625 C 30.671875 -17.617188 30.273438 -16.675781 29.484375 -15.0625 C 28.691406 -13.445312 27.835938 -11.78125 26.921875 -10.0625 C 26.003906 -8.351562 24.566406 -6.375 22.609375 -4.125 C 20.296875 -1.3125 18.070312 0.09375 15.9375 0.09375 C 13.550781 0.09375 11.898438 -1.34375 10.984375 -4.21875 C 10.804688 -4.757812 10.71875 -5.578125 10.71875 -6.671875 C 10.71875 -7.773438 11.066406 -9.242188 11.765625 -11.078125 C 12.460938 -12.910156 13.570312 -15.140625 15.09375 -17.765625 C 16.625 -20.390625 17.484375 -21.925781 17.671875 -22.375 C 17.859375 -22.832031 17.953125 -23.273438 17.953125 -23.703125 C 17.953125 -25.597656 15.507812 -26.609375 10.625 -26.734375 L 9.515625 -23.796875 C 5.671875 -13.734375 1.984375 -6.992188 -1.546875 -3.578125 C -2.160156 -3.023438 -2.46875 -3.207031 -2.46875 -4.125 C -2.46875 -4.300781 -2.40625 -4.515625 -2.28125 -4.765625 C 1.132812 -9.273438 4.09375 -14.613281 6.59375 -20.78125 C 9.09375 -26.945312 10.832031 -32.804688 11.8125 -38.359375 C 12.175781 -40.253906 13.03125 -41.203125 14.375 -41.203125 C 15.71875 -41.203125 16.691406 -40.34375 17.296875 -38.625 C 17.484375 -38.082031 17.578125 -37.441406 17.578125 -36.703125 Z M 17.578125 -36.703125 "/></g></g></g><g fill="#ff57c1" fill-opacity="1"><g transform="translate(400.521168, 95.123433)"><g><path d="M 33.046875 -24.8125 C 31.953125 -23.707031 30.394531 -21.21875 28.375 -17.34375 C 26.363281 -13.46875 25.160156 -10.566406 24.765625 -8.640625 C 24.367188 -6.722656 24.171875 -5.171875 24.171875 -3.984375 C 24.171875 -2.796875 24.628906 -2.203125 25.546875 -2.203125 C 26.703125 -2.203125 28.132812 -3.269531 29.84375 -5.40625 C 32.34375 -8.507812 34.816406 -12.566406 37.265625 -17.578125 C 37.503906 -18.128906 37.773438 -18.4375 38.078125 -18.5 C 38.566406 -18.675781 38.8125 -18.488281 38.8125 -17.9375 C 38.8125 -17.632812 38.722656 -17.269531 38.546875 -16.84375 C 32.929688 -5.488281 28.195312 0.1875 24.34375 0.1875 C 22.582031 0.1875 21.148438 -0.664062 20.046875 -2.375 C 19.492188 -3.289062 19.21875 -4.507812 19.21875 -6.03125 C 19.21875 -7.5625 19.523438 -9.425781 20.140625 -11.625 C 15.253906 -3.75 11.039062 0.1875 7.5 0.1875 C 6.53125 0.1875 5.648438 -0.117188 4.859375 -0.734375 C 3.023438 -2.015625 2.109375 -4.210938 2.109375 -7.328125 C 2.109375 -13.304688 4.703125 -19.378906 9.890625 -25.546875 C 12.816406 -28.960938 16.414062 -31.1875 20.6875 -32.21875 C 21.84375 -32.53125 22.941406 -32.6875 23.984375 -32.6875 C 26.796875 -32.6875 29.175781 -31.707031 31.125 -29.75 C 31.738281 -29.082031 31.921875 -28.441406 31.671875 -27.828125 C 31.429688 -27.222656 30.914062 -26.976562 30.125 -27.09375 C 29.445312 -29.289062 27.976562 -30.390625 25.71875 -30.390625 C 23.09375 -30.390625 19.859375 -28.316406 16.015625 -24.171875 C 13.816406 -21.722656 11.773438 -18.851562 9.890625 -15.5625 C 7.503906 -11.59375 6.3125 -8.414062 6.3125 -6.03125 C 6.3125 -3.65625 7.078125 -2.46875 8.609375 -2.46875 C 12.265625 -2.46875 17.054688 -8.082031 22.984375 -19.3125 C 24.140625 -21.570312 25.113281 -23.113281 25.90625 -23.9375 C 26.695312 -24.757812 27.703125 -25.171875 28.921875 -25.171875 C 29.171875 -25.171875 29.796875 -25.078125 30.796875 -24.890625 C 31.804688 -24.710938 32.554688 -24.6875 33.046875 -24.8125 Z M 33.046875 -24.8125 "/></g></g></g><g fill="#ff57c1" fill-opacity="1"><g transform="translate(432.560624, 95.123433)"><g><path d="M -9.609375 28.375 C -12.234375 28.375 -14.234375 27.582031 -15.609375 26 C -16.984375 24.414062 -17.671875 22.796875 -17.671875 21.140625 C -17.671875 19.492188 -17.164062 17.90625 -16.15625 16.375 C -15.144531 14.851562 -13.890625 13.53125 -12.390625 12.40625 C -10.898438 11.28125 -9.453125 10.332031 -8.046875 9.5625 C -6.648438 8.800781 -4.679688 7.945312 -2.140625 7 C 0.390625 6.050781 2.351562 5.347656 3.75 4.890625 C 5.15625 4.441406 7.351562 3.757812 10.34375 2.84375 C 13.332031 1.925781 15.316406 1.3125 16.296875 1 C 17.398438 -2.53125 17.953125 -5.210938 17.953125 -7.046875 C 17.953125 -10.222656 17.066406 -11.8125 15.296875 -11.8125 C 15.046875 -11.8125 14.800781 -11.78125 14.5625 -11.71875 C 11.625 -10.1875 9.882812 -9.632812 9.34375 -10.0625 C 9.03125 -10.3125 8.90625 -10.617188 8.96875 -10.984375 C 9.03125 -11.347656 9.304688 -11.59375 9.796875 -11.71875 C 13.941406 -13 17.359375 -15.6875 20.046875 -19.78125 C 20.835938 -21 21.234375 -22.125 21.234375 -23.15625 C 21.234375 -24.195312 20.804688 -25.203125 19.953125 -26.171875 C 19.097656 -27.148438 18.1875 -27.640625 17.21875 -27.640625 C 14.164062 -27.640625 11.628906 -25.898438 9.609375 -22.421875 C 7.898438 -19.554688 6.285156 -16.507812 4.765625 -13.28125 C 4.398438 -12.425781 4.003906 -12.132812 3.578125 -12.40625 C 3.148438 -12.675781 3.179688 -13.300781 3.671875 -14.28125 C 6.898438 -20.625 8.695312 -24.101562 9.0625 -24.71875 C 11.8125 -29.71875 15.566406 -32.21875 20.328125 -32.21875 C 22.460938 -32.21875 24.078125 -31.425781 25.171875 -29.84375 C 25.785156 -28.988281 26.09375 -27.722656 26.09375 -26.046875 C 26.09375 -24.367188 25.28125 -22.320312 23.65625 -19.90625 C 22.039062 -17.5 19.863281 -15.472656 17.125 -13.828125 C 17.1875 -13.828125 17.242188 -13.828125 17.296875 -13.828125 C 21.265625 -13.828125 23.3125 -11.84375 23.4375 -7.875 C 23.4375 -5.550781 23.101562 -3.320312 22.4375 -1.1875 C 27.070312 -2.101562 31.769531 -7.566406 36.53125 -17.578125 C 36.769531 -18.128906 37.070312 -18.4375 37.4375 -18.5 C 37.863281 -18.675781 38.078125 -18.488281 38.078125 -17.9375 C 38.078125 -17.269531 37.285156 -15.5 35.703125 -12.625 C 34.117188 -9.757812 32.625 -7.382812 31.21875 -5.5 C 28.65625 -1.832031 25.539062 0.363281 21.875 1.09375 C 19.5 7.625 15.976562 13.222656 11.3125 17.890625 C 6.644531 22.566406 1.070312 25.847656 -5.40625 27.734375 C -6.925781 28.160156 -8.328125 28.375 -9.609375 28.375 Z M -13.90625 19.3125 C -14.28125 20.476562 -14.46875 21.671875 -14.46875 22.890625 C -14.46875 24.109375 -14.007812 24.988281 -13.09375 25.53125 C -12.175781 26.082031 -11.320312 26.359375 -10.53125 26.359375 C -7.59375 26.359375 -4.367188 25.242188 -0.859375 23.015625 C 2.640625 20.796875 5.851562 17.972656 8.78125 14.546875 C 11.71875 11.128906 13.945312 7.378906 15.46875 3.296875 C 14.1875 3.722656 12.171875 4.332031 9.421875 5.125 C 6.679688 5.914062 4.519531 6.554688 2.9375 7.046875 C -1.34375 8.390625 -4.734375 9.796875 -7.234375 11.265625 C -10.523438 13.148438 -12.75 15.832031 -13.90625 19.3125 Z M -13.90625 19.3125 "/></g></g></g><g fill="#ff57c1" fill-opacity="1"><g transform="translate(463.776216, 95.123433)"><g><path d="M 21.875 -32.046875 C 26.332031 -32.046875 28.5625 -29.238281 28.5625 -23.625 C 28.5625 -21.0625 27.890625 -18.3125 26.546875 -15.375 C 24.835938 -11.40625 22.273438 -7.804688 18.859375 -4.578125 C 19.648438 -3.046875 21.082031 -2.28125 23.15625 -2.28125 C 24.8125 -2.28125 26.367188 -3.109375 27.828125 -4.765625 C 29.660156 -6.648438 30.972656 -8.3125 31.765625 -9.75 C 32.554688 -11.1875 33.132812 -12.238281 33.5 -12.90625 C 33.875 -13.582031 34.347656 -14.546875 34.921875 -15.796875 C 35.503906 -17.046875 35.851562 -17.804688 35.96875 -18.078125 C 36.09375 -18.359375 36.320312 -18.507812 36.65625 -18.53125 C 37 -18.5625 37.242188 -18.457031 37.390625 -18.21875 C 37.546875 -17.976562 37.53125 -17.640625 37.34375 -17.203125 L 36.796875 -15.921875 C 36.429688 -15.066406 36.15625 -14.457031 35.96875 -14.09375 C 35.789062 -13.726562 35.472656 -13.070312 35.015625 -12.125 C 34.554688 -11.1875 34.160156 -10.441406 33.828125 -9.890625 C 33.492188 -9.335938 33.035156 -8.601562 32.453125 -7.6875 C 31.867188 -6.769531 31.347656 -6.035156 30.890625 -5.484375 C 30.429688 -4.941406 29.867188 -4.332031 29.203125 -3.65625 C 28.535156 -2.988281 27.894531 -2.472656 27.28125 -2.109375 C 25.757812 -1.191406 24.328125 -0.734375 22.984375 -0.734375 C 20.472656 -0.734375 18.519531 -1.523438 17.125 -3.109375 C 14.3125 -1.035156 11.71875 0 9.34375 0 C 4.882812 0 2.65625 -2.804688 2.65625 -8.421875 C 2.65625 -10.984375 3.328125 -13.726562 4.671875 -16.65625 C 6.503906 -20.925781 9.082031 -24.554688 12.40625 -27.546875 C 15.726562 -30.546875 18.882812 -32.046875 21.875 -32.046875 Z M 22.890625 -29.203125 C 21.242188 -29.203125 19.289062 -28.101562 17.03125 -25.90625 C 14.769531 -23.707031 12.753906 -20.71875 10.984375 -16.9375 C 8.847656 -12.539062 7.78125 -8.9375 7.78125 -6.125 C 7.78125 -3.320312 8.847656 -1.921875 10.984375 -1.921875 C 12.515625 -1.921875 14.222656 -2.742188 16.109375 -4.390625 C 15.128906 -5.796875 14.640625 -7.289062 14.640625 -8.875 C 14.765625 -11.5 15.835938 -12.8125 17.859375 -12.8125 C 18.648438 -12.8125 19.300781 -12.535156 19.8125 -11.984375 C 20.332031 -11.441406 20.59375 -10.941406 20.59375 -10.484375 C 20.59375 -10.023438 20.535156 -9.550781 20.421875 -9.0625 C 21.453125 -10.59375 22.640625 -12.757812 23.984375 -15.5625 C 25.515625 -18.675781 26.28125 -21.726562 26.28125 -24.71875 C 26.28125 -27.707031 25.148438 -29.203125 22.890625 -29.203125 Z M 23.4375 -38.265625 C 23.375 -38.265625 23.265625 -38.3125 23.109375 -38.40625 C 22.960938 -38.5 22.890625 -38.648438 22.890625 -38.859375 C 22.890625 -39.078125 22.945312 -39.273438 23.0625 -39.453125 C 23.1875 -39.640625 24.054688 -40.34375 25.671875 -41.5625 C 27.296875 -42.78125 29.050781 -44.046875 30.9375 -45.359375 C 32.832031 -46.671875 34.207031 -47.644531 35.0625 -48.28125 C 35.914062 -48.925781 36.753906 -49.25 37.578125 -49.25 C 38.398438 -49.25 39.128906 -49.097656 39.765625 -48.796875 C 40.410156 -48.492188 40.734375 -48.113281 40.734375 -47.65625 C 40.734375 -47.195312 40.644531 -46.785156 40.46875 -46.421875 C 40.15625 -45.679688 37.40625 -44.132812 32.21875 -41.78125 C 27.03125 -39.4375 24.101562 -38.265625 23.4375 -38.265625 Z M 23.4375 -38.265625 "/></g></g></g><g fill="#ff57c1" fill-opacity="1"><g transform="translate(494.442542, 95.123433)"><g><path d="M 32.859375 -30.03125 C 25.359375 -16.84375 21.609375 -8.238281 21.609375 -4.21875 C 21.609375 -2.625 22.1875 -1.828125 23.34375 -1.828125 C 26.457031 -1.828125 30.640625 -7.109375 35.890625 -17.671875 C 36.253906 -18.523438 36.617188 -18.859375 36.984375 -18.671875 C 37.347656 -18.492188 37.53125 -18.25 37.53125 -17.9375 C 37.53125 -17.632812 37.410156 -17.269531 37.171875 -16.84375 C 33.929688 -10.3125 31.195312 -5.8125 28.96875 -3.34375 C 26.75 -0.875 24.523438 0.359375 22.296875 0.359375 C 20.066406 0.359375 18.367188 -0.492188 17.203125 -2.203125 C 16.597656 -2.992188 16.296875 -4.070312 16.296875 -5.4375 C 16.296875 -6.8125 16.597656 -8.472656 17.203125 -10.421875 C 17.816406 -12.378906 19.5 -15.554688 22.25 -19.953125 C 22.914062 -21.054688 23.25 -21.925781 23.25 -22.5625 C 23.25 -23.207031 22.726562 -23.53125 21.6875 -23.53125 C 20.65625 -23.53125 18.675781 -22.15625 15.75 -19.40625 C 11.351562 -15.375 7.109375 -9.332031 3.015625 -1.28125 C 2.648438 -0.664062 2.238281 -0.28125 1.78125 -0.125 C 1.320312 0.0195312 0.425781 0.125 -0.90625 0.1875 C -2.25 0.25 -3.140625 0.398438 -3.578125 0.640625 C -2.597656 -1.304688 -0.671875 -5.304688 2.203125 -11.359375 C 7.328125 -22.035156 10.679688 -28.132812 12.265625 -29.65625 C 12.992188 -30.394531 14 -30.765625 15.28125 -30.765625 C 15.53125 -30.765625 16.15625 -30.671875 17.15625 -30.484375 C 18.164062 -30.296875 18.914062 -30.265625 19.40625 -30.390625 C 17.144531 -29.171875 13.453125 -23.4375 8.328125 -13.1875 C 11.203125 -16.726562 13.8125 -19.550781 16.15625 -21.65625 C 18.507812 -23.757812 21.332031 -25.707031 24.625 -27.5 C 27.914062 -29.300781 30.328125 -30.203125 31.859375 -30.203125 C 32.222656 -30.203125 32.554688 -30.144531 32.859375 -30.03125 Z M 32.859375 -30.03125 "/></g></g></g><g fill="#000000" fill-opacity="1"><g transform="translate(190.629935, 138.211161)"><g><path d="M 14.375 -13.171875 C 14.375 -11.453125 13.742188 -10.144531 12.484375 -9.25 C 11.222656 -8.363281 9.507812 -7.921875 7.34375 -7.921875 L 5.03125 -7.921875 L 5.03125 0 L 2.421875 0 L 2.421875 -17.796875 L 8.203125 -17.796875 C 10.003906 -17.796875 11.484375 -17.378906 12.640625 -16.546875 C 13.796875 -15.722656 14.375 -14.597656 14.375 -13.171875 Z M 5.03125 -8.703125 L 7.421875 -8.703125 C 8.265625 -8.703125 8.984375 -8.863281 9.578125 -9.1875 C 10.179688 -9.507812 10.617188 -9.921875 10.890625 -10.421875 C 11.367188 -11.316406 11.609375 -12.1875 11.609375 -13.03125 C 11.609375 -13.445312 11.5 -13.941406 11.28125 -14.515625 C 10.851562 -15.691406 9.96875 -16.460938 8.625 -16.828125 C 7.332031 -16.828125 6.132812 -16.671875 5.03125 -16.359375 Z M 5.03125 -8.703125 "/></g></g></g><g fill="#000000" fill-opacity="1"><g transform="translate(213.791641, 138.211161)"><g><path d="M 2.421875 0 L 2.421875 -17.796875 L 13.203125 -17.796875 L 12.921875 -15.984375 L 7.921875 -16.828125 C 7.046875 -16.828125 6.082031 -16.671875 5.03125 -16.359375 L 5.03125 -9.84375 L 10.984375 -9.84375 L 10.984375 -8.8125 L 5.03125 -8.8125 L 5.03125 -0.96875 L 13.359375 -1.796875 L 13.09375 0 Z M 2.421875 0 "/></g></g></g><g fill="#000000" fill-opacity="1"><g transform="translate(237.383233, 138.211161)"><g><path d="M 2.421875 0 L 2.421875 -17.796875 L 7.5 -17.796875 C 9.613281 -17.796875 11.519531 -17.347656 13.21875 -16.453125 C 14.132812 -15.984375 14.929688 -15.398438 15.609375 -14.703125 C 16.296875 -14.003906 16.84375 -13.113281 17.25 -12.03125 C 17.664062 -10.945312 17.875 -9.738281 17.875 -8.40625 C 17.875 -6.507812 17.398438 -4.90625 16.453125 -3.59375 C 14.710938 -1.195312 11.898438 0 8.015625 0 Z M 7.46875 -0.90625 C 9.75 -0.90625 11.578125 -1.578125 12.953125 -2.921875 C 14.328125 -4.265625 15.015625 -6.238281 15.015625 -8.84375 C 15.015625 -10.851562 14.46875 -12.566406 13.375 -13.984375 C 12.289062 -15.410156 10.878906 -16.359375 9.140625 -16.828125 C 7.578125 -16.828125 6.210938 -16.640625 5.046875 -16.265625 L 5.046875 -1.15625 C 5.617188 -0.988281 6.425781 -0.90625 7.46875 -0.90625 Z M 7.46875 -0.90625 "/></g></g></g><g fill="#000000" fill-opacity="1"><g transform="translate(264.897502, 138.211161)"><g><path d="M 4.890625 -17.796875 L 4.890625 0 L 2.421875 0 L 2.421875 -17.796875 Z M 4.890625 -17.796875 "/></g></g></g><g fill="#000000" fill-opacity="1"><g transform="translate(280.697476, 138.211161)"><g><path d="M 0.265625 0 L 8.25 -18.21875 L 8.65625 -18.21875 L 16.640625 0 L 13.703125 0 L 11.6875 -4.84375 L 3.703125 -4.84375 L 1.71875 0 Z M 4.109375 -5.859375 L 11.265625 -5.859375 L 7.71875 -14.5625 Z M 4.109375 -5.859375 "/></g></g></g><g fill="#000000" fill-opacity="1"><g transform="translate(306.089202, 138.211161)"><g><path d="M 8.5 0 L 5.890625 0 L 5.890625 -16.5 C 5.273438 -16.644531 4.664062 -16.71875 4.0625 -16.71875 L 0.4375 -15.890625 L 0.265625 -17.796875 L 14.109375 -17.796875 L 13.96875 -15.890625 L 10.3125 -16.71875 C 9.707031 -16.71875 9.101562 -16.644531 8.5 -16.5 Z M 8.5 0 "/></g></g></g><g fill="#000000" fill-opacity="1"><g transform="translate(328.955368, 138.211161)"><g><path d="M 5.046875 -8.5 L 5.046875 0 L 2.421875 0 L 2.421875 -17.796875 L 8.21875 -17.796875 C 10.03125 -17.796875 11.515625 -17.390625 12.671875 -16.578125 C 13.828125 -15.773438 14.40625 -14.710938 14.40625 -13.390625 C 14.40625 -12.078125 13.941406 -11.039062 13.015625 -10.28125 C 12.097656 -9.519531 10.847656 -8.992188 9.265625 -8.703125 L 16.46875 0 L 13.359375 0.375 L 7.125 -8.5 Z M 5.046875 -9.296875 L 6.765625 -9.296875 C 9.992188 -9.296875 11.609375 -10.566406 11.609375 -13.109375 C 11.609375 -13.546875 11.5 -14.03125 11.28125 -14.5625 C 10.875 -15.695312 10 -16.441406 8.65625 -16.796875 C 7.4375 -16.796875 6.234375 -16.644531 5.046875 -16.34375 Z M 5.046875 -9.296875 "/></g></g></g><g fill="#000000" fill-opacity="1"><g transform="translate(354.588896, 138.211161)"><g><path d="M 0.265625 0 L 8.25 -18.21875 L 8.65625 -18.21875 L 16.640625 0 L 13.703125 0 L 11.6875 -4.84375 L 3.703125 -4.84375 L 1.71875 0 Z M 4.109375 -5.859375 L 11.265625 -5.859375 L 7.71875 -14.5625 Z M 4.109375 -5.859375 "/></g></g></g></svg>